%TF.GenerationSoftware,Altium Limited,Altium Designer,25.8.1 (18)*%
G04 Layer_Color=128*
%FSLAX45Y45*%
%MOMM*%
%TF.SameCoordinates,8D7D6CBC-1C92-4AEA-9EFE-506313E8E312*%
%TF.FilePolarity,Positive*%
%TF.FileFunction,Drillmap*%
%TF.Part,Single*%
G01*
G75*
%TA.AperFunction,NonConductor*%
%ADD150C,0.12700*%
D150*
X5636960Y-2344428D02*
X5736960D01*
X5686960Y-2394428D02*
Y-2294428D01*
X2728980Y-2870200D02*
X3046980D01*
X2887980Y-3029200D02*
Y-2711200D01*
X3975000Y-2816860D02*
X4030000D01*
X4002500Y-2844360D02*
Y-2789360D01*
X4100000Y-2816860D02*
X4155000D01*
X4127500Y-2844360D02*
Y-2789360D01*
X4225000Y-2816860D02*
X4280000D01*
X4252500Y-2844360D02*
Y-2789360D01*
X5636960Y-2852420D02*
X5736960D01*
X5686960Y-2902420D02*
Y-2802420D01*
X3109980Y5699760D02*
X3427980D01*
X3268980Y5540760D02*
Y5858760D01*
X10728980Y-2870200D02*
X11046980D01*
X10887980Y-3029200D02*
Y-2711200D01*
X10879260Y-1714500D02*
X10934260D01*
X10906760Y-1742000D02*
Y-1687000D01*
X10755860Y-134780D02*
X10810859D01*
X10783359Y-162280D02*
Y-107280D01*
X10880860Y-134780D02*
X10935860D01*
X10908360Y-162280D02*
Y-107280D01*
X10478520Y5699760D02*
X10796520D01*
X10637520Y5540760D02*
Y5858760D01*
X10879260Y-1839500D02*
X10934260D01*
X10906760Y-1867000D02*
Y-1812000D01*
X10879260Y-1589500D02*
X10934260D01*
X10906760Y-1617000D02*
Y-1562000D01*
X10754260Y-1839500D02*
X10809260D01*
X10781760Y-1867000D02*
Y-1812000D01*
X6305640Y5204460D02*
X6475640D01*
X6390640Y5119460D02*
Y5289460D01*
X6813640Y5204460D02*
X6983640D01*
X6898640Y5119460D02*
Y5289460D01*
X6813640Y5712460D02*
X6983640D01*
X6898640Y5627460D02*
Y5797460D01*
X6305640Y5712460D02*
X6475640D01*
X6390640Y5627460D02*
Y5797460D01*
X6569640Y5458460D02*
X6719640D01*
X6644640Y5383460D02*
Y5533460D01*
X10754260Y-1714500D02*
X10809260D01*
X10781760Y-1742000D02*
Y-1687000D01*
X5636960Y-2598420D02*
X5736960D01*
X5686960Y-2648420D02*
Y-2548420D01*
X10651759Y-2229500D02*
X10871760D01*
X10761760Y-2339500D02*
Y-2119500D01*
X10651760Y-1199500D02*
X10871760D01*
X10761760Y-1309500D02*
Y-1089500D01*
X10754260Y-1589500D02*
X10809260D01*
X10781760Y-1617000D02*
Y-1562000D01*
X4225000Y-2691859D02*
X4280000D01*
X4252500Y-2719359D02*
Y-2664360D01*
X4100000Y-2691860D02*
X4155000D01*
X4127500Y-2719360D02*
Y-2664360D01*
X3975000Y-2691860D02*
X4030000D01*
X4002500Y-2719360D02*
Y-2664360D01*
X4532500Y-2671860D02*
X4752500D01*
X4642500Y-2781860D02*
Y-2561860D01*
X3502500Y-2671860D02*
X3722500D01*
X3612500Y-2781860D02*
Y-2561860D01*
X10653360Y380220D02*
X10873360D01*
X10763360Y270220D02*
Y490220D01*
X10653360Y-649780D02*
X10873360D01*
X10763360Y-759780D02*
Y-539780D01*
X10755860Y-259780D02*
X10810859D01*
X10783359Y-287280D02*
Y-232280D01*
X10880860Y-259780D02*
X10935860D01*
X10908360Y-287280D02*
Y-232280D01*
X10755860Y-9780D02*
X10810859D01*
X10783359Y-37280D02*
Y17720D01*
X10880860Y-9780D02*
X10935860D01*
X10908360Y-37280D02*
Y17720D01*
X7582140Y2545080D02*
X7612140D01*
X7597140Y2530080D02*
Y2560080D01*
X7442440Y2346960D02*
X7472440D01*
X7457440Y2331960D02*
Y2361960D01*
X7506360Y2952184D02*
X7536360D01*
X7521360Y2937184D02*
Y2967184D01*
X5978130Y4265930D02*
X6008130D01*
X5993130Y4250930D02*
Y4280930D01*
X4818281Y3634401D02*
X4848281D01*
X4833281Y3619401D02*
Y3649401D01*
X5009120Y3657600D02*
X5039120D01*
X5024120Y3642600D02*
Y3672600D01*
X6713460Y5102860D02*
X6743460D01*
X6728460Y5087860D02*
Y5117860D01*
X6708380Y5270500D02*
X6738380D01*
X6723380Y5255500D02*
Y5285500D01*
X6566140Y5146040D02*
X6596140D01*
X6581140Y5131040D02*
Y5161040D01*
X6566140Y5250180D02*
X6596140D01*
X6581140Y5235180D02*
Y5265180D01*
X11184999Y5138239D02*
X11214999D01*
X11199999Y5123239D02*
Y5153239D01*
X11184999Y4338239D02*
X11214999D01*
X11199999Y4323239D02*
Y4353239D01*
X11184999Y3538239D02*
X11214999D01*
X11199999Y3523239D02*
Y3553239D01*
X11184999Y2738239D02*
X11214999D01*
X11199999Y2723239D02*
Y2753239D01*
X11184999Y1938239D02*
X11214999D01*
X11199999Y1923239D02*
Y1953239D01*
X11184999Y1138239D02*
X11214999D01*
X11199999Y1123239D02*
Y1153239D01*
X11184999Y338239D02*
X11214999D01*
X11199999Y323239D02*
Y353239D01*
X11184999Y-461761D02*
X11214999D01*
X11199999Y-476761D02*
Y-446761D01*
X11184999Y-1261760D02*
X11214999D01*
X11199999Y-1276760D02*
Y-1246761D01*
X11184999Y-2061760D02*
X11214999D01*
X11199999Y-2076760D02*
Y-2046760D01*
X10984999Y5538239D02*
X11014999D01*
X10999999Y5523239D02*
Y5553239D01*
X10784999Y5138239D02*
X10814999D01*
X10799999Y5123239D02*
Y5153239D01*
X10984999Y4738239D02*
X11014999D01*
X10999999Y4723239D02*
Y4753239D01*
X10784999Y4338239D02*
X10814999D01*
X10799999Y4323239D02*
Y4353239D01*
X10984999Y3938239D02*
X11014999D01*
X10999999Y3923239D02*
Y3953239D01*
X10784999Y3538239D02*
X10814999D01*
X10799999Y3523239D02*
Y3553239D01*
X10984999Y3138239D02*
X11014999D01*
X10999999Y3123239D02*
Y3153239D01*
X10784999Y2738239D02*
X10814999D01*
X10799999Y2723239D02*
Y2753239D01*
X10984999Y2338239D02*
X11014999D01*
X10999999Y2323239D02*
Y2353239D01*
X10784999Y1938239D02*
X10814999D01*
X10799999Y1923239D02*
Y1953239D01*
X10984999Y1538239D02*
X11014999D01*
X10999999Y1523239D02*
Y1553239D01*
X10784999Y1138239D02*
X10814999D01*
X10799999Y1123239D02*
Y1153239D01*
X10984999Y738239D02*
X11014999D01*
X10999999Y723239D02*
Y753239D01*
X10984999Y-861761D02*
X11014999D01*
X10999999Y-876761D02*
Y-846761D01*
X10984999Y-2461760D02*
X11014999D01*
X10999999Y-2476760D02*
Y-2446760D01*
X10384999Y5138239D02*
X10414999D01*
X10399999Y5123239D02*
Y5153239D01*
X10584999Y4738239D02*
X10614999D01*
X10599999Y4723239D02*
Y4753239D01*
X10384999Y4338239D02*
X10414999D01*
X10399999Y4323239D02*
Y4353239D01*
X10584999Y3938239D02*
X10614999D01*
X10599999Y3923239D02*
Y3953239D01*
X10384999Y3538239D02*
X10414999D01*
X10399999Y3523239D02*
Y3553239D01*
X10584999Y3138239D02*
X10614999D01*
X10599999Y3123239D02*
Y3153239D01*
X10384999Y2738239D02*
X10414999D01*
X10399999Y2723239D02*
Y2753239D01*
X10584999Y2338239D02*
X10614999D01*
X10599999Y2323239D02*
Y2353239D01*
X10384999Y1938239D02*
X10414999D01*
X10399999Y1923239D02*
Y1953239D01*
X10584999Y1538239D02*
X10614999D01*
X10599999Y1523239D02*
Y1553239D01*
X10384999Y1138239D02*
X10414999D01*
X10399999Y1123239D02*
Y1153239D01*
X10584999Y738239D02*
X10614999D01*
X10599999Y723239D02*
Y753239D01*
X10384999Y-1261760D02*
X10414999D01*
X10399999Y-1276760D02*
Y-1246761D01*
X10384999Y-2061760D02*
X10414999D01*
X10399999Y-2076760D02*
Y-2046760D01*
X9984999Y5938239D02*
X10014999D01*
X9999999Y5923239D02*
Y5953239D01*
X10184999Y5538239D02*
X10214999D01*
X10199999Y5523239D02*
Y5553239D01*
X9984999Y5138239D02*
X10014999D01*
X9999999Y5123239D02*
Y5153239D01*
X10184999Y4738239D02*
X10214999D01*
X10199999Y4723239D02*
Y4753239D01*
X9984999Y4338239D02*
X10014999D01*
X9999999Y4323239D02*
Y4353239D01*
X10184999Y3938239D02*
X10214999D01*
X10199999Y3923239D02*
Y3953239D01*
X9984999Y3538239D02*
X10014999D01*
X9999999Y3523239D02*
Y3553239D01*
X10184999Y3138239D02*
X10214999D01*
X10199999Y3123239D02*
Y3153239D01*
X9984999Y2738239D02*
X10014999D01*
X9999999Y2723239D02*
Y2753239D01*
X10184999Y2338239D02*
X10214999D01*
X10199999Y2323239D02*
Y2353239D01*
X9984999Y1938239D02*
X10014999D01*
X9999999Y1923239D02*
Y1953239D01*
X10184999Y1538239D02*
X10214999D01*
X10199999Y1523239D02*
Y1553239D01*
X9984999Y1138239D02*
X10014999D01*
X9999999Y1123239D02*
Y1153239D01*
X10184999Y738239D02*
X10214999D01*
X10199999Y723239D02*
Y753239D01*
X10184999Y-861761D02*
X10214999D01*
X10199999Y-876761D02*
Y-846761D01*
X9984999Y-1261760D02*
X10014999D01*
X9999999Y-1276760D02*
Y-1246761D01*
X9584999Y5938239D02*
X9614999D01*
X9599999Y5923239D02*
Y5953239D01*
X9784999Y5538239D02*
X9814999D01*
X9799999Y5523239D02*
Y5553239D01*
X9584999Y5138239D02*
X9614999D01*
X9599999Y5123239D02*
Y5153239D01*
X9784999Y4738239D02*
X9814999D01*
X9799999Y4723239D02*
Y4753239D01*
X9584999Y4338239D02*
X9614999D01*
X9599999Y4323239D02*
Y4353239D01*
X9784999Y3938239D02*
X9814999D01*
X9799999Y3923239D02*
Y3953239D01*
X9584999Y3538239D02*
X9614999D01*
X9599999Y3523239D02*
Y3553239D01*
X9784999Y3138239D02*
X9814999D01*
X9799999Y3123239D02*
Y3153239D01*
X9584999Y2738239D02*
X9614999D01*
X9599999Y2723239D02*
Y2753239D01*
X9784999Y2338239D02*
X9814999D01*
X9799999Y2323239D02*
Y2353239D01*
X9784999Y738239D02*
X9814999D01*
X9799999Y723239D02*
Y753239D01*
X9784999Y-861761D02*
X9814999D01*
X9799999Y-876761D02*
Y-846761D01*
X9584999Y-1261760D02*
X9614999D01*
X9599999Y-1276760D02*
Y-1246761D01*
X9784999Y-2461760D02*
X9814999D01*
X9799999Y-2476760D02*
Y-2446760D01*
X9584999Y-2861760D02*
X9614999D01*
X9599999Y-2876760D02*
Y-2846760D01*
X9184999Y5938239D02*
X9214999D01*
X9199999Y5923239D02*
Y5953239D01*
X9384999Y5538239D02*
X9414999D01*
X9399999Y5523239D02*
Y5553239D01*
X9184999Y5138239D02*
X9214999D01*
X9199999Y5123239D02*
Y5153239D01*
X9384999Y4738239D02*
X9414999D01*
X9399999Y4723239D02*
Y4753239D01*
X9184999Y4338239D02*
X9214999D01*
X9199999Y4323239D02*
Y4353239D01*
X9384999Y3938239D02*
X9414999D01*
X9399999Y3923239D02*
Y3953239D01*
X9184999Y3538239D02*
X9214999D01*
X9199999Y3523239D02*
Y3553239D01*
X9384999Y3138239D02*
X9414999D01*
X9399999Y3123239D02*
Y3153239D01*
X9184999Y2738239D02*
X9214999D01*
X9199999Y2723239D02*
Y2753239D01*
X9384999Y2338239D02*
X9414999D01*
X9399999Y2323239D02*
Y2353239D01*
X9384999Y738239D02*
X9414999D01*
X9399999Y723239D02*
Y753239D01*
X9184999Y338239D02*
X9214999D01*
X9199999Y323239D02*
Y353239D01*
X9384999Y-861761D02*
X9414999D01*
X9399999Y-876761D02*
Y-846761D01*
X9384999Y-2461760D02*
X9414999D01*
X9399999Y-2476760D02*
Y-2446760D01*
X9184999Y-2861760D02*
X9214999D01*
X9199999Y-2876760D02*
Y-2846760D01*
X8784999Y5938239D02*
X8814999D01*
X8799999Y5923239D02*
Y5953239D01*
X8984999Y5538239D02*
X9014999D01*
X8999999Y5523239D02*
Y5553239D01*
X8784999Y5138239D02*
X8814999D01*
X8799999Y5123239D02*
Y5153239D01*
X8984999Y4738239D02*
X9014999D01*
X8999999Y4723239D02*
Y4753239D01*
X8984999Y3938239D02*
X9014999D01*
X8999999Y3923239D02*
Y3953239D01*
X8984999Y3138239D02*
X9014999D01*
X8999999Y3123239D02*
Y3153239D01*
X8984999Y2338239D02*
X9014999D01*
X8999999Y2323239D02*
Y2353239D01*
X8984999Y-2461760D02*
X9014999D01*
X8999999Y-2476760D02*
Y-2446760D01*
X8784999Y-2861760D02*
X8814999D01*
X8799999Y-2876760D02*
Y-2846760D01*
X8384999Y5938239D02*
X8414999D01*
X8399999Y5923239D02*
Y5953239D01*
X8584999Y5538239D02*
X8614999D01*
X8599999Y5523239D02*
Y5553239D01*
X8384999Y5138239D02*
X8414999D01*
X8399999Y5123239D02*
Y5153239D01*
X8584999Y-2461760D02*
X8614999D01*
X8599999Y-2476760D02*
Y-2446760D01*
X7984999Y5938239D02*
X8014999D01*
X7999999Y5923239D02*
Y5953239D01*
X8184999Y5538239D02*
X8214999D01*
X8199999Y5523239D02*
Y5553239D01*
X7984999Y5138239D02*
X8014999D01*
X7999999Y5123239D02*
Y5153239D01*
X7584999Y5938239D02*
X7614999D01*
X7599999Y5923239D02*
Y5953239D01*
X7784999Y5538239D02*
X7814999D01*
X7799999Y5523239D02*
Y5553239D01*
X7584999Y5138239D02*
X7614999D01*
X7599999Y5123239D02*
Y5153239D01*
X7184999Y5938239D02*
X7214999D01*
X7199999Y5923239D02*
Y5953239D01*
X7384999Y5538239D02*
X7414999D01*
X7399999Y5523239D02*
Y5553239D01*
X7184999Y-2861760D02*
X7214999D01*
X7199999Y-2876760D02*
Y-2846760D01*
X6784999Y-2861760D02*
X6814999D01*
X6799999Y-2876760D02*
Y-2846760D01*
X5984999Y5938239D02*
X6014999D01*
X5999999Y5923239D02*
Y5953239D01*
X5984999Y5138239D02*
X6014999D01*
X5999999Y5123239D02*
Y5153239D01*
X6184999Y4738239D02*
X6214999D01*
X6199999Y4723239D02*
Y4753239D01*
X5984999Y-2861760D02*
X6014999D01*
X5999999Y-2876760D02*
Y-2846760D01*
X5584999Y5938239D02*
X5614999D01*
X5599999Y5923239D02*
Y5953239D01*
X5784999Y5538239D02*
X5814999D01*
X5799999Y5523239D02*
Y5553239D01*
X5584999Y5138239D02*
X5614999D01*
X5599999Y5123239D02*
Y5153239D01*
X5784999Y4738239D02*
X5814999D01*
X5799999Y4723239D02*
Y4753239D01*
X5185000Y5938239D02*
X5214999D01*
X5200000Y5923239D02*
Y5953239D01*
X5384999Y5538239D02*
X5414999D01*
X5399999Y5523239D02*
Y5553239D01*
X5185000Y5138239D02*
X5214999D01*
X5200000Y5123239D02*
Y5153239D01*
X5384999Y4738239D02*
X5414999D01*
X5399999Y4723239D02*
Y4753239D01*
X5185000Y-1261760D02*
X5214999D01*
X5200000Y-1276760D02*
Y-1246761D01*
X5384999Y-1661760D02*
X5414999D01*
X5399999Y-1676760D02*
Y-1646760D01*
X5185000Y-2061760D02*
X5214999D01*
X5200000Y-2076760D02*
Y-2046760D01*
X5384999Y-2461760D02*
X5414999D01*
X5399999Y-2476760D02*
Y-2446760D01*
X5185000Y-2861760D02*
X5214999D01*
X5200000Y-2876760D02*
Y-2846760D01*
X4785000Y5938239D02*
X4815000D01*
X4800000Y5923239D02*
Y5953239D01*
X4984999Y5538239D02*
X5014999D01*
X4999999Y5523239D02*
Y5553239D01*
X4785000Y5138239D02*
X4815000D01*
X4800000Y5123239D02*
Y5153239D01*
X4984999Y4738239D02*
X5014999D01*
X4999999Y4723239D02*
Y4753239D01*
X4785000Y-461761D02*
X4815000D01*
X4800000Y-476761D02*
Y-446761D01*
X4984999Y-1661760D02*
X5014999D01*
X4999999Y-1676760D02*
Y-1646760D01*
X4785000Y-2061760D02*
X4815000D01*
X4800000Y-2076760D02*
Y-2046760D01*
X4984999Y-2461760D02*
X5014999D01*
X4999999Y-2476760D02*
Y-2446760D01*
X4385000Y5938239D02*
X4415000D01*
X4400000Y5923239D02*
Y5953239D01*
X4584999Y5538239D02*
X4614999D01*
X4599999Y5523239D02*
Y5553239D01*
X4385000Y5138239D02*
X4415000D01*
X4400000Y5123239D02*
Y5153239D01*
X4584999Y4738239D02*
X4614999D01*
X4599999Y4723239D02*
Y4753239D01*
X3985000Y5938239D02*
X4015000D01*
X4000000Y5923239D02*
Y5953239D01*
X4185000Y5538239D02*
X4214999D01*
X4199999Y5523239D02*
Y5553239D01*
X3985000Y5138239D02*
X4015000D01*
X4000000Y5123239D02*
Y5153239D01*
X4185000Y4738239D02*
X4214999D01*
X4199999Y4723239D02*
Y4753239D01*
X3985000Y3538239D02*
X4015000D01*
X4000000Y3523239D02*
Y3553239D01*
X3985000Y2738239D02*
X4015000D01*
X4000000Y2723239D02*
Y2753239D01*
X3985000Y1938239D02*
X4015000D01*
X4000000Y1923239D02*
Y1953239D01*
X3585000Y5938239D02*
X3615000D01*
X3600000Y5923239D02*
Y5953239D01*
X3785000Y5538239D02*
X3814999D01*
X3800000Y5523239D02*
Y5553239D01*
X3585000Y5138239D02*
X3615000D01*
X3600000Y5123239D02*
Y5153239D01*
X3785000Y4738239D02*
X3814999D01*
X3800000Y4723239D02*
Y4753239D01*
X3585000Y3538239D02*
X3615000D01*
X3600000Y3523239D02*
Y3553239D01*
X3785000Y3138239D02*
X3814999D01*
X3800000Y3123239D02*
Y3153239D01*
X3585000Y2738239D02*
X3615000D01*
X3600000Y2723239D02*
Y2753239D01*
X3785000Y2338239D02*
X3814999D01*
X3800000Y2323239D02*
Y2353239D01*
X3585000Y1938239D02*
X3615000D01*
X3600000Y1923239D02*
Y1953239D01*
X3785000Y1538239D02*
X3814999D01*
X3800000Y1523239D02*
Y1553239D01*
X3585000Y-1261760D02*
X3615000D01*
X3600000Y-1276760D02*
Y-1246761D01*
X3585000Y-2061760D02*
X3615000D01*
X3600000Y-2076760D02*
Y-2046760D01*
X3185000Y5138239D02*
X3215000D01*
X3200000Y5123239D02*
Y5153239D01*
X3385000Y4738239D02*
X3415000D01*
X3400000Y4723239D02*
Y4753239D01*
X3185000Y4338239D02*
X3215000D01*
X3200000Y4323239D02*
Y4353239D01*
X3185000Y-1261760D02*
X3215000D01*
X3200000Y-1276760D02*
Y-1246761D01*
X3385000Y-1661760D02*
X3415000D01*
X3400000Y-1676760D02*
Y-1646760D01*
X3185000Y-2061760D02*
X3215000D01*
X3200000Y-2076760D02*
Y-2046760D01*
X2785000Y5938239D02*
X2815000D01*
X2800000Y5923239D02*
Y5953239D01*
X2785000Y5138239D02*
X2815000D01*
X2800000Y5123239D02*
Y5153239D01*
X2985000Y4738239D02*
X3015000D01*
X3000000Y4723239D02*
Y4753239D01*
X2785000Y4338239D02*
X2815000D01*
X2800000Y4323239D02*
Y4353239D01*
X2985000Y3938239D02*
X3015000D01*
X3000000Y3923239D02*
Y3953239D01*
X2785000Y3538239D02*
X2815000D01*
X2800000Y3523239D02*
Y3553239D01*
X2985000Y3138239D02*
X3015000D01*
X3000000Y3123239D02*
Y3153239D01*
X2785000Y2738239D02*
X2815000D01*
X2800000Y2723239D02*
Y2753239D01*
X2985000Y2338239D02*
X3015000D01*
X3000000Y2323239D02*
Y2353239D01*
X2785000Y1938239D02*
X2815000D01*
X2800000Y1923239D02*
Y1953239D01*
X2985000Y1538239D02*
X3015000D01*
X3000000Y1523239D02*
Y1553239D01*
X2985000Y738239D02*
X3015000D01*
X3000000Y723239D02*
Y753239D01*
X2785000Y338239D02*
X2815000D01*
X2800000Y323239D02*
Y353239D01*
X2985000Y-61761D02*
X3015000D01*
X3000000Y-76761D02*
Y-46761D01*
X2785000Y-461761D02*
X2815000D01*
X2800000Y-476761D02*
Y-446761D01*
X2985000Y-861761D02*
X3015000D01*
X3000000Y-876761D02*
Y-846761D01*
X2785000Y-1261760D02*
X2815000D01*
X2800000Y-1276760D02*
Y-1246761D01*
X2985000Y-1661760D02*
X3015000D01*
X3000000Y-1676760D02*
Y-1646760D01*
X2785000Y-2061760D02*
X2815000D01*
X2800000Y-2076760D02*
Y-2046760D01*
X2985000Y-2461760D02*
X3015000D01*
X3000000Y-2476760D02*
Y-2446760D01*
X2585000Y5538239D02*
X2615000D01*
X2600000Y5523239D02*
Y5553239D01*
X2585000Y4738239D02*
X2615000D01*
X2600000Y4723239D02*
Y4753239D01*
X2585000Y3938239D02*
X2615000D01*
X2600000Y3923239D02*
Y3953239D01*
X2585000Y3138239D02*
X2615000D01*
X2600000Y3123239D02*
Y3153239D01*
X2585000Y2338239D02*
X2615000D01*
X2600000Y2323239D02*
Y2353239D01*
X2585000Y1538239D02*
X2615000D01*
X2600000Y1523239D02*
Y1553239D01*
X2585000Y738239D02*
X2615000D01*
X2600000Y723239D02*
Y753239D01*
X2585000Y-61761D02*
X2615000D01*
X2600000Y-76761D02*
Y-46761D01*
X2585000Y-861761D02*
X2615000D01*
X2600000Y-876761D02*
Y-846761D01*
X2585000Y-1661760D02*
X2615000D01*
X2600000Y-1676760D02*
Y-1646760D01*
X2585000Y-2461760D02*
X2615000D01*
X2600000Y-2476760D02*
Y-2446760D01*
X5598133Y3040826D02*
X5628133D01*
X5613133Y3025826D02*
Y3055826D01*
X5565535Y2946288D02*
X5595535D01*
X5580535Y2931288D02*
Y2961288D01*
X5572851Y2846556D02*
X5602851D01*
X5587851Y2831556D02*
Y2861556D01*
X5661808Y2800876D02*
X5691808D01*
X5676808Y2785876D02*
Y2815875D01*
X5761550Y2808053D02*
X5791550D01*
X5776550Y2793053D02*
Y2823053D01*
X5861346Y2801669D02*
X5891346D01*
X5876346Y2786669D02*
Y2816669D01*
X6153910Y2840793D02*
X6183910D01*
X6168910Y2825793D02*
Y2855793D01*
X6250086Y2813402D02*
X6280086D01*
X6265086Y2798402D02*
Y2828402D01*
X6350086Y2813402D02*
X6380086D01*
X6365086Y2798402D02*
Y2828402D01*
X6449694Y2822246D02*
X6479694D01*
X6464694Y2807246D02*
Y2837246D01*
X6550900Y2809240D02*
X6580900D01*
X6565900Y2794240D02*
Y2824240D01*
X6649578Y2817430D02*
X6679578D01*
X6664578Y2802430D02*
Y2832430D01*
X6804900Y2791460D02*
X6834900D01*
X6819900Y2776460D02*
Y2806460D01*
X6738860Y2522220D02*
X6768860D01*
X6753860Y2507220D02*
Y2537220D01*
X6843000Y2532380D02*
X6873000D01*
X6858000Y2517380D02*
Y2547380D01*
X6934440Y2537460D02*
X6964440D01*
X6949440Y2522460D02*
Y2552460D01*
X7286019Y2492286D02*
X7316019D01*
X7301019Y2477286D02*
Y2507286D01*
X7347419Y2571217D02*
X7377419D01*
X7362419Y2556217D02*
Y2586217D01*
X7385865Y2663531D02*
X7415865D01*
X7400865Y2648531D02*
Y2678531D01*
X7417897Y2758262D02*
X7447896D01*
X7432896Y2743262D02*
Y2773262D01*
X7474817Y3047079D02*
X7504817D01*
X7489817Y3032079D02*
Y3062079D01*
X7574817Y3047079D02*
X7604817D01*
X7589817Y3032079D02*
Y3062079D01*
X7330195Y3203327D02*
X7360195D01*
X7345195Y3188327D02*
Y3218327D01*
X7267482Y3125436D02*
X7297481D01*
X7282481Y3110436D02*
Y3140436D01*
X7202533Y3049399D02*
X7232533D01*
X7217533Y3034399D02*
Y3064399D01*
X7104118Y3031662D02*
X7134118D01*
X7119118Y3016662D02*
Y3046662D01*
X7040699Y2742338D02*
X7070699D01*
X7055699Y2727338D02*
Y2757338D01*
X6971582Y3014928D02*
X7001582D01*
X6986582Y2999928D02*
Y3029928D01*
X6872621Y3000556D02*
X6902621D01*
X6887621Y2985556D02*
Y3015556D01*
X6673742Y2999822D02*
X6703742D01*
X6688742Y2984822D02*
Y3014822D01*
X6606758Y3074072D02*
X6636758D01*
X6621758Y3059072D02*
Y3089072D01*
X6406573Y3000098D02*
X6436573D01*
X6421573Y2985098D02*
Y3015098D01*
X6341528Y3076053D02*
X6371528D01*
X6356528Y3061053D02*
Y3091053D01*
X6139171Y3105297D02*
X6169171D01*
X6154171Y3090297D02*
Y3120297D01*
X6126165Y3006146D02*
X6156165D01*
X6141165Y2991146D02*
Y3021146D01*
X6027708Y3023645D02*
X6057707D01*
X6042707Y3008645D02*
Y3038645D01*
X5933170Y2991047D02*
X5963170D01*
X5948170Y2976047D02*
Y3006047D01*
X5842696Y3033645D02*
X5872696D01*
X5857696Y3018645D02*
Y3048645D01*
X5749647Y3070276D02*
X5779647D01*
X5764647Y3055276D02*
Y3085276D01*
X5778445Y3166040D02*
X5808445D01*
X5793445Y3151040D02*
Y3181040D01*
X6871077Y3695427D02*
X6901077D01*
X6886077Y3680427D02*
Y3710427D01*
X6960384Y3650435D02*
X6990384D01*
X6975384Y3635435D02*
Y3665435D01*
X7060145Y3657342D02*
X7090145D01*
X7075145Y3642342D02*
Y3672342D01*
X7159724Y3648166D02*
X7189723D01*
X7174724Y3633166D02*
Y3663166D01*
X7117775Y3557390D02*
X7147775D01*
X7132775Y3542390D02*
Y3572390D01*
X7123403Y3457548D02*
X7153403D01*
X7138403Y3442548D02*
Y3472548D01*
X7119526Y3357623D02*
X7149526D01*
X7134526Y3342623D02*
Y3372623D01*
X7197114Y3294535D02*
X7227114D01*
X7212114Y3279535D02*
Y3309535D01*
X7297018Y3298928D02*
X7327018D01*
X7312018Y3283928D02*
Y3313928D01*
X7406095Y3535546D02*
X7436095D01*
X7421095Y3520546D02*
Y3550546D01*
X7505995Y3531089D02*
X7535995D01*
X7520995Y3516089D02*
Y3546089D01*
X7605779Y3537665D02*
X7635779D01*
X7620779Y3522665D02*
Y3552665D01*
X7643890Y3630118D02*
X7673890D01*
X7658890Y3615118D02*
Y3645118D01*
X7643809Y3968170D02*
X7673809D01*
X7658809Y3953170D02*
Y3983170D01*
X7567764Y4033110D02*
X7597764D01*
X7582764Y4018110D02*
Y4048110D01*
X7467764Y4033110D02*
X7497764D01*
X7482764Y4018110D02*
Y4048110D01*
X7369599Y4014042D02*
X7399599D01*
X7384599Y3999042D02*
Y4029041D01*
X7270020Y4023205D02*
X7300020D01*
X7285020Y4008205D02*
Y4038205D01*
X7183912Y3972358D02*
X7213912D01*
X7198912Y3957358D02*
Y3987358D01*
X7138616Y3883205D02*
X7168616D01*
X7153616Y3868205D02*
Y3898205D01*
X7039345Y3871151D02*
X7069345D01*
X7054345Y3856151D02*
Y3886151D01*
X6946814Y3909074D02*
X6976814D01*
X6961814Y3894074D02*
Y3924074D01*
X6578025Y3938524D02*
X6608025D01*
X6593025Y3923524D02*
Y3953524D01*
X6478270Y3931534D02*
X6508270D01*
X6493270Y3916534D02*
Y3946534D01*
X6378555Y3939084D02*
X6408555D01*
X6393555Y3924084D02*
Y3954084D01*
X6279892Y3922790D02*
X6309892D01*
X6294892Y3907790D02*
Y3937790D01*
X6181228Y3939085D02*
X6211228D01*
X6196228Y3924085D02*
Y3954085D01*
X6081228Y3939085D02*
X6111228D01*
X6096228Y3924085D02*
Y3954085D01*
X5982067Y3926161D02*
X6012067D01*
X5997067Y3911161D02*
Y3941161D01*
X5685842Y3939085D02*
X5715842D01*
X5700842Y3924085D02*
Y3954085D01*
X5769079Y3741489D02*
X5799079D01*
X5784079Y3726489D02*
Y3756489D01*
X5865859Y3716315D02*
X5895859D01*
X5880859Y3701315D02*
Y3731315D01*
X5964228Y3734300D02*
X5994228D01*
X5979228Y3719300D02*
Y3749300D01*
X6060232Y3706315D02*
X6090232D01*
X6075232Y3691315D02*
Y3721315D01*
X6160218Y3708006D02*
X6190218D01*
X6175218Y3693006D02*
Y3723006D01*
X6260133Y3712128D02*
X6290133D01*
X6275133Y3697128D02*
Y3727128D01*
X6359964Y3706315D02*
X6389964D01*
X6374964Y3691315D02*
Y3721315D01*
X6459222Y3718482D02*
X6489221D01*
X6474221Y3703482D02*
Y3733481D01*
X6558479Y3706315D02*
X6588479D01*
X6573479Y3691315D02*
Y3721315D01*
X6647118Y3752608D02*
X6677118D01*
X6662118Y3737608D02*
Y3767608D01*
X6727519Y3812070D02*
X6757519D01*
X6742519Y3797070D02*
Y3827070D01*
X6537789Y5012273D02*
X6567789D01*
X6552789Y4997273D02*
Y5027273D01*
X6537789Y4912273D02*
X6567789D01*
X6552789Y4897273D02*
Y4927273D01*
X6549516Y4812963D02*
X6579516D01*
X6564516Y4797963D02*
Y4827963D01*
X6537310Y4713711D02*
X6567310D01*
X6552310Y4698711D02*
Y4728711D01*
X6537310Y4613711D02*
X6567310D01*
X6552310Y4598711D02*
Y4628711D01*
X6580372Y4421824D02*
X6610372D01*
X6595372Y4406824D02*
Y4436824D01*
X6725892Y4584961D02*
X6755892D01*
X6740892Y4569961D02*
Y4599961D01*
X6736512Y4684396D02*
X6766511D01*
X6751512Y4669396D02*
Y4699396D01*
X6736512Y4784396D02*
X6766511D01*
X6751512Y4769396D02*
Y4799396D01*
X6773707Y4877221D02*
X6803707D01*
X6788707Y4862221D02*
Y4892221D01*
X8191740Y4886960D02*
X8221740D01*
X8206740Y4871960D02*
Y4901960D01*
X7632940Y4566920D02*
X7662940D01*
X7647940Y4551920D02*
Y4581920D01*
X5158980Y4150360D02*
X5188980D01*
X5173980Y4135360D02*
Y4165360D01*
X4963400Y2735580D02*
X4993400D01*
X4978400Y2720580D02*
Y2750580D01*
X8499080Y1996440D02*
X8529080D01*
X8514080Y1981440D02*
Y2011440D01*
X9127800Y1995100D02*
X9157800D01*
X9142800Y1980100D02*
Y2010100D01*
X9746220Y1559560D02*
X9776220D01*
X9761220Y1544560D02*
Y1574560D01*
X9751300Y1348740D02*
X9781300D01*
X9766300Y1333740D02*
Y1363740D01*
X8504160Y1290320D02*
X8534160D01*
X8519160Y1275320D02*
Y1305320D01*
X8384780Y822960D02*
X8414780D01*
X8399780Y807960D02*
Y837960D01*
X8257780Y2829560D02*
X8287780D01*
X8272780Y2814560D02*
Y2844560D01*
X8034260Y1564640D02*
X8064260D01*
X8049260Y1549640D02*
Y1579640D01*
X7625320Y1165860D02*
X7655320D01*
X7640320Y1150860D02*
Y1180860D01*
X10043400Y-96520D02*
X10073400D01*
X10058400Y-111520D02*
Y-81520D01*
X10051020Y-1579880D02*
X10081020D01*
X10066020Y-1594880D02*
Y-1564880D01*
X9949420Y-558800D02*
X9979420D01*
X9964420Y-573800D02*
Y-543800D01*
X10040860Y-1950720D02*
X10070860D01*
X10055860Y-1965720D02*
Y-1935720D01*
X8275630Y-1869510D02*
X8305630D01*
X8290630Y-1884510D02*
Y-1854510D01*
X8184120Y-523240D02*
X8214120D01*
X8199120Y-538240D02*
Y-508240D01*
X7754190Y-502250D02*
X7784190D01*
X7769190Y-517250D02*
Y-487250D01*
X8113077Y-2029383D02*
X8143077D01*
X8128077Y-2044383D02*
Y-2014383D01*
X7371320Y-2098040D02*
X7401320D01*
X7386320Y-2113040D02*
Y-2083040D01*
X6263880Y2319020D02*
X6293880D01*
X6278880Y2304020D02*
Y2334020D01*
X6421360Y2319020D02*
X6451360D01*
X6436360Y2304020D02*
Y2334020D01*
X5898120Y2319020D02*
X5928120D01*
X5913120Y2304020D02*
Y2334020D01*
X6070840Y2319020D02*
X6100840D01*
X6085840Y2304020D02*
Y2334020D01*
X5506960Y1076960D02*
X5536960D01*
X5521960Y1061960D02*
Y1091960D01*
X4960860Y2319020D02*
X4990860D01*
X4975860Y2304020D02*
Y2334020D01*
X4289961Y3476921D02*
X4319961D01*
X4304961Y3461921D02*
Y3491921D01*
X4557000Y1046480D02*
X4587000D01*
X4572000Y1031480D02*
Y1061480D01*
X4496040Y980440D02*
X4526040D01*
X4511040Y965440D02*
Y995440D01*
X4577320Y840740D02*
X4607320D01*
X4592320Y825740D02*
Y855740D01*
X4440160Y924560D02*
X4470160D01*
X4455160Y909560D02*
Y939560D01*
X4287760Y2214880D02*
X4317760D01*
X4302760Y2199880D02*
Y2229880D01*
X4427460Y833120D02*
X4457460D01*
X4442460Y818120D02*
Y848120D01*
X4287760Y980440D02*
X4317760D01*
X4302760Y965440D02*
Y995440D01*
X4579860Y508000D02*
X4609860D01*
X4594860Y493000D02*
Y523000D01*
X4579860Y264160D02*
X4609860D01*
X4594860Y249160D02*
Y279160D01*
X6573760Y-480060D02*
X6603760D01*
X6588760Y-495060D02*
Y-465060D01*
X5931140Y-713740D02*
X5961140D01*
X5946140Y-728740D02*
Y-698740D01*
X5674600Y-1932940D02*
X5704600D01*
X5689600Y-1947940D02*
Y-1917940D01*
X4574780Y736600D02*
X4604780D01*
X4589780Y721600D02*
Y751600D01*
X4427825Y736600D02*
X4457825D01*
X4442825Y721600D02*
Y751600D01*
X4567160Y629920D02*
X4597160D01*
X4582160Y614920D02*
Y644920D01*
X4287760Y825500D02*
X4317760D01*
X4302760Y810500D02*
Y840500D01*
X4287760Y721360D02*
X4317760D01*
X4302760Y706360D02*
Y736360D01*
X4371580Y612140D02*
X4401580D01*
X4386580Y597140D02*
Y627140D01*
X4249660Y612140D02*
X4279660D01*
X4264660Y597140D02*
Y627140D01*
X4475720Y508000D02*
X4505720D01*
X4490720Y493000D02*
Y523000D01*
X4447780Y396240D02*
X4477780D01*
X4462780Y381240D02*
Y411240D01*
X4267440Y508000D02*
X4297440D01*
X4282440Y493000D02*
Y523000D01*
X4363960Y508000D02*
X4393960D01*
X4378960Y493000D02*
Y523000D01*
X4516360Y327660D02*
X4546360D01*
X4531360Y312660D02*
Y342660D01*
X4358880Y304800D02*
X4388880D01*
X4373880Y289800D02*
Y319800D01*
X4168380Y408940D02*
X4198380D01*
X4183380Y393940D02*
Y423940D01*
X4264900Y403860D02*
X4294900D01*
X4279900Y388860D02*
Y418860D01*
X6594080Y312420D02*
X6624080D01*
X6609080Y297420D02*
Y327420D01*
X4968136Y3160724D02*
X4998136D01*
X4983136Y3145724D02*
Y3175724D01*
X6469620Y-1188720D02*
X6499620D01*
X6484620Y-1203720D02*
Y-1173720D01*
X6578840Y-812800D02*
X6608840D01*
X6593840Y-827800D02*
Y-797800D01*
X5034520Y464820D02*
X5064520D01*
X5049520Y449820D02*
Y479820D01*
X6228320Y203200D02*
X6258320D01*
X6243320Y188200D02*
Y218200D01*
X6614400Y759460D02*
X6644400D01*
X6629400Y744460D02*
Y774460D01*
X8600680Y-76200D02*
X8630680D01*
X8615680Y-91200D02*
Y-61200D01*
X7033120Y2162040D02*
X7053120D01*
X7043120Y2152040D02*
Y2172040D01*
X7033120Y2272041D02*
X7053120D01*
X7043120Y2262041D02*
Y2282041D01*
X7143120Y2272040D02*
X7163120D01*
X7153120Y2262040D02*
Y2282040D01*
X7143120Y2162041D02*
X7163120D01*
X7153120Y2152041D02*
Y2172041D01*
X9217900Y-1935480D02*
X9247900D01*
X9232900Y-1950480D02*
Y-1920480D01*
X8092680Y1112520D02*
X8122680D01*
X8107680Y1097520D02*
Y1127520D01*
X8173960Y2382520D02*
X8203960D01*
X8188960Y2367520D02*
Y2397520D01*
X7813280Y2258060D02*
X7843280D01*
X7828280Y2243060D02*
Y2273060D01*
X6345160Y1427480D02*
X6375160D01*
X6360160Y1412480D02*
Y1442480D01*
X5956540Y1214120D02*
X5986540D01*
X5971540Y1199120D02*
Y1229120D01*
X3485120Y457200D02*
X3515120D01*
X3500120Y442200D02*
Y472200D01*
X3553700Y855980D02*
X3583700D01*
X3568700Y840980D02*
Y870980D01*
X3480040Y-713740D02*
X3510040D01*
X3495040Y-728740D02*
Y-698740D01*
X4884660Y-1069340D02*
X4914660D01*
X4899660Y-1084340D02*
Y-1054340D01*
X4841480Y-1300480D02*
X4871480D01*
X4856480Y-1315480D02*
Y-1285480D01*
X4592560Y2979420D02*
X4622560D01*
X4607560Y2964420D02*
Y2994420D01*
X4621060Y3647440D02*
X4651060D01*
X4636060Y3632440D02*
Y3662440D01*
X7782800Y-693420D02*
X7812800D01*
X7797800Y-708420D02*
Y-678420D01*
X6693140Y5080D02*
X6723140D01*
X6708140Y-9920D02*
Y20080D01*
X5155170Y3451260D02*
X5185170D01*
X5170170Y3436260D02*
Y3466260D01*
X6629640Y1351280D02*
X6659640D01*
X6644640Y1336280D02*
Y1366280D01*
X7866620Y335280D02*
X7896620D01*
X7881620Y320280D02*
Y350280D01*
X7213840Y299720D02*
X7243840D01*
X7228840Y284720D02*
Y314720D01*
X8781020Y-406400D02*
X8811020D01*
X8796020Y-421400D02*
Y-391400D01*
X9088360Y-279185D02*
X9118360D01*
X9103360Y-294185D02*
Y-264185D01*
X7365860Y108840D02*
X7395859D01*
X7380860Y93840D02*
Y123839D01*
X8857220Y-254560D02*
X8887220D01*
X8872220Y-269560D02*
Y-239560D01*
X7313518Y188598D02*
X7343517D01*
X7328517Y173598D02*
Y203598D01*
X7719300Y193040D02*
X7749300D01*
X7734300Y178040D02*
Y208040D01*
X8950355Y-185274D02*
X8980355D01*
X8965355Y-200274D02*
Y-170274D01*
X7389660Y-1756867D02*
X7419660D01*
X7404660Y-1771867D02*
Y-1741867D01*
X9423640Y1676400D02*
X9453640D01*
X9438640Y1661400D02*
Y1691400D01*
X7978380Y167640D02*
X8008380D01*
X7993380Y152640D02*
Y182640D01*
X7208760Y-1082040D02*
X7238760D01*
X7223760Y-1097040D02*
Y-1067040D01*
X4142980Y-523240D02*
X4172980D01*
X4157980Y-538240D02*
Y-508240D01*
X4125200Y-373380D02*
X4155200D01*
X4140200Y-388380D02*
Y-358380D01*
X3792460Y-368300D02*
X3822460D01*
X3807460Y-383300D02*
Y-353300D01*
X7201140Y-396240D02*
X7231140D01*
X7216140Y-411240D02*
Y-381240D01*
X4529680Y-526400D02*
X4559680D01*
X4544680Y-541400D02*
Y-511400D01*
X6246100Y312420D02*
X6276100D01*
X6261100Y297420D02*
Y327420D01*
X7932660Y-60960D02*
X7962660D01*
X7947660Y-75960D02*
Y-45960D01*
X7991080Y45720D02*
X8021080D01*
X8006080Y30720D02*
Y60720D01*
X7566520Y2326260D02*
X7596519D01*
X7581520Y2311260D02*
Y2341259D01*
X7081760Y-457200D02*
X7111760D01*
X7096760Y-472200D02*
Y-442200D01*
X6972540Y-1186180D02*
X7002540D01*
X6987540Y-1201180D02*
Y-1171180D01*
X7084300Y-1313180D02*
X7114300D01*
X7099300Y-1328180D02*
Y-1298180D01*
X6848080Y596900D02*
X6878080D01*
X6863080Y581900D02*
Y611900D01*
X9416020Y1178560D02*
X9446020D01*
X9431020Y1163560D02*
Y1193560D01*
X7376400Y721360D02*
X7406400D01*
X7391400Y706360D02*
Y736360D01*
X6830300Y-1640840D02*
X6860300D01*
X6845300Y-1655840D02*
Y-1625840D01*
X6774420Y767080D02*
X6804420D01*
X6789420Y752080D02*
Y782080D01*
X6167360Y-657860D02*
X6197360D01*
X6182360Y-672860D02*
Y-642860D01*
X7899640Y617220D02*
X7929640D01*
X7914640Y602220D02*
Y632220D01*
X7927580Y248920D02*
X7957580D01*
X7942580Y233920D02*
Y263920D01*
X8798800Y1155700D02*
X8828800D01*
X8813800Y1140700D02*
Y1170700D01*
X7086840Y1765300D02*
X7116840D01*
X7101840Y1750300D02*
Y1780300D01*
X7262100Y1559560D02*
X7292100D01*
X7277100Y1544560D02*
Y1574560D01*
X7068856Y647904D02*
X7098855D01*
X7083856Y632904D02*
Y662904D01*
X7221460Y-1661160D02*
X7251460D01*
X7236460Y-1676160D02*
Y-1646160D01*
X7249400Y1879600D02*
X7279400D01*
X7264400Y1864600D02*
Y1894600D01*
X7363700Y1330960D02*
X7393700D01*
X7378700Y1315960D02*
Y1345960D01*
X7241780Y436880D02*
X7271780D01*
X7256780Y421880D02*
Y451880D01*
X8326360Y-2095500D02*
X8356360D01*
X8341360Y-2110500D02*
Y-2080500D01*
X7805660Y655320D02*
X7835660D01*
X7820660Y640320D02*
Y670320D01*
X7151966Y601066D02*
X7181966D01*
X7166966Y586066D02*
Y616066D01*
X7091920Y-1894840D02*
X7121920D01*
X7106920Y-1909840D02*
Y-1879840D01*
X6600931Y426976D02*
X6630931D01*
X6615931Y411976D02*
Y441976D01*
X7366240Y429260D02*
X7396240D01*
X7381240Y414260D02*
Y444260D01*
X6972540Y-523240D02*
X7002540D01*
X6987540Y-538240D02*
Y-508240D01*
X6982700Y1645920D02*
X7012700D01*
X6997700Y1630920D02*
Y1660920D01*
X7262100Y1247140D02*
X7292100D01*
X7277100Y1232140D02*
Y1262140D01*
X6898880Y1308100D02*
X6928880D01*
X6913880Y1293100D02*
Y1323100D01*
%TF.MD5,8ef00b2c80a2defa046108de2464de33*%
M02*
