%TF.GenerationSoftware,Altium Limited,Altium Designer,25.8.1 (18)*%
G04 Layer_Color=0*
%FSLAX45Y45*%
%MOMM*%
%TF.SameCoordinates,8D7D6CBC-1C92-4AEA-9EFE-506313E8E312*%
%TF.FilePolarity,Positive*%
%TF.FileFunction,Plated,1,4,PTH,Drill*%
%TF.Part,Single*%
G01*
G75*
%TA.AperFunction,ComponentDrill*%
%ADD133C,1.00000*%
%TA.AperFunction,OtherDrill,Pad Free-1 (28.88mm,-28.702mm)*%
%ADD134C,3.18000*%
%TA.AperFunction,ComponentDrill*%
%ADD135C,0.55000*%
%TA.AperFunction,OtherDrill,Pad Free-1 (32.69mm,56.998mm)*%
%ADD136C,3.18000*%
%TA.AperFunction,OtherDrill,Pad Free-1 (108.88mm,-28.702mm)*%
%ADD137C,3.18000*%
%TA.AperFunction,ComponentDrill*%
%ADD138C,0.55000*%
%TA.AperFunction,OtherDrill,Pad Free-1 (106.375mm,56.998mm)*%
%ADD139C,3.18000*%
%TA.AperFunction,ComponentDrill*%
%ADD140C,1.70000*%
%ADD141C,1.50000*%
%TA.AperFunction,ViaDrill,NotFilled*%
%ADD142C,0.30000*%
%ADD143C,0.20000*%
D133*
X5686960Y-2344428D02*
D03*
Y-2852420D02*
D03*
Y-2598420D02*
D03*
D134*
X2887980Y-2870200D02*
D03*
D135*
X4002500Y-2816860D02*
D03*
X4127500D02*
D03*
X4252500Y-2816860D02*
D03*
Y-2691859D02*
D03*
X4127500Y-2691860D02*
D03*
X4002500D02*
D03*
D136*
X3268980Y5699760D02*
D03*
D137*
X10887980Y-2870200D02*
D03*
D138*
X10906760Y-1714500D02*
D03*
X10783359Y-134780D02*
D03*
X10908360D02*
D03*
X10906760Y-1839500D02*
D03*
Y-1589500D02*
D03*
X10781760Y-1839500D02*
D03*
X10781760Y-1714500D02*
D03*
X10781760Y-1589500D02*
D03*
X10783359Y-259780D02*
D03*
X10908360D02*
D03*
X10783359Y-9780D02*
D03*
X10908360D02*
D03*
D139*
X10637520Y5699760D02*
D03*
D140*
X6390640Y5204460D02*
D03*
X6898640D02*
D03*
Y5712460D02*
D03*
X6390640D02*
D03*
D141*
X6644640Y5458460D02*
D03*
D142*
X7597140Y2545080D02*
D03*
X7457440Y2346960D02*
D03*
X7521360Y2952184D02*
D03*
X5993130Y4265930D02*
D03*
X4833281Y3634401D02*
D03*
X5024120Y3657600D02*
D03*
X6728460Y5102860D02*
D03*
X6723380Y5270500D02*
D03*
X6581140Y5146040D02*
D03*
Y5250180D02*
D03*
X11199999Y5138239D02*
D03*
Y4338239D02*
D03*
Y3538239D02*
D03*
Y2738239D02*
D03*
Y1938239D02*
D03*
Y1138239D02*
D03*
Y338239D02*
D03*
Y-461761D02*
D03*
Y-1261760D02*
D03*
Y-2061760D02*
D03*
X10999999Y5538239D02*
D03*
X10799999Y5138239D02*
D03*
X10999999Y4738239D02*
D03*
X10799999Y4338239D02*
D03*
X10999999Y3938239D02*
D03*
X10799999Y3538239D02*
D03*
X10999999Y3138239D02*
D03*
X10799999Y2738239D02*
D03*
X10999999Y2338239D02*
D03*
X10799999Y1938239D02*
D03*
X10999999Y1538239D02*
D03*
X10799999Y1138239D02*
D03*
X10999999Y738239D02*
D03*
Y-861761D02*
D03*
Y-2461760D02*
D03*
X10399999Y5138239D02*
D03*
X10599999Y4738239D02*
D03*
X10399999Y4338239D02*
D03*
X10599999Y3938239D02*
D03*
X10399999Y3538239D02*
D03*
X10599999Y3138239D02*
D03*
X10399999Y2738239D02*
D03*
X10599999Y2338239D02*
D03*
X10399999Y1938239D02*
D03*
X10599999Y1538239D02*
D03*
X10399999Y1138239D02*
D03*
X10599999Y738239D02*
D03*
X10399999Y-1261760D02*
D03*
Y-2061760D02*
D03*
X9999999Y5938239D02*
D03*
X10199999Y5538239D02*
D03*
X9999999Y5138239D02*
D03*
X10199999Y4738239D02*
D03*
X9999999Y4338239D02*
D03*
X10199999Y3938239D02*
D03*
X9999999Y3538239D02*
D03*
X10199999Y3138239D02*
D03*
X9999999Y2738239D02*
D03*
X10199999Y2338239D02*
D03*
X9999999Y1938239D02*
D03*
X10199999Y1538239D02*
D03*
X9999999Y1138239D02*
D03*
X10199999Y738239D02*
D03*
Y-861761D02*
D03*
X9999999Y-1261760D02*
D03*
X9599999Y5938239D02*
D03*
X9799999Y5538239D02*
D03*
X9599999Y5138239D02*
D03*
X9799999Y4738239D02*
D03*
X9599999Y4338239D02*
D03*
X9799999Y3938239D02*
D03*
X9599999Y3538239D02*
D03*
X9799999Y3138239D02*
D03*
X9599999Y2738239D02*
D03*
X9799999Y2338239D02*
D03*
Y738239D02*
D03*
Y-861761D02*
D03*
X9599999Y-1261760D02*
D03*
X9799999Y-2461760D02*
D03*
X9599999Y-2861760D02*
D03*
X9199999Y5938239D02*
D03*
X9399999Y5538239D02*
D03*
X9199999Y5138239D02*
D03*
X9399999Y4738239D02*
D03*
X9199999Y4338239D02*
D03*
X9399999Y3938239D02*
D03*
X9199999Y3538239D02*
D03*
X9399999Y3138239D02*
D03*
X9199999Y2738239D02*
D03*
X9399999Y2338239D02*
D03*
Y738239D02*
D03*
X9199999Y338239D02*
D03*
X9399999Y-861761D02*
D03*
Y-2461760D02*
D03*
X9199999Y-2861760D02*
D03*
X8799999Y5938239D02*
D03*
X8999999Y5538239D02*
D03*
X8799999Y5138239D02*
D03*
X8999999Y4738239D02*
D03*
Y3938239D02*
D03*
Y3138239D02*
D03*
Y2338239D02*
D03*
Y-2461760D02*
D03*
X8799999Y-2861760D02*
D03*
X8399999Y5938239D02*
D03*
X8599999Y5538239D02*
D03*
X8399999Y5138239D02*
D03*
X8599999Y-2461760D02*
D03*
X7999999Y5938239D02*
D03*
X8199999Y5538239D02*
D03*
X7999999Y5138239D02*
D03*
X7599999Y5938239D02*
D03*
X7799999Y5538239D02*
D03*
X7599999Y5138239D02*
D03*
X7199999Y5938239D02*
D03*
X7399999Y5538239D02*
D03*
X7199999Y-2861760D02*
D03*
X6799999D02*
D03*
X5999999Y5938239D02*
D03*
Y5138239D02*
D03*
X6199999Y4738239D02*
D03*
X5999999Y-2861760D02*
D03*
X5599999Y5938239D02*
D03*
X5799999Y5538239D02*
D03*
X5599999Y5138239D02*
D03*
X5799999Y4738239D02*
D03*
X5200000Y5938239D02*
D03*
X5399999Y5538239D02*
D03*
X5200000Y5138239D02*
D03*
X5399999Y4738239D02*
D03*
X5200000Y-1261760D02*
D03*
X5399999Y-1661760D02*
D03*
X5200000Y-2061760D02*
D03*
X5399999Y-2461760D02*
D03*
X5200000Y-2861760D02*
D03*
X4800000Y5938239D02*
D03*
X4999999Y5538239D02*
D03*
X4800000Y5138239D02*
D03*
X4999999Y4738239D02*
D03*
X4800000Y-461761D02*
D03*
X4999999Y-1661760D02*
D03*
X4800000Y-2061760D02*
D03*
X4999999Y-2461760D02*
D03*
X4400000Y5938239D02*
D03*
X4599999Y5538239D02*
D03*
X4400000Y5138239D02*
D03*
X4599999Y4738239D02*
D03*
X4000000Y5938239D02*
D03*
X4199999Y5538239D02*
D03*
X4000000Y5138239D02*
D03*
X4199999Y4738239D02*
D03*
X4000000Y3538239D02*
D03*
Y2738239D02*
D03*
Y1938239D02*
D03*
X3600000Y5938239D02*
D03*
X3800000Y5538239D02*
D03*
X3600000Y5138239D02*
D03*
X3800000Y4738239D02*
D03*
X3600000Y3538239D02*
D03*
X3800000Y3138239D02*
D03*
X3600000Y2738239D02*
D03*
X3800000Y2338239D02*
D03*
X3600000Y1938239D02*
D03*
X3800000Y1538239D02*
D03*
X3600000Y-1261760D02*
D03*
Y-2061760D02*
D03*
X3200000Y5138239D02*
D03*
X3400000Y4738239D02*
D03*
X3200000Y4338239D02*
D03*
Y-1261760D02*
D03*
X3400000Y-1661760D02*
D03*
X3200000Y-2061760D02*
D03*
X2800000Y5938239D02*
D03*
Y5138239D02*
D03*
X3000000Y4738239D02*
D03*
X2800000Y4338239D02*
D03*
X3000000Y3938239D02*
D03*
X2800000Y3538239D02*
D03*
X3000000Y3138239D02*
D03*
X2800000Y2738239D02*
D03*
X3000000Y2338239D02*
D03*
X2800000Y1938239D02*
D03*
X3000000Y1538239D02*
D03*
Y738239D02*
D03*
X2800000Y338239D02*
D03*
X3000000Y-61761D02*
D03*
X2800000Y-461761D02*
D03*
X3000000Y-861761D02*
D03*
X2800000Y-1261760D02*
D03*
X3000000Y-1661760D02*
D03*
X2800000Y-2061760D02*
D03*
X3000000Y-2461760D02*
D03*
X2600000Y5538239D02*
D03*
Y4738239D02*
D03*
Y3938239D02*
D03*
Y3138239D02*
D03*
Y2338239D02*
D03*
Y1538239D02*
D03*
Y738239D02*
D03*
Y-61761D02*
D03*
Y-861761D02*
D03*
Y-1661760D02*
D03*
Y-2461760D02*
D03*
X5613133Y3040826D02*
D03*
X5580535Y2946288D02*
D03*
X5587851Y2846556D02*
D03*
X5676808Y2800876D02*
D03*
X5776550Y2808053D02*
D03*
X5876346Y2801669D02*
D03*
X6168910Y2840793D02*
D03*
X6265086Y2813402D02*
D03*
X6365086D02*
D03*
X6464694Y2822246D02*
D03*
X6565900Y2809240D02*
D03*
X6664578Y2817430D02*
D03*
X6819900Y2791460D02*
D03*
X6753860Y2522220D02*
D03*
X6858000Y2532380D02*
D03*
X6949440Y2537460D02*
D03*
X7301019Y2492286D02*
D03*
X7362419Y2571217D02*
D03*
X7400865Y2663531D02*
D03*
X7432896Y2758262D02*
D03*
X7489817Y3047079D02*
D03*
X7589817D02*
D03*
X7345195Y3203327D02*
D03*
X7282481Y3125436D02*
D03*
X7217533Y3049399D02*
D03*
X7119118Y3031662D02*
D03*
X7055699Y2742338D02*
D03*
X6986582Y3014928D02*
D03*
X6887621Y3000556D02*
D03*
X6688742Y2999822D02*
D03*
X6621758Y3074072D02*
D03*
X6421573Y3000098D02*
D03*
X6356528Y3076053D02*
D03*
X6154171Y3105297D02*
D03*
X6141165Y3006146D02*
D03*
X6042707Y3023645D02*
D03*
X5948170Y2991047D02*
D03*
X5857696Y3033645D02*
D03*
X5764647Y3070276D02*
D03*
X5793445Y3166040D02*
D03*
X6886077Y3695427D02*
D03*
X6975384Y3650435D02*
D03*
X7075145Y3657342D02*
D03*
X7174724Y3648166D02*
D03*
X7132775Y3557390D02*
D03*
X7138403Y3457548D02*
D03*
X7134526Y3357623D02*
D03*
X7212114Y3294535D02*
D03*
X7312018Y3298928D02*
D03*
X7421095Y3535546D02*
D03*
X7520995Y3531089D02*
D03*
X7620779Y3537665D02*
D03*
X7658890Y3630118D02*
D03*
X7658809Y3968170D02*
D03*
X7582764Y4033110D02*
D03*
X7482764D02*
D03*
X7384599Y4014042D02*
D03*
X7285020Y4023205D02*
D03*
X7198912Y3972358D02*
D03*
X7153616Y3883205D02*
D03*
X7054345Y3871151D02*
D03*
X6961814Y3909074D02*
D03*
X6593025Y3938524D02*
D03*
X6493270Y3931534D02*
D03*
X6393555Y3939084D02*
D03*
X6294892Y3922790D02*
D03*
X6196228Y3939085D02*
D03*
X6096228D02*
D03*
X5997067Y3926161D02*
D03*
X5700842Y3939085D02*
D03*
X5784079Y3741489D02*
D03*
X5880859Y3716315D02*
D03*
X5979228Y3734300D02*
D03*
X6075232Y3706315D02*
D03*
X6175218Y3708006D02*
D03*
X6275133Y3712128D02*
D03*
X6374964Y3706315D02*
D03*
X6474221Y3718482D02*
D03*
X6573479Y3706315D02*
D03*
X6662118Y3752608D02*
D03*
X6742519Y3812070D02*
D03*
X6552789Y5012273D02*
D03*
Y4912273D02*
D03*
X6564516Y4812963D02*
D03*
X6552310Y4713711D02*
D03*
Y4613711D02*
D03*
X6595372Y4421824D02*
D03*
X6740892Y4584961D02*
D03*
X6751512Y4684396D02*
D03*
Y4784396D02*
D03*
X6788707Y4877221D02*
D03*
X8206740Y4886960D02*
D03*
X7647940Y4566920D02*
D03*
X5173980Y4150360D02*
D03*
X4978400Y2735580D02*
D03*
X8514080Y1996440D02*
D03*
X9142800Y1995100D02*
D03*
X9761220Y1559560D02*
D03*
X9766300Y1348740D02*
D03*
X8519160Y1290320D02*
D03*
X8399780Y822960D02*
D03*
X8272780Y2829560D02*
D03*
X8049260Y1564640D02*
D03*
X7640320Y1165860D02*
D03*
X10058400Y-96520D02*
D03*
X10066020Y-1579880D02*
D03*
X9964420Y-558800D02*
D03*
X10055860Y-1950720D02*
D03*
X8290630Y-1869510D02*
D03*
X8199120Y-523240D02*
D03*
X7769190Y-502250D02*
D03*
X8128077Y-2029383D02*
D03*
X7386320Y-2098040D02*
D03*
X6278880Y2319020D02*
D03*
X6436360D02*
D03*
X5913120D02*
D03*
X6085840D02*
D03*
X5521960Y1076960D02*
D03*
X4975860Y2319020D02*
D03*
X4304961Y3476921D02*
D03*
X4572000Y1046480D02*
D03*
X4511040Y980440D02*
D03*
X4592320Y840740D02*
D03*
X4455160Y924560D02*
D03*
X4302760Y2214880D02*
D03*
X4442460Y833120D02*
D03*
X4302760Y980440D02*
D03*
X4594860Y508000D02*
D03*
Y264160D02*
D03*
X6588760Y-480060D02*
D03*
X5946140Y-713740D02*
D03*
X5689600Y-1932940D02*
D03*
X4589780Y736600D02*
D03*
X4442825D02*
D03*
X4582160Y629920D02*
D03*
X4302760Y825500D02*
D03*
Y721360D02*
D03*
X4386580Y612140D02*
D03*
X4264660D02*
D03*
X4490720Y508000D02*
D03*
X4462780Y396240D02*
D03*
X4282440Y508000D02*
D03*
X4378960D02*
D03*
X4531360Y327660D02*
D03*
X4373880Y304800D02*
D03*
X4183380Y408940D02*
D03*
X4279900Y403860D02*
D03*
X6609080Y312420D02*
D03*
X4983136Y3160724D02*
D03*
X6484620Y-1188720D02*
D03*
X6593840Y-812800D02*
D03*
X5049520Y464820D02*
D03*
X6243320Y203200D02*
D03*
X6629400Y759460D02*
D03*
X8615680Y-76200D02*
D03*
X9232900Y-1935480D02*
D03*
X8107680Y1112520D02*
D03*
X8188960Y2382520D02*
D03*
X7828280Y2258060D02*
D03*
X6360160Y1427480D02*
D03*
X5971540Y1214120D02*
D03*
X3500120Y457200D02*
D03*
X3568700Y855980D02*
D03*
X3495040Y-713740D02*
D03*
X4899660Y-1069340D02*
D03*
X4856480Y-1300480D02*
D03*
X4607560Y2979420D02*
D03*
X4636060Y3647440D02*
D03*
X7797800Y-693420D02*
D03*
X6708140Y5080D02*
D03*
X5170170Y3451260D02*
D03*
X6644640Y1351280D02*
D03*
X7881620Y335280D02*
D03*
X7228840Y299720D02*
D03*
X8796020Y-406400D02*
D03*
X9103360Y-279185D02*
D03*
X7380860Y108840D02*
D03*
X8872220Y-254560D02*
D03*
X7328517Y188598D02*
D03*
X7734300Y193040D02*
D03*
X8965355Y-185274D02*
D03*
X7404660Y-1756867D02*
D03*
X9438640Y1676400D02*
D03*
X7993380Y167640D02*
D03*
X7223760Y-1082040D02*
D03*
X4157980Y-523240D02*
D03*
X4140200Y-373380D02*
D03*
X3807460Y-368300D02*
D03*
X7216140Y-396240D02*
D03*
X4544680Y-526400D02*
D03*
X6261100Y312420D02*
D03*
X7947660Y-60960D02*
D03*
X8006080Y45720D02*
D03*
X7581520Y2326260D02*
D03*
X7096760Y-457200D02*
D03*
X6987540Y-1186180D02*
D03*
X7099300Y-1313180D02*
D03*
X6863080Y596900D02*
D03*
X9431020Y1178560D02*
D03*
X7391400Y721360D02*
D03*
X6845300Y-1640840D02*
D03*
X6789420Y767080D02*
D03*
X6182360Y-657860D02*
D03*
X7914640Y617220D02*
D03*
X7942580Y248920D02*
D03*
X8813800Y1155700D02*
D03*
X7101840Y1765300D02*
D03*
X7277100Y1559560D02*
D03*
X7083856Y647904D02*
D03*
X7236460Y-1661160D02*
D03*
X7264400Y1879600D02*
D03*
X7378700Y1330960D02*
D03*
X7256780Y436880D02*
D03*
X8341360Y-2095500D02*
D03*
X7820660Y655320D02*
D03*
X7166966Y601066D02*
D03*
X7106920Y-1894840D02*
D03*
X6615931Y426976D02*
D03*
X7381240Y429260D02*
D03*
X6987540Y-523240D02*
D03*
X6997700Y1645920D02*
D03*
X7277100Y1247140D02*
D03*
X6913880Y1308100D02*
D03*
D143*
X7043120Y2162040D02*
D03*
Y2272041D02*
D03*
X7153120Y2272040D02*
D03*
Y2162041D02*
D03*
%TF.MD5,407d48e7cbcf0c1d91fdda7d9a5aff82*%
M02*
