%TF.GenerationSoftware,Altium Limited,Altium Designer,25.8.1 (18)*%
G04 Layer_Color=8421504*
%FSLAX45Y45*%
%MOMM*%
%TF.SameCoordinates,8D7D6CBC-1C92-4AEA-9EFE-506313E8E312*%
%TF.FilePolarity,Positive*%
%TF.FileFunction,Paste,Top*%
%TF.Part,Single*%
G01*
G75*
%TA.AperFunction,SMDPad,CuDef*%
G04:AMPARAMS|DCode=15|XSize=0.8mm|YSize=1mm|CornerRadius=0.1mm|HoleSize=0mm|Usage=FLASHONLY|Rotation=270.000|XOffset=0mm|YOffset=0mm|HoleType=Round|Shape=RoundedRectangle|*
%AMROUNDEDRECTD15*
21,1,0.80000,0.80000,0,0,270.0*
21,1,0.60000,1.00000,0,0,270.0*
1,1,0.20000,-0.40000,-0.30000*
1,1,0.20000,-0.40000,0.30000*
1,1,0.20000,0.40000,0.30000*
1,1,0.20000,0.40000,-0.30000*
%
%ADD15ROUNDEDRECTD15*%
G04:AMPARAMS|DCode=16|XSize=0.8mm|YSize=1mm|CornerRadius=0.1mm|HoleSize=0mm|Usage=FLASHONLY|Rotation=0.000|XOffset=0mm|YOffset=0mm|HoleType=Round|Shape=RoundedRectangle|*
%AMROUNDEDRECTD16*
21,1,0.80000,0.80000,0,0,0.0*
21,1,0.60000,1.00000,0,0,0.0*
1,1,0.20000,0.30000,-0.40000*
1,1,0.20000,-0.30000,-0.40000*
1,1,0.20000,-0.30000,0.40000*
1,1,0.20000,0.30000,0.40000*
%
%ADD16ROUNDEDRECTD16*%
%ADD17R,1.68000X2.06000*%
%ADD18R,0.60000X0.75000*%
%ADD19R,1.40000X0.30000*%
%ADD20R,1.47500X0.30000*%
%ADD21R,0.30000X1.47500*%
%ADD22R,0.45000X0.85000*%
%ADD23R,1.10000X1.45000*%
%ADD24R,0.35000X1.05000*%
%ADD25O,0.80000X0.25000*%
%ADD26R,0.94000X0.80000*%
G04:AMPARAMS|DCode=27|XSize=1.6mm|YSize=2.7mm|CornerRadius=0.2mm|HoleSize=0mm|Usage=FLASHONLY|Rotation=0.000|XOffset=0mm|YOffset=0mm|HoleType=Round|Shape=RoundedRectangle|*
%AMROUNDEDRECTD27*
21,1,1.60000,2.30000,0,0,0.0*
21,1,1.20000,2.70000,0,0,0.0*
1,1,0.40000,0.60000,-1.15000*
1,1,0.40000,-0.60000,-1.15000*
1,1,0.40000,-0.60000,1.15000*
1,1,0.40000,0.60000,1.15000*
%
%ADD27ROUNDEDRECTD27*%
%ADD28R,1.05000X0.35000*%
G04:AMPARAMS|DCode=29|XSize=0.55607mm|YSize=0.29247mm|CornerRadius=0.14624mm|HoleSize=0mm|Usage=FLASHONLY|Rotation=270.000|XOffset=0mm|YOffset=0mm|HoleType=Round|Shape=RoundedRectangle|*
%AMROUNDEDRECTD29*
21,1,0.55607,0.00000,0,0,270.0*
21,1,0.26360,0.29247,0,0,270.0*
1,1,0.29247,0.00000,-0.13180*
1,1,0.29247,0.00000,0.13180*
1,1,0.29247,0.00000,0.13180*
1,1,0.29247,0.00000,-0.13180*
%
%ADD29ROUNDEDRECTD29*%
%ADD30R,0.30000X0.85000*%
%ADD31R,1.45000X1.45000*%
%ADD32R,2.35000X1.55000*%
%ADD33R,1.19380X1.19380*%
%ADD34R,3.25000X3.25000*%
%ADD35R,1.35000X2.90000*%
G04:AMPARAMS|DCode=36|XSize=0.8mm|YSize=1mm|CornerRadius=0.1mm|HoleSize=0mm|Usage=FLASHONLY|Rotation=135.000|XOffset=0mm|YOffset=0mm|HoleType=Round|Shape=RoundedRectangle|*
%AMROUNDEDRECTD36*
21,1,0.80000,0.80000,0,0,135.0*
21,1,0.60000,1.00000,0,0,135.0*
1,1,0.20000,0.07071,0.49498*
1,1,0.20000,0.49498,0.07071*
1,1,0.20000,-0.07071,-0.49498*
1,1,0.20000,-0.49498,-0.07071*
%
%ADD36ROUNDEDRECTD36*%
G04:AMPARAMS|DCode=37|XSize=0.8mm|YSize=1mm|CornerRadius=0.1mm|HoleSize=0mm|Usage=FLASHONLY|Rotation=225.000|XOffset=0mm|YOffset=0mm|HoleType=Round|Shape=RoundedRectangle|*
%AMROUNDEDRECTD37*
21,1,0.80000,0.80000,0,0,225.0*
21,1,0.60000,1.00000,0,0,225.0*
1,1,0.20000,-0.49498,0.07071*
1,1,0.20000,-0.07071,0.49498*
1,1,0.20000,0.49498,-0.07071*
1,1,0.20000,0.07071,-0.49498*
%
%ADD37ROUNDEDRECTD37*%
G04:AMPARAMS|DCode=38|XSize=1.6mm|YSize=1.3mm|CornerRadius=0mm|HoleSize=0mm|Usage=FLASHONLY|Rotation=45.000|XOffset=0mm|YOffset=0mm|HoleType=Round|Shape=Rectangle|*
%AMROTATEDRECTD38*
4,1,4,-0.10607,-1.02531,-1.02531,-0.10607,0.10607,1.02531,1.02531,0.10607,-0.10607,-1.02531,0.0*
%
%ADD38ROTATEDRECTD38*%

G04:AMPARAMS|DCode=40|XSize=0.6mm|YSize=0.7mm|CornerRadius=0.075mm|HoleSize=0mm|Usage=FLASHONLY|Rotation=270.000|XOffset=0mm|YOffset=0mm|HoleType=Round|Shape=RoundedRectangle|*
%AMROUNDEDRECTD40*
21,1,0.60000,0.55000,0,0,270.0*
21,1,0.45000,0.70000,0,0,270.0*
1,1,0.15000,-0.27500,-0.22500*
1,1,0.15000,-0.27500,0.22500*
1,1,0.15000,0.27500,0.22500*
1,1,0.15000,0.27500,-0.22500*
%
%ADD40ROUNDEDRECTD40*%
G04:AMPARAMS|DCode=41|XSize=0.6mm|YSize=0.7mm|CornerRadius=0.075mm|HoleSize=0mm|Usage=FLASHONLY|Rotation=0.000|XOffset=0mm|YOffset=0mm|HoleType=Round|Shape=RoundedRectangle|*
%AMROUNDEDRECTD41*
21,1,0.60000,0.55000,0,0,0.0*
21,1,0.45000,0.70000,0,0,0.0*
1,1,0.15000,0.22500,-0.27500*
1,1,0.15000,-0.22500,-0.27500*
1,1,0.15000,-0.22500,0.27500*
1,1,0.15000,0.22500,0.27500*
%
%ADD41ROUNDEDRECTD41*%
%ADD42R,1.19380X1.19380*%
%ADD43R,2.60000X2.60000*%
G04:AMPARAMS|DCode=44|XSize=0.55607mm|YSize=0.29247mm|CornerRadius=0.14624mm|HoleSize=0mm|Usage=FLASHONLY|Rotation=180.000|XOffset=0mm|YOffset=0mm|HoleType=Round|Shape=RoundedRectangle|*
%AMROUNDEDRECTD44*
21,1,0.55607,0.00000,0,0,180.0*
21,1,0.26360,0.29247,0,0,180.0*
1,1,0.29247,-0.13180,0.00000*
1,1,0.29247,0.13180,0.00000*
1,1,0.29247,0.13180,0.00000*
1,1,0.29247,-0.13180,0.00000*
%
%ADD44ROUNDEDRECTD44*%
%ADD46R,2.11000X0.79000*%
%ADD47R,0.69000X3.33000*%
%ADD48R,2.41300X0.91400*%
%ADD49R,2.92100X1.90500*%
G04:AMPARAMS|DCode=50|XSize=1.4mm|YSize=1.7mm|CornerRadius=0.175mm|HoleSize=0mm|Usage=FLASHONLY|Rotation=180.000|XOffset=0mm|YOffset=0mm|HoleType=Round|Shape=RoundedRectangle|*
%AMROUNDEDRECTD50*
21,1,1.40000,1.35000,0,0,180.0*
21,1,1.05000,1.70000,0,0,180.0*
1,1,0.35000,-0.52500,0.67500*
1,1,0.35000,0.52500,0.67500*
1,1,0.35000,0.52500,-0.67500*
1,1,0.35000,-0.52500,-0.67500*
%
%ADD50ROUNDEDRECTD50*%
%ADD51R,2.25000X2.25000*%
%ADD52R,0.85000X0.30000*%
%ADD53O,0.25000X0.80000*%
%ADD54R,0.29247X0.55607*%
%ADD55R,1.40000X0.75000*%
%ADD56R,0.55607X0.29247*%
%ADD57R,0.25000X0.60000*%
%ADD58R,1.68000X0.79000*%
%ADD59R,1.49900X0.71100*%
%TA.AperFunction,NonConductor*%
%ADD128R,1.21542X0.61542*%
%ADD129R,0.61542X1.21542*%
D15*
X4978060Y3021061D02*
D03*
Y2871061D02*
D03*
X8374380Y1995100D02*
D03*
X8186420Y1992560D02*
D03*
X7272020Y4570660D02*
D03*
X7475220Y4572000D02*
D03*
X8191500Y821620D02*
D03*
X7962900Y819080D02*
D03*
X7597140Y-458400D02*
D03*
X6456680Y2636520D02*
D03*
X5021580Y3943420D02*
D03*
X6195060Y913060D02*
D03*
X4836160Y3943420D02*
D03*
X4484050Y3477495D02*
D03*
X6703060Y-476180D02*
D03*
X7475220Y4722000D02*
D03*
X6052820Y2767260D02*
D03*
X3398520Y-41840D02*
D03*
X4397140Y-1353940D02*
D03*
X4585100Y-1351400D02*
D03*
X6195060Y1063060D02*
D03*
X6456680Y2486520D02*
D03*
X4795181Y2980281D02*
D03*
X4678680Y3473520D02*
D03*
X5328920Y3606940D02*
D03*
X5483860Y4296480D02*
D03*
X5692140Y4293940D02*
D03*
X6703060Y-626180D02*
D03*
X7338060Y-631260D02*
D03*
X7962900Y969080D02*
D03*
X8191500Y971620D02*
D03*
X8186420Y2142560D02*
D03*
X7736840Y2388800D02*
D03*
X8374380Y2145100D02*
D03*
X7272020Y4720660D02*
D03*
X7650480Y4732020D02*
D03*
X7843520Y4729480D02*
D03*
X7597140Y-608400D02*
D03*
X6154420Y4414660D02*
D03*
X6347460Y4417200D02*
D03*
X5328920Y3456940D02*
D03*
X5880100Y3822700D02*
D03*
X6347460Y4267200D02*
D03*
X6154420Y4264660D02*
D03*
X7843520Y4879480D02*
D03*
X7650480Y4882020D02*
D03*
X6052820Y2917260D02*
D03*
X4484050Y3327495D02*
D03*
X4836160Y3793420D02*
D03*
X5021580Y3793420D02*
D03*
X10289540Y-1653540D02*
D03*
Y-1803540D02*
D03*
X8336280Y-2414340D02*
D03*
Y-2264340D02*
D03*
X10278360Y-174780D02*
D03*
Y-324780D02*
D03*
X7338060Y-481260D02*
D03*
X4397140Y-1503940D02*
D03*
X4678680Y3323520D02*
D03*
X3398520Y-191840D02*
D03*
X5880100Y3972700D02*
D03*
X7736840Y2538800D02*
D03*
X10279380Y79940D02*
D03*
Y229940D02*
D03*
X4585100Y-1501400D02*
D03*
X7249160Y3400920D02*
D03*
Y3550920D02*
D03*
X7310120Y3916820D02*
D03*
Y3766820D02*
D03*
X5483860Y4146480D02*
D03*
X5692140Y4143940D02*
D03*
X7597140Y2150180D02*
D03*
Y2000180D02*
D03*
X4795181Y3130281D02*
D03*
D16*
X9142800Y1859280D02*
D03*
X9585901Y1553220D02*
D03*
X9584560Y1350020D02*
D03*
X8662400Y1291600D02*
D03*
X7884160Y2837180D02*
D03*
X7639120Y1564640D02*
D03*
X7640320Y1338580D02*
D03*
X8192700Y-157480D02*
D03*
X8195240Y-365760D02*
D03*
X9959100Y-414020D02*
D03*
X10055860Y-2075180D02*
D03*
X8337620Y-1706880D02*
D03*
X6638220Y2641600D02*
D03*
X6510160Y1196340D02*
D03*
X3452686Y1092920D02*
D03*
X6135640Y-233200D02*
D03*
X6133100Y-428780D02*
D03*
X5537060Y3169920D02*
D03*
X9905860Y-2075180D02*
D03*
X9809100Y-414020D02*
D03*
X4205040Y-1838960D02*
D03*
X3797160Y-655320D02*
D03*
X4540680Y-1141680D02*
D03*
X4542860Y-952500D02*
D03*
X5983100Y-428780D02*
D03*
X5985640Y-233200D02*
D03*
X5481180Y764540D02*
D03*
X5483720Y581660D02*
D03*
X6360160Y1196340D02*
D03*
X5537060Y3822700D02*
D03*
X8345240Y-365760D02*
D03*
X8662400Y1469400D02*
D03*
X9679940Y-2072640D02*
D03*
X9664840Y-411480D02*
D03*
X8342700Y-157480D02*
D03*
X9146481Y1652280D02*
D03*
X7734160Y2837180D02*
D03*
X5687060Y3169920D02*
D03*
X5686920Y2917260D02*
D03*
X6068060Y3822700D02*
D03*
X5687060D02*
D03*
X6554540D02*
D03*
X6984860Y3766820D02*
D03*
X9529940Y-2072640D02*
D03*
X5836920Y2917260D02*
D03*
X8187620Y-1706880D02*
D03*
X3302686Y1092920D02*
D03*
X4545400Y-762000D02*
D03*
X4395400D02*
D03*
X7489120Y1564640D02*
D03*
X9434561Y1350020D02*
D03*
X7490320Y1338580D02*
D03*
X8996480Y1652280D02*
D03*
X8992800Y1859280D02*
D03*
X9435900Y1553220D02*
D03*
X8812400Y1291600D02*
D03*
X7134860Y3766820D02*
D03*
X9514840Y-411480D02*
D03*
X5633720Y581660D02*
D03*
X5631180Y764540D02*
D03*
X6404540Y3822700D02*
D03*
X8812400Y1469400D02*
D03*
X6788220Y2641600D02*
D03*
X3947160Y-655320D02*
D03*
X4392860Y-952500D02*
D03*
X4390680Y-1141680D02*
D03*
X4055040Y-1838960D02*
D03*
X6218060Y3822700D02*
D03*
D17*
X7867160Y3215640D02*
D03*
D18*
X7989220Y2011540D02*
D03*
X7824220Y2124540D02*
D03*
X7989220D02*
D03*
X7824220Y2011540D02*
D03*
D19*
X9793260Y-24460D02*
D03*
X9846600Y-1662760D02*
D03*
X9353260Y-224460D02*
D03*
X9406600Y-1862760D02*
D03*
X9846600D02*
D03*
X9846600Y-1812760D02*
D03*
Y-1762760D02*
D03*
Y-1712760D02*
D03*
X9406600Y-1812760D02*
D03*
Y-1662760D02*
D03*
Y-1712760D02*
D03*
Y-1762760D02*
D03*
X9793260Y-224460D02*
D03*
Y-174460D02*
D03*
Y-124460D02*
D03*
X9793260Y-74460D02*
D03*
X9353260Y-174460D02*
D03*
X9353260Y-24460D02*
D03*
Y-74460D02*
D03*
X9353260Y-124460D02*
D03*
D20*
X7579600Y770180D02*
D03*
X6432000D02*
D03*
Y170180D02*
D03*
Y370180D02*
D03*
X6432000Y220180D02*
D03*
X7579600Y720180D02*
D03*
Y320180D02*
D03*
Y170180D02*
D03*
X6432000Y70180D02*
D03*
Y120180D02*
D03*
X7579601Y220180D02*
D03*
X7579600Y20180D02*
D03*
X6432000Y270180D02*
D03*
Y720180D02*
D03*
Y20180D02*
D03*
X7579600Y470180D02*
D03*
X6432000Y570180D02*
D03*
X6432000Y420180D02*
D03*
X7579600Y70180D02*
D03*
X6432000Y620180D02*
D03*
X7579600D02*
D03*
Y520180D02*
D03*
Y420180D02*
D03*
X6432000Y320180D02*
D03*
X7579600Y270180D02*
D03*
X6432000Y670180D02*
D03*
X7579600Y120180D02*
D03*
X7579601Y570180D02*
D03*
X7579600Y370180D02*
D03*
X6432000Y520180D02*
D03*
X7579600Y670180D02*
D03*
X6432000Y470180D02*
D03*
D21*
X7380800Y-178620D02*
D03*
X6630800Y968980D02*
D03*
X6730800Y-178620D02*
D03*
X7330800D02*
D03*
X6680800D02*
D03*
Y968980D02*
D03*
X6780800Y-178620D02*
D03*
X6730800Y968980D02*
D03*
X6780800D02*
D03*
X6830800Y-178620D02*
D03*
X7030800Y-178620D02*
D03*
X6980800D02*
D03*
X7130801Y968980D02*
D03*
X7180800Y-178620D02*
D03*
X6980800Y968980D02*
D03*
X7280800D02*
D03*
X6880800D02*
D03*
X6930800Y-178620D02*
D03*
X7280800D02*
D03*
X7380800Y968980D02*
D03*
X7330800D02*
D03*
X7080800D02*
D03*
X6630800Y-178620D02*
D03*
X7080800D02*
D03*
X7230800Y968980D02*
D03*
X7030800D02*
D03*
X6830800Y968980D02*
D03*
X7130801Y-178620D02*
D03*
X7180800Y968980D02*
D03*
X6930800Y968980D02*
D03*
X6880800Y-178620D02*
D03*
X7230800D02*
D03*
D22*
X8191500Y-740380D02*
D03*
X8572500Y-1530380D02*
D03*
X8318500Y-740380D02*
D03*
X8445500D02*
D03*
X8572500D02*
D03*
X8445500Y-1530380D02*
D03*
X8318500D02*
D03*
X8191500D02*
D03*
D23*
X7394660Y-2486060D02*
D03*
X6594660Y-2486060D02*
D03*
X6994660Y-2486060D02*
D03*
X7194660Y-2486060D02*
D03*
X6794661Y-2486060D02*
D03*
X7594660D02*
D03*
D24*
X6881840Y4350599D02*
D03*
X3989300Y241400D02*
D03*
X3859300D02*
D03*
X3729300Y-228600D02*
D03*
X3794300Y-228600D02*
D03*
X3924300Y241401D02*
D03*
X6751840Y3980600D02*
D03*
X6816840D02*
D03*
X6816840Y4350599D02*
D03*
X6881840Y3980600D02*
D03*
X6686840D02*
D03*
X6686840Y4350599D02*
D03*
X6751840Y4350600D02*
D03*
X3924300Y-228600D02*
D03*
X3794300Y241400D02*
D03*
X3729300Y241401D02*
D03*
X3859300Y-228600D02*
D03*
X3989300D02*
D03*
D25*
X6888120Y2317040D02*
D03*
X6888121Y2217040D02*
D03*
X7308120D02*
D03*
Y2117040D02*
D03*
X6888120Y2267040D02*
D03*
X7308120Y2167040D02*
D03*
X6888121D02*
D03*
X7308120Y2317040D02*
D03*
Y2267040D02*
D03*
X6888120Y2117041D02*
D03*
D26*
X6184900Y2196480D02*
D03*
X6546940Y2195141D02*
D03*
X6371680D02*
D03*
X5981700Y2193940D02*
D03*
X5819140Y2196480D02*
D03*
Y2062480D02*
D03*
X5981700Y2059940D02*
D03*
X6184900Y2062480D02*
D03*
X6371680Y2061140D02*
D03*
X6546940D02*
D03*
D27*
X4064300Y632460D02*
D03*
X3784300Y632461D02*
D03*
D28*
X4094300Y136400D02*
D03*
X3624300Y6400D02*
D03*
X3624300Y71400D02*
D03*
X4094300Y-58600D02*
D03*
X4094300Y6400D02*
D03*
Y71400D02*
D03*
X6599340Y4263099D02*
D03*
X6599340Y4198100D02*
D03*
X6599340Y4133099D02*
D03*
X6969340Y4068100D02*
D03*
X6969340Y4133099D02*
D03*
X6969340Y4198100D02*
D03*
X6969340Y4263099D02*
D03*
X6599341Y4068100D02*
D03*
X3624300Y136401D02*
D03*
X3624300Y-58599D02*
D03*
X3624300Y-123600D02*
D03*
X4094300D02*
D03*
D29*
X4982440Y3290557D02*
D03*
X4852440Y3290557D02*
D03*
X4917439Y3486163D02*
D03*
X4917440Y3290557D02*
D03*
X4852440Y3486163D02*
D03*
D30*
X5636060Y3344960D02*
D03*
X5738060D02*
D03*
X5636060Y3634960D02*
D03*
X5738060D02*
D03*
X5687060D02*
D03*
Y3344960D02*
D03*
D31*
Y3489960D02*
D03*
D32*
X4061820Y-1360120D02*
D03*
D33*
X2792730Y1102360D02*
D03*
X2998470D02*
D03*
D34*
X3859300Y6400D02*
D03*
D35*
X6305160Y-3083560D02*
D03*
X7884160Y-3083560D02*
D03*
D36*
X5375254Y-160634D02*
D03*
X5481320Y-266700D02*
D03*
D37*
X5301287Y254307D02*
D03*
X5407353Y360373D02*
D03*
D38*
X5511113Y89507D02*
D03*
X5942448Y195573D02*
D03*
X5779813Y358207D02*
D03*
X5673747Y-73128D02*
D03*
D40*
X6255350Y3184230D02*
D03*
X6783140Y3014580D02*
D03*
X6520580Y3180620D02*
D03*
X7194080Y2853220D02*
D03*
X6652260Y4647260D02*
D03*
Y4976800D02*
D03*
Y4876800D02*
D03*
Y4747260D02*
D03*
X6255350Y3084230D02*
D03*
X6954520Y2737320D02*
D03*
X6783140Y2914580D02*
D03*
X6520580Y3080620D02*
D03*
X7194080Y2953220D02*
D03*
X7349020Y2852420D02*
D03*
Y2952420D02*
D03*
X6954520Y2637320D02*
D03*
D41*
X6552260Y4513580D02*
D03*
X7570140Y2857500D02*
D03*
X7054520Y2914580D02*
D03*
X6886880Y4978400D02*
D03*
X7192340Y2700020D02*
D03*
X7292340D02*
D03*
X6786880Y4978400D02*
D03*
X6652260Y4513580D02*
D03*
X6253880Y2914580D02*
D03*
X6954520D02*
D03*
X6620580D02*
D03*
X7470140Y2857500D02*
D03*
X6353880Y2914580D02*
D03*
X6520580D02*
D03*
D42*
X8333740Y-2917190D02*
D03*
Y-2711450D02*
D03*
D43*
X7098120Y2217040D02*
D03*
D44*
X8985414Y1482280D02*
D03*
X9181021Y1417280D02*
D03*
X8985415Y1417280D02*
D03*
X9181020Y1482280D02*
D03*
X8985414Y1352281D02*
D03*
D46*
X7566660Y3279140D02*
D03*
D47*
X7706160D02*
D03*
D48*
X7564080Y3782100D02*
D03*
D49*
X7830780D02*
D03*
D50*
X4298980Y-2128600D02*
D03*
X3741420Y-894080D02*
D03*
X3970020D02*
D03*
X4070380Y-2128600D02*
D03*
D51*
X6784340Y4165600D02*
D03*
D52*
X5542060Y3438960D02*
D03*
Y3540960D02*
D03*
Y3489960D02*
D03*
X5832060Y3540960D02*
D03*
X5832060Y3489960D02*
D03*
X5832060Y3438960D02*
D03*
D53*
X7098120Y2427040D02*
D03*
X6998120D02*
D03*
X7048120D02*
D03*
X7148120D02*
D03*
X7198120Y2427041D02*
D03*
X7048120Y2007041D02*
D03*
X7198120Y2007040D02*
D03*
X7098120Y2007041D02*
D03*
X6998120D02*
D03*
X7148120Y2007040D02*
D03*
D54*
X4982440Y3486163D02*
D03*
D55*
X5865000Y582500D02*
D03*
Y727500D02*
D03*
D56*
X9181020Y1352281D02*
D03*
D57*
X4161820Y-1220120D02*
D03*
X4111820Y-1500120D02*
D03*
X4161820Y-1500120D02*
D03*
X3961820D02*
D03*
X4011820Y-1500120D02*
D03*
X4061820D02*
D03*
X4111820Y-1220120D02*
D03*
X3961820Y-1220120D02*
D03*
X4011820Y-1220120D02*
D03*
X4061820D02*
D03*
D58*
X7545160Y3406140D02*
D03*
Y3152140D02*
D03*
X7867160Y3406140D02*
D03*
D59*
X7518380Y3632200D02*
D03*
Y3932000D02*
D03*
D128*
X4917440Y3388358D02*
D03*
D129*
X9083215Y1417280D02*
D03*
%TF.MD5,85951d4c4c3c19bb40a2d834948aa28a*%
M02*
