%TF.GenerationSoftware,Altium Limited,Altium Designer,25.8.1 (18)*%
G04 Layer_Color=16711935*
%FSLAX45Y45*%
%MOMM*%
%TF.SameCoordinates,8D7D6CBC-1C92-4AEA-9EFE-506313E8E312*%
%TF.FilePolarity,Negative*%
%TF.FileFunction,Soldermask,Bot*%
%TF.Part,Single*%
G01*
G75*
%TA.AperFunction,NonConductor*%
%ADD85C,3.00000*%
%TA.AperFunction,ComponentPad*%
%ADD120C,1.72720*%
%ADD121C,1.15320*%
%TA.AperFunction,ViaPad*%
%ADD122C,3.38320*%
%TA.AperFunction,ComponentPad*%
%ADD123C,2.75320*%
%ADD124C,2.45320*%
%ADD125C,1.30320*%
%ADD126R,1.15320X1.15320*%
%ADD127R,1.15320X1.15320*%
G36*
X3537458Y5771896D02*
X3538347D01*
X3539363Y5771769D01*
X3541776Y5771261D01*
X3544316Y5770626D01*
X3546983Y5769610D01*
X3549650Y5768086D01*
X3550793Y5767197D01*
X3551936Y5766181D01*
X3552063Y5766054D01*
X3552190Y5765927D01*
X3552444Y5765546D01*
X3552825Y5765038D01*
X3553206Y5764403D01*
X3553714Y5763641D01*
X3554222Y5762752D01*
X3554857Y5761736D01*
X3555365Y5760593D01*
X3555873Y5759196D01*
X3556381Y5757799D01*
X3556762Y5756148D01*
X3557143Y5754370D01*
X3557397Y5752465D01*
X3557651Y5750306D01*
Y5748147D01*
Y5699760D01*
X3545713D01*
Y5744210D01*
Y5744337D01*
Y5744464D01*
Y5744845D01*
Y5745353D01*
Y5746623D01*
X3545586Y5748147D01*
X3545459Y5749798D01*
X3545205Y5751576D01*
X3544951Y5753100D01*
X3544570Y5754497D01*
Y5754624D01*
X3544316Y5755005D01*
X3544062Y5755640D01*
X3543554Y5756275D01*
X3543046Y5757164D01*
X3542284Y5757926D01*
X3541395Y5758815D01*
X3540252Y5759577D01*
X3540125Y5759704D01*
X3539744Y5759958D01*
X3539109Y5760212D01*
X3538220Y5760593D01*
X3537204Y5760974D01*
X3535934Y5761355D01*
X3534664Y5761482D01*
X3533140Y5761609D01*
X3532378D01*
X3531870Y5761482D01*
X3530473Y5761355D01*
X3528695Y5760974D01*
X3526663Y5760339D01*
X3524631Y5759450D01*
X3522472Y5758180D01*
X3520567Y5756529D01*
X3520313Y5756275D01*
X3519805Y5755640D01*
X3519043Y5754370D01*
X3518154Y5752719D01*
X3517646Y5751703D01*
X3517138Y5750560D01*
X3516757Y5749163D01*
X3516376Y5747766D01*
X3516122Y5746242D01*
X3515868Y5744591D01*
X3515614Y5742686D01*
Y5740781D01*
Y5699760D01*
X3503676D01*
Y5745607D01*
Y5745734D01*
Y5745988D01*
Y5746369D01*
Y5746877D01*
X3503549Y5748401D01*
X3503295Y5750052D01*
X3502914Y5752084D01*
X3502406Y5753989D01*
X3501771Y5755894D01*
X3500755Y5757545D01*
X3500628Y5757672D01*
X3500247Y5758180D01*
X3499485Y5758815D01*
X3498469Y5759577D01*
X3497199Y5760339D01*
X3495548Y5760974D01*
X3493516Y5761482D01*
X3491230Y5761609D01*
X3490341D01*
X3489452Y5761482D01*
X3488182Y5761228D01*
X3486658Y5760974D01*
X3485134Y5760466D01*
X3483483Y5759831D01*
X3481832Y5758942D01*
X3481705Y5758815D01*
X3481070Y5758434D01*
X3480308Y5757799D01*
X3479419Y5756910D01*
X3478403Y5755894D01*
X3477387Y5754497D01*
X3476371Y5752846D01*
X3475482Y5751068D01*
X3475355Y5750814D01*
X3475228Y5750179D01*
X3474847Y5748909D01*
X3474593Y5747385D01*
X3474212Y5745226D01*
X3473831Y5742686D01*
X3473704Y5739765D01*
X3473577Y5736336D01*
Y5699760D01*
X3461639D01*
Y5770499D01*
X3472307D01*
Y5760466D01*
X3472434Y5760720D01*
X3472942Y5761355D01*
X3473704Y5762244D01*
X3474720Y5763514D01*
X3475990Y5764784D01*
X3477514Y5766181D01*
X3479292Y5767578D01*
X3481197Y5768848D01*
X3481324D01*
X3481451Y5768975D01*
X3482213Y5769356D01*
X3483356Y5769864D01*
X3484880Y5770499D01*
X3486785Y5771007D01*
X3488817Y5771515D01*
X3491230Y5771896D01*
X3493770Y5772023D01*
X3495040D01*
X3496564Y5771896D01*
X3498342Y5771642D01*
X3500374Y5771261D01*
X3502533Y5770626D01*
X3504565Y5769864D01*
X3506597Y5768721D01*
X3506851Y5768594D01*
X3507486Y5768086D01*
X3508375Y5767324D01*
X3509391Y5766308D01*
X3510661Y5765038D01*
X3511804Y5763514D01*
X3512947Y5761609D01*
X3513836Y5759577D01*
X3513963Y5759704D01*
X3514217Y5760085D01*
X3514725Y5760720D01*
X3515360Y5761482D01*
X3516249Y5762498D01*
X3517265Y5763514D01*
X3518408Y5764657D01*
X3519678Y5765800D01*
X3521202Y5766943D01*
X3522853Y5768086D01*
X3524631Y5769102D01*
X3526536Y5770118D01*
X3528695Y5770880D01*
X3530854Y5771515D01*
X3533267Y5771896D01*
X3535680Y5772023D01*
X3536696D01*
X3537458Y5771896D01*
D02*
G37*
G36*
X3423793D02*
X3424682D01*
X3425698Y5771769D01*
X3428111Y5771261D01*
X3430651Y5770626D01*
X3433318Y5769610D01*
X3435985Y5768086D01*
X3437128Y5767197D01*
X3438271Y5766181D01*
X3438398Y5766054D01*
X3438525Y5765927D01*
X3438779Y5765546D01*
X3439160Y5765038D01*
X3439541Y5764403D01*
X3440049Y5763641D01*
X3440557Y5762752D01*
X3441192Y5761736D01*
X3441700Y5760593D01*
X3442208Y5759196D01*
X3442716Y5757799D01*
X3443097Y5756148D01*
X3443478Y5754370D01*
X3443732Y5752465D01*
X3443986Y5750306D01*
Y5748147D01*
Y5699760D01*
X3432048D01*
Y5744210D01*
Y5744337D01*
Y5744464D01*
Y5744845D01*
Y5745353D01*
Y5746623D01*
X3431921Y5748147D01*
X3431794Y5749798D01*
X3431540Y5751576D01*
X3431286Y5753100D01*
X3430905Y5754497D01*
Y5754624D01*
X3430651Y5755005D01*
X3430397Y5755640D01*
X3429889Y5756275D01*
X3429381Y5757164D01*
X3428619Y5757926D01*
X3427730Y5758815D01*
X3426587Y5759577D01*
X3426460Y5759704D01*
X3426079Y5759958D01*
X3425444Y5760212D01*
X3424555Y5760593D01*
X3423539Y5760974D01*
X3422269Y5761355D01*
X3420999Y5761482D01*
X3419475Y5761609D01*
X3418713D01*
X3418205Y5761482D01*
X3416808Y5761355D01*
X3415030Y5760974D01*
X3412998Y5760339D01*
X3410966Y5759450D01*
X3408807Y5758180D01*
X3406902Y5756529D01*
X3406648Y5756275D01*
X3406140Y5755640D01*
X3405378Y5754370D01*
X3404489Y5752719D01*
X3403981Y5751703D01*
X3403473Y5750560D01*
X3403092Y5749163D01*
X3402711Y5747766D01*
X3402457Y5746242D01*
X3402203Y5744591D01*
X3401949Y5742686D01*
Y5740781D01*
Y5699760D01*
X3390011D01*
Y5745607D01*
Y5745734D01*
Y5745988D01*
Y5746369D01*
Y5746877D01*
X3389884Y5748401D01*
X3389630Y5750052D01*
X3389249Y5752084D01*
X3388741Y5753989D01*
X3388106Y5755894D01*
X3387090Y5757545D01*
X3386963Y5757672D01*
X3386582Y5758180D01*
X3385820Y5758815D01*
X3384804Y5759577D01*
X3383534Y5760339D01*
X3381883Y5760974D01*
X3379851Y5761482D01*
X3377565Y5761609D01*
X3376676D01*
X3375787Y5761482D01*
X3374517Y5761228D01*
X3372993Y5760974D01*
X3371469Y5760466D01*
X3369818Y5759831D01*
X3368167Y5758942D01*
X3368040Y5758815D01*
X3367405Y5758434D01*
X3366643Y5757799D01*
X3365754Y5756910D01*
X3364738Y5755894D01*
X3363722Y5754497D01*
X3362706Y5752846D01*
X3361817Y5751068D01*
X3361690Y5750814D01*
X3361563Y5750179D01*
X3361182Y5748909D01*
X3360928Y5747385D01*
X3360547Y5745226D01*
X3360166Y5742686D01*
X3360039Y5739765D01*
X3359912Y5736336D01*
Y5699760D01*
X3347974D01*
Y5770499D01*
X3358642D01*
Y5760466D01*
X3358769Y5760720D01*
X3359277Y5761355D01*
X3360039Y5762244D01*
X3361055Y5763514D01*
X3362325Y5764784D01*
X3363849Y5766181D01*
X3365627Y5767578D01*
X3367532Y5768848D01*
X3367659D01*
X3367786Y5768975D01*
X3368548Y5769356D01*
X3369691Y5769864D01*
X3371215Y5770499D01*
X3373120Y5771007D01*
X3375152Y5771515D01*
X3377565Y5771896D01*
X3380105Y5772023D01*
X3381375D01*
X3382899Y5771896D01*
X3384677Y5771642D01*
X3386709Y5771261D01*
X3388868Y5770626D01*
X3390900Y5769864D01*
X3392932Y5768721D01*
X3393186Y5768594D01*
X3393821Y5768086D01*
X3394710Y5767324D01*
X3395726Y5766308D01*
X3396996Y5765038D01*
X3398139Y5763514D01*
X3399282Y5761609D01*
X3400171Y5759577D01*
X3400298Y5759704D01*
X3400552Y5760085D01*
X3401060Y5760720D01*
X3401695Y5761482D01*
X3402584Y5762498D01*
X3403600Y5763514D01*
X3404743Y5764657D01*
X3406013Y5765800D01*
X3407537Y5766943D01*
X3409188Y5768086D01*
X3410966Y5769102D01*
X3412871Y5770118D01*
X3415030Y5770880D01*
X3417189Y5771515D01*
X3419602Y5771896D01*
X3422015Y5772023D01*
X3423031D01*
X3423793Y5771896D01*
D02*
G37*
G36*
X3301492Y5797677D02*
X3302381D01*
X3304286Y5797423D01*
X3306572Y5796915D01*
X3308985Y5796407D01*
X3311525Y5795518D01*
X3314065Y5794375D01*
X3314192D01*
X3314319Y5794248D01*
X3314700Y5793994D01*
X3315208Y5793740D01*
X3316351Y5792978D01*
X3317875Y5791962D01*
X3319526Y5790565D01*
X3321304Y5788914D01*
X3322955Y5787136D01*
X3324352Y5784977D01*
Y5784850D01*
X3324479Y5784723D01*
X3324987Y5783961D01*
X3325495Y5782691D01*
X3326257Y5781167D01*
X3326892Y5779262D01*
X3327527Y5777103D01*
X3327908Y5774817D01*
X3328035Y5772404D01*
Y5772277D01*
Y5772150D01*
Y5771388D01*
X3327908Y5770118D01*
X3327654Y5768594D01*
X3327146Y5766816D01*
X3326638Y5764911D01*
X3325749Y5762879D01*
X3324606Y5760847D01*
X3324479Y5760593D01*
X3323971Y5759958D01*
X3323209Y5759069D01*
X3322066Y5757926D01*
X3320669Y5756529D01*
X3318891Y5755132D01*
X3316859Y5753862D01*
X3314573Y5752592D01*
X3314700D01*
X3314954Y5752465D01*
X3315462Y5752338D01*
X3315970Y5752211D01*
X3316732Y5751957D01*
X3317621Y5751576D01*
X3319526Y5750814D01*
X3321685Y5749671D01*
X3323844Y5748147D01*
X3326130Y5746369D01*
X3328035Y5744210D01*
Y5744083D01*
X3328289Y5743956D01*
X3328543Y5743575D01*
X3328797Y5743067D01*
X3329178Y5742432D01*
X3329559Y5741797D01*
X3330448Y5739892D01*
X3331337Y5737606D01*
X3332099Y5734939D01*
X3332607Y5732018D01*
X3332861Y5728589D01*
Y5728462D01*
Y5728081D01*
Y5727319D01*
X3332734Y5726430D01*
X3332607Y5725287D01*
X3332353Y5724017D01*
X3332099Y5722620D01*
X3331718Y5721096D01*
X3331210Y5719445D01*
X3330575Y5717667D01*
X3329813Y5715889D01*
X3328924Y5713984D01*
X3327781Y5712206D01*
X3326511Y5710301D01*
X3325114Y5708523D01*
X3323463Y5706872D01*
X3323336Y5706745D01*
X3323082Y5706491D01*
X3322574Y5706110D01*
X3321812Y5705475D01*
X3320923Y5704840D01*
X3319780Y5704078D01*
X3318510Y5703316D01*
X3317113Y5702554D01*
X3315462Y5701665D01*
X3313684Y5700903D01*
X3311779Y5700141D01*
X3309620Y5699506D01*
X3307461Y5698871D01*
X3305048Y5698490D01*
X3302635Y5698236D01*
X3299968Y5698109D01*
X3298698D01*
X3297809Y5698236D01*
X3296793Y5698363D01*
X3295523Y5698490D01*
X3293999Y5698744D01*
X3292475Y5699125D01*
X3289173Y5700014D01*
X3287395Y5700649D01*
X3285617Y5701284D01*
X3283712Y5702173D01*
X3281934Y5703189D01*
X3280283Y5704332D01*
X3278632Y5705729D01*
X3278505Y5705856D01*
X3278251Y5706110D01*
X3277870Y5706491D01*
X3277235Y5707126D01*
X3276600Y5707888D01*
X3275838Y5708777D01*
X3275076Y5709920D01*
X3274187Y5711063D01*
X3273425Y5712460D01*
X3272536Y5713984D01*
X3271774Y5715635D01*
X3271012Y5717413D01*
X3270250Y5719318D01*
X3269742Y5721223D01*
X3269234Y5723382D01*
X3268980Y5725668D01*
X3280918Y5727319D01*
Y5727192D01*
X3281045Y5726811D01*
X3281172Y5726303D01*
X3281299Y5725668D01*
X3281553Y5724779D01*
X3281807Y5723890D01*
X3282569Y5721604D01*
X3283458Y5719191D01*
X3284728Y5716778D01*
X3286125Y5714365D01*
X3286887Y5713349D01*
X3287776Y5712460D01*
X3288030Y5712333D01*
X3288665Y5711825D01*
X3289681Y5711063D01*
X3291205Y5710301D01*
X3292983Y5709412D01*
X3295015Y5708777D01*
X3297428Y5708269D01*
X3299968Y5708015D01*
X3300857D01*
X3301365Y5708142D01*
X3302127D01*
X3303016Y5708269D01*
X3304921Y5708777D01*
X3307207Y5709412D01*
X3309620Y5710428D01*
X3312033Y5711952D01*
X3313176Y5712841D01*
X3314319Y5713857D01*
X3314446Y5713984D01*
X3314573Y5714111D01*
X3314827Y5714492D01*
X3315208Y5714873D01*
X3316224Y5716143D01*
X3317240Y5717921D01*
X3318256Y5719953D01*
X3319272Y5722493D01*
X3319907Y5725287D01*
X3320161Y5726811D01*
Y5728335D01*
Y5728462D01*
Y5728716D01*
Y5729097D01*
X3320034Y5729732D01*
Y5730367D01*
X3319907Y5731256D01*
X3319526Y5733161D01*
X3318891Y5735320D01*
X3317875Y5737606D01*
X3316478Y5739765D01*
X3315716Y5740908D01*
X3314700Y5741924D01*
X3314446Y5742178D01*
X3313684Y5742813D01*
X3312541Y5743575D01*
X3311017Y5744591D01*
X3308985Y5745607D01*
X3306699Y5746369D01*
X3304032Y5747004D01*
X3300984Y5747258D01*
X3299587D01*
X3298698Y5747131D01*
X3297428Y5747004D01*
X3295904Y5746750D01*
X3294253Y5746369D01*
X3292475Y5745988D01*
X3293872Y5756529D01*
X3294126D01*
X3294507Y5756402D01*
X3295142Y5756275D01*
X3296539D01*
X3297047Y5756402D01*
X3298571Y5756529D01*
X3300349Y5756783D01*
X3302508Y5757291D01*
X3304794Y5757926D01*
X3307207Y5758942D01*
X3309493Y5760212D01*
X3309620D01*
X3309747Y5760466D01*
X3310509Y5760974D01*
X3311525Y5761990D01*
X3312668Y5763260D01*
X3313811Y5765038D01*
X3314700Y5767197D01*
X3315462Y5769737D01*
X3315589Y5771134D01*
X3315716Y5772658D01*
Y5772785D01*
Y5772912D01*
X3315589Y5773801D01*
X3315462Y5774944D01*
X3315208Y5776468D01*
X3314573Y5778119D01*
X3313811Y5779897D01*
X3312668Y5781802D01*
X3311144Y5783453D01*
X3310890Y5783707D01*
X3310382Y5784215D01*
X3309366Y5784850D01*
X3308096Y5785739D01*
X3306445Y5786501D01*
X3304413Y5787263D01*
X3302254Y5787771D01*
X3299714Y5787898D01*
X3299079D01*
X3298571Y5787771D01*
X3297174Y5787644D01*
X3295523Y5787390D01*
X3293745Y5786755D01*
X3291713Y5785993D01*
X3289808Y5784977D01*
X3287903Y5783453D01*
X3287649Y5783199D01*
X3287141Y5782691D01*
X3286379Y5781675D01*
X3285490Y5780151D01*
X3284474Y5778373D01*
X3283458Y5776087D01*
X3282696Y5773420D01*
X3282061Y5770372D01*
X3270123Y5772531D01*
Y5772658D01*
X3270250Y5773039D01*
X3270377Y5773674D01*
X3270631Y5774563D01*
X3270885Y5775452D01*
X3271266Y5776722D01*
X3271647Y5777992D01*
X3272155Y5779389D01*
X3273552Y5782310D01*
X3275203Y5785358D01*
X3277362Y5788406D01*
X3278632Y5789803D01*
X3280029Y5791073D01*
X3280156Y5791200D01*
X3280410Y5791327D01*
X3280791Y5791708D01*
X3281426Y5792089D01*
X3282188Y5792597D01*
X3283077Y5793232D01*
X3284220Y5793867D01*
X3285363Y5794502D01*
X3286760Y5795010D01*
X3288157Y5795645D01*
X3291459Y5796788D01*
X3295269Y5797550D01*
X3297301Y5797677D01*
X3299460Y5797804D01*
X3300857D01*
X3301492Y5797677D01*
D02*
G37*
G36*
X10318820Y-2604700D02*
X10393819D01*
Y-2754700D01*
X10318820D01*
Y-2829700D01*
X10168819D01*
Y-2754700D01*
X10093820D01*
Y-2604700D01*
X10168819D01*
Y-2529700D01*
X10318820D01*
Y-2604700D01*
D02*
G37*
D85*
X11065076Y-2870200D02*
G03*
X11065076Y-2870200I-177096J0D01*
G01*
X2545080Y-3103880D02*
G03*
X2649326Y-3147060I104246J104246D01*
G01*
X3443206Y5699760D02*
G03*
X3443206Y5699760I-174226J0D01*
G01*
X11277600Y5765800D02*
G03*
X11203962Y5943578I-251416J0D01*
G01*
X11053613Y-3147060D02*
G03*
X11219180Y-3078480I0J234147D01*
G01*
X11176000Y5971540D02*
G03*
X11084018Y6009640I-91982J-91982D01*
G01*
X3046980Y-2870200D02*
G03*
X3046980Y-2870200I-159000J0D01*
G01*
X11219180Y-3078480D02*
G03*
X11277600Y-2937442I-141038J141038D01*
G01*
X2575560Y5948680D02*
G03*
X2496820Y5758585I190095J-190095D01*
G01*
X2698200Y5999479D02*
G03*
X2575560Y5948680I0J-173439D01*
G01*
X10813680Y5699760D02*
G03*
X10813680Y5699760I-176160J0D01*
G01*
X2496820Y-2987370D02*
G03*
X2545080Y-3103880I164770J0D01*
G01*
X2844800Y6009639D02*
X11013440Y6009640D01*
X2698200Y5999479D02*
X2844800Y6009639D01*
X11277600Y5754377D02*
Y5765800D01*
Y5754377D02*
Y5755640D01*
X11176000Y5971540D02*
X11203962Y5943578D01*
X11277600Y5754377D02*
Y5755640D01*
X10914380Y-3147060D02*
X11053613D01*
X11176000Y5971540D02*
X11203962Y5943578D01*
X2496820Y-2987370D02*
Y-2766060D01*
Y5758585D01*
X11277600Y5643880D02*
X11277600Y-2937442D01*
X11013440Y6009640D02*
X11084018D01*
X2964180Y-3147060D02*
X6907748D01*
X11277600Y5754377D02*
Y5765800D01*
Y5643880D02*
Y5754377D01*
X6907748Y-3147060D02*
X10914380D01*
X2649326D02*
X3202940D01*
D120*
X5686960Y-2344428D02*
D03*
Y-2852420D02*
D03*
Y-2598420D02*
D03*
D121*
X4002500Y-2816860D02*
D03*
X4127500D02*
D03*
X4252500Y-2816860D02*
D03*
X10906760Y-1714500D02*
D03*
X10783359Y-134780D02*
D03*
X10908360D02*
D03*
X10906760Y-1839500D02*
D03*
Y-1589500D02*
D03*
X10781760Y-1839500D02*
D03*
X10781760Y-1714500D02*
D03*
X4127500Y-2691860D02*
D03*
X4002500D02*
D03*
X10783359Y-259780D02*
D03*
X10908360D02*
D03*
Y-9780D02*
D03*
D122*
X3268980Y5699760D02*
D03*
X10887980Y-2870200D02*
D03*
X10637520Y5699760D02*
D03*
D123*
X6390640Y5204460D02*
D03*
X6898640D02*
D03*
Y5712460D02*
D03*
X6390640D02*
D03*
D124*
X6644640Y5458460D02*
D03*
D125*
X10761760Y-2229500D02*
D03*
X10761760Y-1199500D02*
D03*
X4642500Y-2671860D02*
D03*
X3612500D02*
D03*
X10763360Y380220D02*
D03*
X10763360Y-649780D02*
D03*
D126*
X10781760Y-1589500D02*
D03*
X10783359Y-9780D02*
D03*
D127*
X4252500Y-2691859D02*
D03*
%TF.MD5,bdbdc0e46ac03c7625140a2f05ac803b*%
M02*
