%TF.GenerationSoftware,Altium Limited,Altium Designer,25.8.1 (18)*%
G04 Layer_Color=255*
%FSLAX45Y45*%
%MOMM*%
%TF.SameCoordinates,8D7D6CBC-1C92-4AEA-9EFE-506313E8E312*%
%TF.FilePolarity,Positive*%
%TF.FileFunction,Pads,Bot*%
%TF.Part,Single*%
G01*
G75*
%TA.AperFunction,ComponentPad*%
%ADD65C,1.52400*%
%TA.AperFunction,ViaPad*%
%ADD66C,3.18000*%
%TA.AperFunction,ComponentPad*%
%ADD67C,0.95000*%
%ADD68C,2.55000*%
%ADD69C,2.25000*%
%ADD70C,1.10000*%
%ADD71R,0.95000X0.95000*%
%ADD72R,0.95000X0.95000*%
%TA.AperFunction,SMDPad,CuDef*%
%AMCUSTOMSHAPE75*
4,1,12,0.25000,-0.75000,0.25000,-0.25000,0.75001,-0.25000,0.75000,0.25000,0.25000,0.25000,0.25000,0.75000,-0.25000,0.75000,-0.25000,0.25000,-0.75000,0.25000,-0.75000,-0.25000,-0.25000,-0.25000,-0.25000,-0.75000,0.25000,-0.75000,0.0*%
%ADD75CUSTOMSHAPE75*%

D65*
X5686960Y-2344428D02*
D03*
Y-2852420D02*
D03*
Y-2598420D02*
D03*
D66*
X2887980Y-2870200D02*
D03*
X3268980Y5699760D02*
D03*
X10887980Y-2870200D02*
D03*
X10637520Y5699760D02*
D03*
D67*
X4002500Y-2816860D02*
D03*
X4127500D02*
D03*
X4252500Y-2816860D02*
D03*
X10906760Y-1714500D02*
D03*
X10783359Y-134780D02*
D03*
X10908360D02*
D03*
X10906760Y-1839500D02*
D03*
Y-1589500D02*
D03*
X10781760Y-1839500D02*
D03*
X10781760Y-1714500D02*
D03*
X4127500Y-2691860D02*
D03*
X4002500D02*
D03*
X10783359Y-259780D02*
D03*
X10908360D02*
D03*
Y-9780D02*
D03*
D68*
X6390640Y5204460D02*
D03*
X6898640D02*
D03*
Y5712460D02*
D03*
X6390640D02*
D03*
D69*
X6644640Y5458460D02*
D03*
D70*
X10761760Y-2229500D02*
D03*
X10761760Y-1199500D02*
D03*
X4642500Y-2671860D02*
D03*
X3612500D02*
D03*
X10763360Y380220D02*
D03*
X10763360Y-649780D02*
D03*
D71*
X10781760Y-1589500D02*
D03*
X10783359Y-9780D02*
D03*
D72*
X4252500Y-2691859D02*
D03*
D75*
X10243819Y-2679700D02*
D03*
%TF.MD5,e692c88633dade03ed1c073bd230e8e3*%
M02*
