%TF.GenerationSoftware,Altium Limited,Altium Designer,25.8.1 (18)*%
G04 Layer_Physical_Order=4*
G04 Layer_Color=16711680*
%FSLAX45Y45*%
%MOMM*%
%TF.SameCoordinates,8D7D6CBC-1C92-4AEA-9EFE-506313E8E312*%
%TF.FilePolarity,Positive*%
%TF.FileFunction,Copper,L4,Bot,Signal*%
%TF.Part,Single*%
G01*
G75*
%TA.AperFunction,Conductor*%
%ADD12C,0.70000*%
%ADD13C,0.25400*%
%ADD62C,0.50000*%
%TA.AperFunction,ComponentPad*%
%ADD65C,1.52400*%
%TA.AperFunction,ViaPad*%
%ADD66C,3.18000*%
%TA.AperFunction,ComponentPad*%
%ADD67C,0.95000*%
%ADD68C,2.55000*%
%ADD69C,2.25000*%
%ADD70C,1.10000*%
%ADD71R,0.95000X0.95000*%
%ADD72R,0.95000X0.95000*%
%TA.AperFunction,ViaPad*%
%ADD73C,0.70000*%
%ADD74C,0.50000*%
%TA.AperFunction,SMDPad,CuDef*%
%AMCUSTOMSHAPE75*
4,1,12,0.25000,-0.75000,0.25000,-0.25000,0.75001,-0.25000,0.75000,0.25000,0.25000,0.25000,0.25000,0.75000,-0.25000,0.75000,-0.25000,0.25000,-0.75000,0.25000,-0.75000,-0.25000,-0.25000,-0.25000,-0.25000,-0.75000,0.25000,-0.75000,0.0*%
%ADD75CUSTOMSHAPE75*%

G36*
X11092749Y6164007D02*
X11092749Y6164008D01*
X11114623Y6161803D01*
X11157432Y6151764D01*
X11198579Y6136265D01*
X11237372Y6115566D01*
X11273158Y6090017D01*
X11305332Y6060048D01*
X11333354Y6026164D01*
X11356751Y5988936D01*
X11375129Y5948991D01*
X11388178Y5907002D01*
X11395678Y5863676D01*
X11397503Y5819745D01*
X11395562Y5797845D01*
X11422727Y-2921477D01*
X11422727Y-2921478D01*
X11422805Y-2946590D01*
X11416212Y-2996380D01*
X11402988Y-3044833D01*
X11383373Y-3091070D01*
X11357724Y-3134252D01*
X11326505Y-3173595D01*
X11290282Y-3208387D01*
X11249713Y-3237997D01*
X11205534Y-3261887D01*
X11158545Y-3279623D01*
X11109599Y-3290885D01*
X11059583Y-3295468D01*
X11034494Y-3294379D01*
X2697480Y-3294380D01*
X2677356Y-3296601D01*
X2636871Y-3295917D01*
X2596797Y-3290118D01*
X2557778Y-3279299D01*
X2520441Y-3263632D01*
X2485385Y-3243369D01*
X2453173Y-3218835D01*
X2424322Y-3190425D01*
X2399295Y-3158594D01*
X2378495Y-3123855D01*
X2362255Y-3086763D01*
X2350836Y-3047915D01*
X2347629Y-3027926D01*
X2358294Y5766369D01*
X2358294Y5766370D01*
X2358294Y5766370D01*
X2358206Y5790362D01*
X2364206Y5837972D01*
X2376283Y5884413D01*
X2394236Y5928914D01*
X2417767Y5970734D01*
X2446484Y6009179D01*
X2479909Y6043608D01*
X2517488Y6073449D01*
X2558594Y6098207D01*
X2602545Y6117468D01*
X2648609Y6130913D01*
X2696020Y6138319D01*
X2720004Y6138940D01*
X11092749Y6164008D01*
X11092749Y6164007D01*
D02*
G37*
%LPC*%
G36*
X6644640Y5587060D02*
X6611356Y5582678D01*
X6580340Y5569831D01*
X6553706Y5549394D01*
X6533269Y5522760D01*
X6520422Y5491744D01*
X6516040Y5458460D01*
X6520422Y5425176D01*
X6533269Y5394160D01*
X6553706Y5367526D01*
X6580340Y5347089D01*
X6611356Y5334242D01*
X6644640Y5329860D01*
X6677924Y5334242D01*
X6708940Y5347089D01*
X6735574Y5367526D01*
X6756011Y5394160D01*
X6768858Y5425176D01*
X6773240Y5458460D01*
X6768858Y5491744D01*
X6756011Y5522760D01*
X6735574Y5549394D01*
X6708940Y5569831D01*
X6677924Y5582678D01*
X6644640Y5587060D01*
D02*
G37*
G36*
X5993130Y4327105D02*
X5969719Y4322449D01*
X5949873Y4309187D01*
X5940688Y4295443D01*
X5405120D01*
X5394312Y4293293D01*
X5385149Y4287171D01*
X5385149Y4287170D01*
X5303869Y4205891D01*
X5297747Y4196728D01*
X5295597Y4185920D01*
X5295597Y4185919D01*
Y1503682D01*
X5295597Y1503680D01*
X5297747Y1492872D01*
X5303869Y1483710D01*
X5456269Y1331310D01*
X5456270Y1331309D01*
X5465432Y1325187D01*
X5476240Y1323037D01*
X5476242Y1323037D01*
X6591350D01*
X6601383Y1308023D01*
X6621229Y1294761D01*
X6644640Y1290105D01*
X6668051Y1294761D01*
X6687897Y1308023D01*
X6701159Y1327869D01*
X6705815Y1351280D01*
X6701159Y1374691D01*
X6687897Y1394537D01*
X6668051Y1407799D01*
X6644640Y1412455D01*
X6621229Y1407799D01*
X6601383Y1394537D01*
X6591350Y1379523D01*
X5487939D01*
X5352083Y1515379D01*
Y4174221D01*
X5416818Y4238957D01*
X5938991D01*
X5949873Y4222673D01*
X5969719Y4209411D01*
X5993130Y4204755D01*
X6016541Y4209411D01*
X6036387Y4222673D01*
X6049649Y4242519D01*
X6054305Y4265930D01*
X6049649Y4289341D01*
X6036387Y4309187D01*
X6016541Y4322449D01*
X5993130Y4327105D01*
D02*
G37*
G36*
X5173980Y4211535D02*
X5150569Y4206879D01*
X5142279Y4201340D01*
X3469640D01*
X3450131Y4197459D01*
X3433592Y4186408D01*
X3235472Y3988288D01*
X3224421Y3971749D01*
X3220540Y3952240D01*
Y-347980D01*
X3224421Y-367489D01*
X3235472Y-384028D01*
X3410732Y-559288D01*
X3427271Y-570339D01*
X3446780Y-574220D01*
X4126279D01*
X4134569Y-579759D01*
X4157980Y-584415D01*
X4181391Y-579759D01*
X4201237Y-566497D01*
X4214499Y-546651D01*
X4219155Y-523240D01*
X4214499Y-499829D01*
X4201237Y-479983D01*
X4181391Y-466721D01*
X4157980Y-462065D01*
X4134569Y-466721D01*
X4126279Y-472260D01*
X3467897D01*
X3322500Y-326864D01*
Y3931124D01*
X3490757Y4099380D01*
X5142279D01*
X5150569Y4093841D01*
X5173980Y4089185D01*
X5197391Y4093841D01*
X5217237Y4107103D01*
X5230499Y4126949D01*
X5235155Y4150360D01*
X5230499Y4173771D01*
X5217237Y4193617D01*
X5197391Y4206879D01*
X5173980Y4211535D01*
D02*
G37*
G36*
X7597140Y2606255D02*
X7573729Y2601599D01*
X7553883Y2588337D01*
X7543850Y2573323D01*
X7518400D01*
X7507592Y2571173D01*
X7498429Y2565051D01*
X7498429Y2565050D01*
X7287609Y2354231D01*
X7281487Y2345068D01*
X7279337Y2334260D01*
X7279337Y2334259D01*
Y2109739D01*
X6897009Y1727411D01*
X6890887Y1718248D01*
X6888737Y1707440D01*
X6888737Y1707439D01*
Y1363462D01*
X6870623Y1351357D01*
X6857361Y1331511D01*
X6852705Y1308100D01*
X6857361Y1284689D01*
X6870623Y1264843D01*
X6890469Y1251581D01*
X6913880Y1246925D01*
X6937291Y1251581D01*
X6957137Y1264843D01*
X6970399Y1284689D01*
X6975055Y1308100D01*
X6970399Y1331511D01*
X6957137Y1351357D01*
X6945223Y1359319D01*
Y1587770D01*
X6962728Y1597127D01*
X6974289Y1589401D01*
X6997700Y1584745D01*
X7015411Y1588267D01*
X7248857Y1354821D01*
Y1300430D01*
X7233843Y1290397D01*
X7220581Y1270551D01*
X7215925Y1247140D01*
X7220581Y1223729D01*
X7233843Y1203883D01*
X7253689Y1190621D01*
X7277100Y1185965D01*
X7300511Y1190621D01*
X7320357Y1203883D01*
X7333619Y1223729D01*
X7338275Y1247140D01*
X7334234Y1267457D01*
X7341664Y1275159D01*
X7348421Y1279030D01*
X7355289Y1274441D01*
X7378700Y1269785D01*
X7402111Y1274441D01*
X7421957Y1287703D01*
X7435219Y1307549D01*
X7439875Y1330960D01*
X7435219Y1354371D01*
X7421957Y1374217D01*
X7406943Y1384250D01*
Y1765300D01*
X7404793Y1776108D01*
X7398671Y1785271D01*
X7322053Y1861889D01*
X7325575Y1879600D01*
X7320919Y1903011D01*
X7307657Y1922857D01*
X7287811Y1936119D01*
X7264400Y1940775D01*
X7240989Y1936119D01*
X7221143Y1922857D01*
X7207881Y1903011D01*
X7203225Y1879600D01*
X7207881Y1856189D01*
X7221143Y1836343D01*
X7240989Y1823081D01*
X7264400Y1818425D01*
X7282111Y1821947D01*
X7350457Y1753601D01*
Y1592168D01*
X7334242Y1583766D01*
X7332952Y1583968D01*
X7320357Y1602817D01*
X7300511Y1616079D01*
X7277100Y1620735D01*
X7259389Y1617213D01*
X7148887Y1727714D01*
X7158359Y1741889D01*
X7163015Y1765300D01*
X7158359Y1788711D01*
X7145097Y1808557D01*
X7125251Y1821819D01*
X7101840Y1826475D01*
X7100433Y1826195D01*
X7091810Y1842328D01*
X7327551Y2078069D01*
X7333673Y2087232D01*
X7335823Y2098040D01*
X7335823Y2098041D01*
Y2322561D01*
X7382934Y2369673D01*
X7399067Y2361050D01*
X7396265Y2346960D01*
X7400921Y2323549D01*
X7414183Y2303703D01*
X7434029Y2290441D01*
X7457440Y2285785D01*
X7475151Y2289307D01*
X7792417Y1972042D01*
Y708610D01*
X7777403Y698577D01*
X7764141Y678731D01*
X7759485Y655320D01*
X7764141Y631909D01*
X7777403Y612063D01*
X7797249Y598801D01*
X7820660Y594145D01*
X7839463Y597885D01*
X7858121Y593809D01*
X7871383Y573963D01*
X7891229Y560701D01*
X7914640Y556045D01*
X7938051Y560701D01*
X7957897Y573963D01*
X7971159Y593809D01*
X7975815Y617220D01*
X7971159Y640631D01*
X7957897Y660477D01*
X7942883Y670510D01*
Y1993139D01*
X7940733Y2003947D01*
X7934611Y2013110D01*
X7934610Y2013110D01*
X7639172Y2308548D01*
X7642695Y2326260D01*
X7638038Y2349670D01*
X7624777Y2369517D01*
X7604930Y2382778D01*
X7581520Y2387435D01*
X7558109Y2382778D01*
X7538262Y2369517D01*
X7533419Y2362268D01*
X7514835Y2365965D01*
X7513959Y2370371D01*
X7500697Y2390217D01*
X7480851Y2403479D01*
X7457440Y2408135D01*
X7443350Y2405333D01*
X7434727Y2421466D01*
X7527815Y2514554D01*
X7546167Y2513369D01*
X7553883Y2501823D01*
X7573729Y2488561D01*
X7597140Y2483905D01*
X7620551Y2488561D01*
X7640397Y2501823D01*
X7653659Y2521669D01*
X7658315Y2545080D01*
X7653659Y2568491D01*
X7640397Y2588337D01*
X7620551Y2601599D01*
X7597140Y2606255D01*
D02*
G37*
G36*
X6436360Y2380195D02*
X6412949Y2375539D01*
X6393103Y2362277D01*
X6379841Y2342431D01*
X6375185Y2319020D01*
X6379841Y2295609D01*
X6393103Y2275763D01*
X6412949Y2262501D01*
X6436360Y2257845D01*
X6459771Y2262501D01*
X6479617Y2275763D01*
X6492879Y2295609D01*
X6497535Y2319020D01*
X6492879Y2342431D01*
X6479617Y2362277D01*
X6459771Y2375539D01*
X6436360Y2380195D01*
D02*
G37*
G36*
X6278880D02*
X6255469Y2375539D01*
X6235623Y2362277D01*
X6222361Y2342431D01*
X6217705Y2319020D01*
X6222361Y2295609D01*
X6235623Y2275763D01*
X6255469Y2262501D01*
X6278880Y2257845D01*
X6302291Y2262501D01*
X6322137Y2275763D01*
X6335399Y2295609D01*
X6340055Y2319020D01*
X6335399Y2342431D01*
X6322137Y2362277D01*
X6302291Y2375539D01*
X6278880Y2380195D01*
D02*
G37*
G36*
X6085840D02*
X6062429Y2375539D01*
X6042583Y2362277D01*
X6029321Y2342431D01*
X6024665Y2319020D01*
X6029321Y2295609D01*
X6042583Y2275763D01*
X6062429Y2262501D01*
X6085840Y2257845D01*
X6109251Y2262501D01*
X6129097Y2275763D01*
X6142359Y2295609D01*
X6147015Y2319020D01*
X6142359Y2342431D01*
X6129097Y2362277D01*
X6109251Y2375539D01*
X6085840Y2380195D01*
D02*
G37*
G36*
X5913120D02*
X5889709Y2375539D01*
X5869863Y2362277D01*
X5856601Y2342431D01*
X5851945Y2319020D01*
X5856601Y2295609D01*
X5869863Y2275763D01*
X5889709Y2262501D01*
X5913120Y2257845D01*
X5936531Y2262501D01*
X5956377Y2275763D01*
X5969639Y2295609D01*
X5974295Y2319020D01*
X5969639Y2342431D01*
X5956377Y2362277D01*
X5936531Y2375539D01*
X5913120Y2380195D01*
D02*
G37*
G36*
X4978400Y2796755D02*
X4954989Y2792099D01*
X4935143Y2778837D01*
X4921881Y2758991D01*
X4917225Y2735580D01*
X4921881Y2712169D01*
X4924880Y2707680D01*
Y2350721D01*
X4919341Y2342431D01*
X4914685Y2319020D01*
X4919341Y2295609D01*
X4932603Y2275763D01*
X4952449Y2262501D01*
X4975860Y2257845D01*
X4999271Y2262501D01*
X5019117Y2275763D01*
X5032379Y2295609D01*
X5037035Y2319020D01*
X5032379Y2342431D01*
X5026840Y2350721D01*
Y2700078D01*
X5034919Y2712169D01*
X5039575Y2735580D01*
X5034919Y2758991D01*
X5021657Y2778837D01*
X5001811Y2792099D01*
X4978400Y2796755D01*
D02*
G37*
G36*
X4304961Y3538096D02*
X4281550Y3533440D01*
X4261703Y3520178D01*
X4248442Y3500332D01*
X4243785Y3476921D01*
X4248442Y3453510D01*
X4253981Y3445220D01*
Y2249874D01*
X4246241Y2238291D01*
X4241585Y2214880D01*
X4246241Y2191469D01*
X4259503Y2171623D01*
X4279349Y2158361D01*
X4302760Y2153705D01*
X4326171Y2158361D01*
X4346017Y2171623D01*
X4359279Y2191469D01*
X4363935Y2214880D01*
X4359279Y2238291D01*
X4355940Y2243287D01*
Y3445220D01*
X4361479Y3453510D01*
X4366136Y3476921D01*
X4361479Y3500332D01*
X4348218Y3520178D01*
X4328372Y3533440D01*
X4304961Y3538096D01*
D02*
G37*
G36*
X9142800Y2056275D02*
X9119389Y2051618D01*
X9099543Y2038357D01*
X9086282Y2018511D01*
X9081625Y1995100D01*
X9086282Y1971689D01*
X9099543Y1951842D01*
X9119389Y1938581D01*
X9142800Y1933924D01*
X9166211Y1938581D01*
X9174501Y1944120D01*
X9611904D01*
X9710240Y1845784D01*
Y1591261D01*
X9704701Y1582971D01*
X9700045Y1559560D01*
X9704701Y1536149D01*
X9715320Y1520257D01*
Y1380441D01*
X9709781Y1372151D01*
X9705125Y1348740D01*
X9709781Y1325329D01*
X9723043Y1305483D01*
X9742889Y1292221D01*
X9766300Y1287565D01*
X9789711Y1292221D01*
X9809557Y1305483D01*
X9822819Y1325329D01*
X9827475Y1348740D01*
X9822819Y1372151D01*
X9817280Y1380441D01*
Y1535462D01*
X9817739Y1536149D01*
X9822395Y1559560D01*
X9817739Y1582971D01*
X9812200Y1591261D01*
Y1866900D01*
X9808319Y1886409D01*
X9797268Y1902948D01*
X9669068Y2031148D01*
X9652529Y2042199D01*
X9633020Y2046079D01*
X9174501D01*
X9166211Y2051618D01*
X9142800Y2056275D01*
D02*
G37*
G36*
X7640320Y1227035D02*
X7616909Y1222379D01*
X7597063Y1209117D01*
X7583801Y1189271D01*
X7581856Y1179492D01*
X7530304Y1127940D01*
X5553661D01*
X5545371Y1133479D01*
X5521960Y1138135D01*
X5498549Y1133479D01*
X5478703Y1120217D01*
X5465441Y1100371D01*
X5460785Y1076960D01*
X5465441Y1053549D01*
X5478703Y1033703D01*
X5498549Y1020441D01*
X5521960Y1015785D01*
X5545371Y1020441D01*
X5553661Y1025980D01*
X7551420D01*
X7570929Y1029861D01*
X7587468Y1040912D01*
X7653952Y1107396D01*
X7663731Y1109341D01*
X7683577Y1122603D01*
X7696839Y1142449D01*
X7701495Y1165860D01*
X7696839Y1189271D01*
X7683577Y1209117D01*
X7663731Y1222379D01*
X7640320Y1227035D01*
D02*
G37*
G36*
X4302760Y1041615D02*
X4279349Y1036959D01*
X4259503Y1023697D01*
X4246241Y1003851D01*
X4241585Y980440D01*
X4246241Y957029D01*
X4259503Y937183D01*
X4279349Y923921D01*
X4302760Y919265D01*
X4326171Y923921D01*
X4346017Y937183D01*
X4359279Y957029D01*
X4363935Y980440D01*
X4359279Y1003851D01*
X4346017Y1023697D01*
X4326171Y1036959D01*
X4302760Y1041615D01*
D02*
G37*
G36*
X7647940Y4628095D02*
X7624529Y4623439D01*
X7604683Y4610177D01*
X7591421Y4590331D01*
X7586765Y4566920D01*
X7591421Y4543509D01*
X7604683Y4523663D01*
X7624529Y4510401D01*
X7647940Y4505745D01*
X7671351Y4510401D01*
X7679641Y4515940D01*
X8106884D01*
X8221800Y4401024D01*
Y2861261D01*
X8216261Y2852971D01*
X8211605Y2829560D01*
X8216261Y2806149D01*
X8219260Y2801660D01*
Y2489200D01*
X8223141Y2469691D01*
X8234192Y2453152D01*
X8463100Y2224244D01*
Y2028141D01*
X8457561Y2019851D01*
X8454355Y2003731D01*
X8071930Y1621306D01*
X8049260Y1625815D01*
X8025849Y1621159D01*
X8006003Y1607897D01*
X7992741Y1588051D01*
X7988085Y1564640D01*
X7992741Y1541229D01*
X8006003Y1521383D01*
X8025849Y1508121D01*
X8049260Y1503465D01*
X8072671Y1508121D01*
X8080961Y1513660D01*
X8087360D01*
X8106869Y1517541D01*
X8123408Y1528592D01*
X8446928Y1852112D01*
X8463100Y1845413D01*
Y1314418D01*
X8462641Y1313731D01*
X8457985Y1290320D01*
X8462641Y1266909D01*
X8463100Y1266222D01*
Y958376D01*
X8386148Y881424D01*
X8376369Y879479D01*
X8356523Y866217D01*
X8343261Y846371D01*
X8338605Y822960D01*
X8343261Y799549D01*
X8356523Y779703D01*
X8376369Y766441D01*
X8399780Y761785D01*
X8423191Y766441D01*
X8443037Y779703D01*
X8456299Y799549D01*
X8458244Y809328D01*
X8550128Y901212D01*
X8561179Y917751D01*
X8565060Y937260D01*
Y1251017D01*
X8575679Y1266909D01*
X8580335Y1290320D01*
X8575679Y1313731D01*
X8565060Y1329623D01*
Y1964739D01*
X8570599Y1973029D01*
X8575255Y1996440D01*
X8570599Y2019851D01*
X8565060Y2028141D01*
Y2245360D01*
X8561179Y2264869D01*
X8550128Y2281408D01*
X8321220Y2510317D01*
Y2794058D01*
X8329299Y2806149D01*
X8333955Y2829560D01*
X8329299Y2852971D01*
X8323760Y2861261D01*
Y4422140D01*
X8319879Y4441649D01*
X8308828Y4458188D01*
X8164048Y4602968D01*
X8147509Y4614019D01*
X8128000Y4617900D01*
X7679641D01*
X7671351Y4623439D01*
X7647940Y4628095D01*
D02*
G37*
G36*
X8206740Y4948135D02*
X8183329Y4943479D01*
X8163483Y4930217D01*
X8150221Y4910371D01*
X8145565Y4886960D01*
X8150221Y4863549D01*
X8163483Y4843703D01*
X8183329Y4830441D01*
X8206740Y4825785D01*
X8230151Y4830441D01*
X8249997Y4843703D01*
X8260030Y4858717D01*
X8560801D01*
X8671257Y4748262D01*
Y694958D01*
X8348331Y372032D01*
X7929224D01*
X7924877Y378537D01*
X7905031Y391799D01*
X7881620Y396455D01*
X7858209Y391799D01*
X7838363Y378537D01*
X7825101Y358691D01*
X7820445Y335280D01*
X7825101Y311869D01*
X7838363Y292023D01*
X7858209Y278761D01*
X7870370Y276342D01*
X7881676Y273452D01*
X7883076Y257325D01*
X7881405Y248920D01*
X7884838Y231659D01*
X7868705Y223036D01*
X7642511Y449231D01*
X7633348Y455353D01*
X7622540Y457503D01*
X7622539Y457503D01*
X7434530D01*
X7424497Y472517D01*
X7404651Y485779D01*
X7381240Y490435D01*
X7357829Y485779D01*
X7337983Y472517D01*
X7330841Y461829D01*
X7324335Y461259D01*
X7311029Y463688D01*
X7300037Y480137D01*
X7280191Y493399D01*
X7256780Y498055D01*
X7233369Y493399D01*
X7213523Y480137D01*
X7201386Y461974D01*
X7195552Y460813D01*
X7186390Y454691D01*
X7186389Y454690D01*
X7132669Y400971D01*
X7129808Y396688D01*
X7112303Y401998D01*
Y483601D01*
X7168996Y540295D01*
X7190377Y544548D01*
X7210224Y557809D01*
X7223485Y577655D01*
X7228142Y601066D01*
X7223485Y624477D01*
X7210224Y644324D01*
X7190377Y657585D01*
X7166966Y662242D01*
X7160291Y660914D01*
X7140374Y671315D01*
X7127113Y691162D01*
X7119974Y695932D01*
X7125284Y713437D01*
X7331800D01*
X7334881Y697949D01*
X7348143Y678103D01*
X7367989Y664841D01*
X7391400Y660185D01*
X7414811Y664841D01*
X7434657Y678103D01*
X7447919Y697949D01*
X7452575Y721360D01*
X7447919Y744771D01*
X7434657Y764617D01*
X7414811Y777879D01*
X7391400Y782535D01*
X7367989Y777879D01*
X7356082Y769923D01*
X7051040D01*
X7040232Y767773D01*
X7031069Y761651D01*
X7031069Y761650D01*
X6928199Y658781D01*
X6922077Y649618D01*
X6921846Y648456D01*
X6916245Y645459D01*
X6902815Y642511D01*
X6886491Y653419D01*
X6863080Y658075D01*
X6839669Y653419D01*
X6826988Y644946D01*
X6809483Y653794D01*
Y709895D01*
X6812831Y710561D01*
X6832677Y723823D01*
X6845939Y743669D01*
X6850595Y767080D01*
X6845939Y790491D01*
X6832677Y810337D01*
X6812831Y823599D01*
X6789420Y828255D01*
X6766009Y823599D01*
X6746163Y810337D01*
X6732901Y790491D01*
X6728245Y767080D01*
X6732901Y743669D01*
X6746163Y723823D01*
X6752998Y719255D01*
Y537058D01*
X6735493Y535334D01*
X6734233Y541668D01*
X6728111Y550831D01*
X6728110Y550831D01*
X6656991Y621951D01*
X6647828Y628073D01*
X6637020Y630223D01*
X6637019Y630223D01*
X5782579D01*
X5198413Y1214389D01*
Y3397970D01*
X5213427Y3408003D01*
X5226689Y3427849D01*
X5231345Y3451260D01*
X5226689Y3474671D01*
X5213427Y3494518D01*
X5193581Y3507779D01*
X5170170Y3512435D01*
X5146759Y3507779D01*
X5126913Y3494518D01*
X5113651Y3474671D01*
X5108995Y3451260D01*
X5113651Y3427849D01*
X5126913Y3408003D01*
X5141927Y3397970D01*
Y3313619D01*
X5138261Y3312227D01*
X5124422Y3310707D01*
X5120291Y3316891D01*
X5120290Y3316891D01*
X5049823Y3387359D01*
Y3602613D01*
X5067377Y3614343D01*
X5080639Y3634189D01*
X5085295Y3657600D01*
X5080639Y3681011D01*
X5067377Y3700857D01*
X5047531Y3714119D01*
X5024120Y3718775D01*
X5000709Y3714119D01*
X4980863Y3700857D01*
X4967601Y3681011D01*
X4962945Y3657600D01*
X4967601Y3634189D01*
X4980863Y3614343D01*
X4993337Y3606007D01*
Y3375661D01*
X4993337Y3375660D01*
X4995487Y3364852D01*
X5001609Y3355689D01*
X5072077Y3285222D01*
Y1102361D01*
X5072077Y1102360D01*
X5074227Y1091552D01*
X5080349Y1082389D01*
X5692489Y470250D01*
X5692489Y470249D01*
X5701652Y464127D01*
X5712460Y461977D01*
X5712461Y461977D01*
X6540988D01*
X6558278Y444687D01*
X6554755Y426976D01*
X6559412Y403565D01*
X6572673Y383719D01*
X6574477Y382514D01*
Y361460D01*
X6565823Y355677D01*
X6564429Y353592D01*
X6545623Y352318D01*
X6484271Y413671D01*
X6475108Y419793D01*
X6464300Y421943D01*
X6464299Y421943D01*
X5650499D01*
X4859323Y1213119D01*
Y2988041D01*
X4972871Y3101590D01*
X4983136Y3099548D01*
X5006547Y3104205D01*
X5026394Y3117466D01*
X5039655Y3137313D01*
X5044311Y3160724D01*
X5039655Y3184135D01*
X5026394Y3203981D01*
X5006547Y3217242D01*
X4983136Y3221899D01*
X4959725Y3217242D01*
X4939879Y3203981D01*
X4926617Y3184135D01*
X4921961Y3160724D01*
X4926617Y3137313D01*
X4927456Y3136057D01*
X4811109Y3019711D01*
X4804987Y3010548D01*
X4802837Y2999740D01*
X4802837Y2999739D01*
Y1201421D01*
X4802837Y1201420D01*
X4804987Y1190612D01*
X4811109Y1181449D01*
X5618829Y373729D01*
X5627992Y367607D01*
X5638800Y365457D01*
X6191205D01*
X6201110Y347952D01*
X6196731Y340663D01*
X5518418D01*
X4737403Y1121679D01*
Y3498582D01*
X4815569Y3576748D01*
X4833281Y3573226D01*
X4856692Y3577882D01*
X4876538Y3591143D01*
X4889799Y3610990D01*
X4894456Y3634401D01*
X4889799Y3657812D01*
X4876538Y3677658D01*
X4856692Y3690920D01*
X4833281Y3695576D01*
X4809870Y3690920D01*
X4790023Y3677658D01*
X4776762Y3657812D01*
X4772105Y3634401D01*
X4775628Y3616690D01*
X4689189Y3530251D01*
X4683067Y3521088D01*
X4680917Y3510280D01*
X4680917Y3510279D01*
Y1109981D01*
X4680917Y1109980D01*
X4683067Y1099172D01*
X4689189Y1090009D01*
X5486749Y292450D01*
X5486749Y292449D01*
X5495912Y286327D01*
X5506720Y284177D01*
X5506721Y284177D01*
X6207810D01*
X6217843Y269163D01*
X6237689Y255901D01*
X6261100Y251245D01*
X6284511Y255901D01*
X6304357Y269163D01*
X6317619Y289009D01*
X6322275Y312420D01*
X6317619Y335831D01*
X6309520Y347952D01*
X6318831Y365457D01*
X6452601D01*
X6517076Y300983D01*
X6526238Y294861D01*
X6537046Y292711D01*
X6552561Y289009D01*
X6565823Y269163D01*
X6585669Y255901D01*
X6609080Y251245D01*
X6632491Y255901D01*
X6652337Y269163D01*
X6662392Y284210D01*
X6679897Y278900D01*
Y58370D01*
X6664883Y48337D01*
X6651621Y28491D01*
X6646965Y5080D01*
X6651621Y-18331D01*
X6664883Y-38177D01*
X6684729Y-51439D01*
X6708140Y-56095D01*
X6722230Y-53293D01*
X6730853Y-69426D01*
X6200071Y-600207D01*
X6182360Y-596685D01*
X6158949Y-601341D01*
X6139103Y-614603D01*
X6125841Y-634449D01*
X6121185Y-657860D01*
X6125841Y-681271D01*
X6139103Y-701117D01*
X6158949Y-714379D01*
X6182360Y-719035D01*
X6205771Y-714379D01*
X6225617Y-701117D01*
X6238879Y-681271D01*
X6243535Y-657860D01*
X6240013Y-640149D01*
X6801211Y-78950D01*
X6807334Y-69788D01*
X6809484Y-58979D01*
X6809483Y-58978D01*
Y528449D01*
X6826988Y538131D01*
X6834837Y533207D01*
Y-371842D01*
X6700869Y-505809D01*
X6694747Y-514972D01*
X6692597Y-525780D01*
X6692597Y-525781D01*
Y-1666239D01*
X6692597Y-1666240D01*
X6694747Y-1677048D01*
X6700869Y-1686211D01*
X6791495Y-1776837D01*
X6791496Y-1776837D01*
X6800659Y-1782960D01*
X6811467Y-1785110D01*
X6811468Y-1785109D01*
X7351370D01*
X7361402Y-1800124D01*
X7381249Y-1813386D01*
X7404660Y-1818042D01*
X7428071Y-1813386D01*
X7432012Y-1810752D01*
X7449517Y-1820108D01*
Y-1866597D01*
X7160210D01*
X7150177Y-1851583D01*
X7130331Y-1838321D01*
X7106920Y-1833665D01*
X7083509Y-1838321D01*
X7063663Y-1851583D01*
X7050401Y-1871429D01*
X7045745Y-1894840D01*
X7050401Y-1918251D01*
X7063663Y-1938097D01*
X7083509Y-1951359D01*
X7106920Y-1956015D01*
X7130331Y-1951359D01*
X7150177Y-1938097D01*
X7160210Y-1923083D01*
X7462880D01*
X7462881Y-1923083D01*
X7473689Y-1920933D01*
X7482852Y-1914811D01*
X7497730Y-1899932D01*
X7497731Y-1899932D01*
X7503853Y-1890769D01*
X7506003Y-1879961D01*
Y-1324048D01*
X7522224Y-1314719D01*
X7523508Y-1314907D01*
X7528909Y-1322991D01*
X8170297Y-1964378D01*
X8159138Y-1977975D01*
X8151488Y-1972864D01*
X8128077Y-1968207D01*
X8104667Y-1972864D01*
X8084820Y-1986125D01*
X8071559Y-2005972D01*
X8069614Y-2015751D01*
X8038304Y-2047060D01*
X7418021D01*
X7409731Y-2041521D01*
X7386320Y-2036865D01*
X7362909Y-2041521D01*
X7350818Y-2049600D01*
X5878356D01*
X5748064Y-1919308D01*
X5746119Y-1909529D01*
X5743120Y-1905040D01*
Y-833120D01*
X5739239Y-813611D01*
X5728188Y-797072D01*
X4653324Y277792D01*
X4651379Y287571D01*
X4638117Y307417D01*
X4618271Y320679D01*
X4608492Y322624D01*
X4589824Y341292D01*
X4587879Y351071D01*
X4574617Y370917D01*
X4554771Y384179D01*
X4544992Y386124D01*
X4521244Y409872D01*
X4519299Y419651D01*
X4510446Y432900D01*
X4513177Y446672D01*
X4515201Y451409D01*
X4516447Y453029D01*
X4522421Y457020D01*
X4563159D01*
X4571449Y451481D01*
X4594860Y446825D01*
X4618271Y451481D01*
X4626561Y457020D01*
X4703284D01*
X5887676Y-727372D01*
X5889621Y-737151D01*
X5902883Y-756997D01*
X5922729Y-770259D01*
X5932508Y-772204D01*
X5983752Y-823448D01*
X6000291Y-834499D01*
X6019800Y-838380D01*
X6281420D01*
X6300929Y-834499D01*
X6317468Y-823448D01*
X6602392Y-538524D01*
X6612171Y-536579D01*
X6632017Y-523317D01*
X6645279Y-503471D01*
X6649935Y-480060D01*
X6645279Y-456649D01*
X6632017Y-436803D01*
X6612171Y-423541D01*
X6588760Y-418885D01*
X6565349Y-423541D01*
X6545503Y-436803D01*
X6532241Y-456649D01*
X6530296Y-466428D01*
X6260304Y-736420D01*
X6040916D01*
X6004604Y-700108D01*
X6002659Y-690329D01*
X5989397Y-670483D01*
X5969551Y-657221D01*
X5959772Y-655276D01*
X4760448Y544048D01*
X4743909Y555099D01*
X4724400Y558980D01*
X4626561D01*
X4621028Y562676D01*
X4618587Y574672D01*
X4618824Y582257D01*
X4625417Y586663D01*
X4638679Y606509D01*
X4643335Y629920D01*
X4638679Y653331D01*
X4628180Y669043D01*
X4628435Y690267D01*
X4633037Y693343D01*
X4646299Y713189D01*
X4650955Y736600D01*
X4646299Y760011D01*
X4635405Y776314D01*
X4634234Y796585D01*
X4635577Y797483D01*
X4648839Y817329D01*
X4653495Y840740D01*
X4648839Y864151D01*
X4635577Y883997D01*
X4615731Y897259D01*
X4592320Y901915D01*
X4568909Y897259D01*
X4549063Y883997D01*
X4535801Y864151D01*
X4531145Y840740D01*
X4535801Y817329D01*
X4549063Y797483D01*
Y786713D01*
X4545723Y778661D01*
X4533261Y760011D01*
X4528605Y736600D01*
X4533261Y713189D01*
X4543760Y697477D01*
X4543505Y676253D01*
X4538903Y673177D01*
X4525641Y653331D01*
X4520985Y629920D01*
X4525641Y606509D01*
X4538903Y586663D01*
X4554135Y576484D01*
X4548824Y558980D01*
X4522421D01*
X4514131Y564519D01*
X4490720Y569175D01*
X4467309Y564519D01*
X4460289Y559828D01*
X4443261Y562609D01*
X4435894Y577946D01*
X4443099Y588729D01*
X4447755Y612140D01*
X4443099Y635551D01*
X4429837Y655397D01*
X4419689Y662179D01*
X4426519Y678668D01*
X4442825Y675425D01*
X4466236Y680081D01*
X4486083Y693343D01*
X4499344Y713189D01*
X4504001Y736600D01*
X4499344Y760011D01*
X4486083Y779857D01*
X4489686Y795802D01*
X4498979Y809709D01*
X4503635Y833120D01*
X4498979Y856531D01*
X4487362Y873916D01*
X4498417Y881303D01*
X4511679Y901149D01*
X4515457Y920143D01*
X4534451Y923921D01*
X4554297Y937183D01*
X4567559Y957029D01*
X4572216Y980440D01*
X4587555Y988399D01*
X4595411Y989961D01*
X4615257Y1003223D01*
X4628519Y1023069D01*
X4633175Y1046480D01*
X4628519Y1069891D01*
X4615257Y1089737D01*
X4595411Y1102999D01*
X4572000Y1107655D01*
X4548589Y1102999D01*
X4528743Y1089737D01*
X4515481Y1069891D01*
X4510824Y1046480D01*
X4495485Y1038521D01*
X4487629Y1036959D01*
X4467783Y1023697D01*
X4454521Y1003851D01*
X4450743Y984857D01*
X4431749Y981079D01*
X4411903Y967817D01*
X4398641Y947971D01*
X4393985Y924560D01*
X4398641Y901149D01*
X4410258Y883764D01*
X4399203Y876377D01*
X4385941Y856531D01*
X4381285Y833120D01*
X4385941Y809709D01*
X4399203Y789863D01*
X4395599Y773918D01*
X4386306Y760011D01*
X4381650Y736600D01*
X4386306Y713189D01*
X4399568Y693343D01*
X4409716Y686561D01*
X4402886Y670072D01*
X4386580Y673315D01*
X4363169Y668659D01*
X4357777Y665056D01*
X4355923Y663817D01*
X4346018Y678103D01*
X4347281Y679993D01*
X4359279Y697949D01*
X4363935Y721360D01*
X4359279Y744771D01*
X4347601Y762247D01*
X4345928Y769930D01*
Y776930D01*
X4347601Y784613D01*
X4359279Y802089D01*
X4363935Y825500D01*
X4359279Y848911D01*
X4346017Y868757D01*
X4326171Y882019D01*
X4302760Y886675D01*
X4279349Y882019D01*
X4259503Y868757D01*
X4246241Y848911D01*
X4241585Y825500D01*
X4246241Y802089D01*
X4257919Y784613D01*
X4259592Y776930D01*
Y769930D01*
X4257919Y762247D01*
X4246241Y744771D01*
X4241585Y721360D01*
X4246241Y697949D01*
X4252404Y688726D01*
X4244348Y669275D01*
X4241249Y668659D01*
X4221403Y655397D01*
X4208141Y635551D01*
X4203485Y612140D01*
X4208141Y588729D01*
X4221403Y568883D01*
X4228389Y564214D01*
X4238846Y551661D01*
X4232851Y541782D01*
X4225921Y531411D01*
X4221265Y508000D01*
X4225921Y484589D01*
X4231992Y475503D01*
X4228400Y464536D01*
X4215014Y459964D01*
X4206791Y465459D01*
X4183380Y470115D01*
X4159969Y465459D01*
X4140123Y452197D01*
X4126861Y432351D01*
X4122205Y408940D01*
X4126861Y385529D01*
X4140123Y365683D01*
X4159969Y352421D01*
X4183380Y347765D01*
X4206791Y352421D01*
X4226637Y365683D01*
X4233248D01*
X4236643Y360603D01*
X4256489Y347341D01*
X4266268Y345396D01*
X4314155Y297509D01*
X4317361Y281389D01*
X4330623Y261543D01*
X4350469Y248281D01*
X4373880Y243625D01*
X4397291Y248281D01*
X4417137Y261543D01*
X4430399Y281389D01*
X4432344Y291168D01*
X4456706Y315530D01*
X4474068Y308136D01*
X4474841Y304249D01*
X4488103Y284403D01*
X4507949Y271141D01*
X4517728Y269196D01*
X4536396Y250528D01*
X4538341Y240749D01*
X4551603Y220903D01*
X4571449Y207641D01*
X4581228Y205696D01*
X5641160Y-854237D01*
Y-1897438D01*
X5633081Y-1909529D01*
X5628425Y-1932940D01*
X5633081Y-1956351D01*
X5638620Y-1964641D01*
Y-2266565D01*
X5621915Y-2279383D01*
X5607297Y-2298434D01*
X5598107Y-2320620D01*
X5594973Y-2344428D01*
X5598107Y-2368236D01*
X5607297Y-2390421D01*
X5621915Y-2409472D01*
X5640967Y-2424091D01*
X5663152Y-2433280D01*
X5686960Y-2436414D01*
X5710768Y-2433280D01*
X5732953Y-2424091D01*
X5752004Y-2409472D01*
X5766623Y-2390421D01*
X5775812Y-2368236D01*
X5778947Y-2344428D01*
X5775812Y-2320620D01*
X5766623Y-2298434D01*
X5752004Y-2279383D01*
X5740580Y-2270616D01*
Y-2078887D01*
X5756752Y-2072188D01*
X5821192Y-2136628D01*
X5837731Y-2147679D01*
X5857240Y-2151560D01*
X7358420D01*
X7362909Y-2154559D01*
X7386320Y-2159215D01*
X7409731Y-2154559D01*
X7418021Y-2149020D01*
X8059420D01*
X8078929Y-2145139D01*
X8095468Y-2134088D01*
X8141709Y-2087846D01*
X8151488Y-2085901D01*
X8171335Y-2072640D01*
X8184596Y-2052793D01*
X8189253Y-2029383D01*
X8184596Y-2005972D01*
X8179485Y-1998322D01*
X8193082Y-1987163D01*
X8283708Y-2077789D01*
X8280185Y-2095500D01*
X8284841Y-2118911D01*
X8298103Y-2138757D01*
X8317949Y-2152019D01*
X8341360Y-2156675D01*
X8364771Y-2152019D01*
X8384617Y-2138757D01*
X8397879Y-2118911D01*
X8402535Y-2095500D01*
X8397879Y-2072089D01*
X8384617Y-2052243D01*
X8364771Y-2038981D01*
X8341360Y-2034325D01*
X8323649Y-2037848D01*
X7577123Y-1291321D01*
Y-386080D01*
X7574973Y-375272D01*
X7568851Y-366109D01*
X7180883Y21859D01*
Y220646D01*
X7198388Y230563D01*
X7200597Y229238D01*
Y157481D01*
X7200597Y157480D01*
X7202747Y146672D01*
X7208869Y137509D01*
X7752429Y-406051D01*
X7761592Y-412173D01*
X7772400Y-414323D01*
X7772401Y-414323D01*
X8736420D01*
X8739501Y-429811D01*
X8752763Y-449657D01*
X8772609Y-462919D01*
X8796020Y-467575D01*
X8819431Y-462919D01*
X8839277Y-449657D01*
X8852539Y-429811D01*
X8857195Y-406400D01*
X8852539Y-382989D01*
X8846137Y-373408D01*
X8855493Y-355903D01*
X9054883D01*
X9054885Y-355903D01*
X9065693Y-353753D01*
X9074855Y-347631D01*
X9085649Y-336837D01*
X9103360Y-340360D01*
X9126771Y-335703D01*
X9146617Y-322442D01*
X9159879Y-302596D01*
X9164535Y-279185D01*
X9159879Y-255774D01*
X9146617Y-235927D01*
X9126771Y-222666D01*
X9103360Y-218009D01*
X9079949Y-222666D01*
X9060103Y-235927D01*
X9046841Y-255774D01*
X9042185Y-279185D01*
X9042727Y-281912D01*
X9028361Y-299417D01*
X8935462D01*
X8926105Y-281912D01*
X8928739Y-277971D01*
X8933009Y-256504D01*
X8934821Y-253520D01*
X8948982Y-243192D01*
X8965355Y-246449D01*
X8988766Y-241793D01*
X9008613Y-228531D01*
X9021874Y-208685D01*
X9026531Y-185274D01*
X9021874Y-161863D01*
X9008613Y-142016D01*
X8988766Y-128755D01*
X8965355Y-124098D01*
X8941944Y-128755D01*
X8922098Y-142016D01*
X8913192Y-155344D01*
X8902499Y-153217D01*
X8902498Y-153217D01*
X7922378D01*
X7762543Y6619D01*
Y139750D01*
X7777557Y149783D01*
X7790819Y169629D01*
X7795241Y191862D01*
X7799902Y194882D01*
X7811959Y199900D01*
X7948428Y63431D01*
X7944905Y45720D01*
X7949561Y22309D01*
X7953125Y16976D01*
X7951048Y10609D01*
X7943786Y-555D01*
X7924249Y-4441D01*
X7904403Y-17703D01*
X7891141Y-37549D01*
X7886485Y-60960D01*
X7891141Y-84371D01*
X7904403Y-104217D01*
X7924249Y-117479D01*
X7947660Y-122135D01*
X7971071Y-117479D01*
X7990917Y-104217D01*
X8000950Y-89203D01*
X8333739D01*
X8333740Y-89203D01*
X8344548Y-87053D01*
X8353711Y-80931D01*
X9034430Y599789D01*
X9034431Y599789D01*
X9040553Y608952D01*
X9042703Y619760D01*
Y1075421D01*
X9117599Y1150317D01*
X9377730D01*
X9387763Y1135303D01*
X9407609Y1122041D01*
X9431020Y1117385D01*
X9454431Y1122041D01*
X9474277Y1135303D01*
X9487539Y1155149D01*
X9492195Y1178560D01*
X9487539Y1201971D01*
X9474277Y1221817D01*
X9454431Y1235079D01*
X9431020Y1239735D01*
X9407609Y1235079D01*
X9387763Y1221817D01*
X9377730Y1206803D01*
X9105901D01*
X9105900Y1206803D01*
X9095092Y1204653D01*
X9085929Y1198531D01*
X8994489Y1107091D01*
X8988367Y1097928D01*
X8986217Y1087120D01*
X8986217Y1087119D01*
Y631458D01*
X8322041Y-32717D01*
X8019107D01*
X8018125Y-30907D01*
X8027362Y-11222D01*
X8029491Y-10799D01*
X8049337Y2463D01*
X8062599Y22309D01*
X8067255Y45720D01*
X8062599Y69131D01*
X8049337Y88977D01*
X8032248Y100396D01*
X8029807Y112392D01*
X8030044Y119977D01*
X8036637Y124383D01*
X8046670Y139397D01*
X8445499D01*
X8445500Y139397D01*
X8456308Y141547D01*
X8465471Y147669D01*
X8940450Y622649D01*
X8940451Y622649D01*
X8946573Y631812D01*
X8948723Y642620D01*
Y1535161D01*
X9061719Y1648157D01*
X9385350D01*
X9395383Y1633143D01*
X9415229Y1619881D01*
X9438640Y1615225D01*
X9462051Y1619881D01*
X9481897Y1633143D01*
X9495159Y1652989D01*
X9499815Y1676400D01*
X9495159Y1699811D01*
X9481897Y1719657D01*
X9462051Y1732919D01*
X9438640Y1737575D01*
X9415229Y1732919D01*
X9395383Y1719657D01*
X9385350Y1704643D01*
X9050021D01*
X9050020Y1704643D01*
X9039212Y1702493D01*
X9030049Y1696371D01*
X8900509Y1566831D01*
X8894387Y1557668D01*
X8892237Y1546860D01*
X8892237Y1546859D01*
Y654318D01*
X8433801Y195883D01*
X8057749D01*
X8053370Y203172D01*
X8063275Y220677D01*
X8392158D01*
X8392160Y220677D01*
X8402968Y222827D01*
X8412130Y228949D01*
X8610249Y427068D01*
X8610251Y427069D01*
X8833771Y650589D01*
X8839893Y659752D01*
X8842043Y670560D01*
X8842043Y670561D01*
Y1102410D01*
X8857057Y1112443D01*
X8870319Y1132289D01*
X8874975Y1155700D01*
X8870319Y1179111D01*
X8857057Y1198957D01*
X8837211Y1212219D01*
X8813800Y1216875D01*
X8790389Y1212219D01*
X8770543Y1198957D01*
X8757281Y1179111D01*
X8752625Y1155700D01*
X8757281Y1132289D01*
X8770543Y1112443D01*
X8785557Y1102410D01*
Y682259D01*
X8570310Y467011D01*
X8570309Y467011D01*
X8570308Y467010D01*
X8380461Y277163D01*
X7995870D01*
X7985837Y292177D01*
X7977061Y298042D01*
X7982371Y315547D01*
X8360028D01*
X8360030Y315546D01*
X8370838Y317697D01*
X8380000Y323819D01*
X8719470Y663289D01*
X8719471Y663289D01*
X8725593Y672452D01*
X8727743Y683260D01*
X8727743Y683261D01*
Y4759959D01*
X8727743Y4759960D01*
X8725593Y4770768D01*
X8719471Y4779931D01*
X8719470Y4779931D01*
X8592471Y4906931D01*
X8583308Y4913053D01*
X8572500Y4915203D01*
X8572499Y4915203D01*
X8260030D01*
X8249997Y4930217D01*
X8230151Y4943479D01*
X8206740Y4948135D01*
D02*
G37*
G36*
X10763360Y503979D02*
X10731329Y499762D01*
X10701481Y487398D01*
X10675849Y467731D01*
X10656182Y442099D01*
X10643818Y412251D01*
X10639601Y380220D01*
X10643818Y348189D01*
X10656182Y318341D01*
X10675849Y292710D01*
X10701481Y273042D01*
X10731329Y260678D01*
X10763360Y256462D01*
X10795391Y260678D01*
X10825239Y273042D01*
X10850871Y292710D01*
X10870538Y318341D01*
X10882902Y348189D01*
X10887119Y380220D01*
X10882902Y412251D01*
X10870538Y442099D01*
X10850871Y467731D01*
X10825239Y487398D01*
X10795391Y499762D01*
X10763360Y503979D01*
D02*
G37*
G36*
X10908360Y53945D02*
X10883974Y49094D01*
X10863300Y35280D01*
X10845859Y40687D01*
Y52720D01*
X10720859D01*
Y-72280D01*
X10845859D01*
Y-60247D01*
X10863300Y-54840D01*
X10883974Y-68654D01*
X10908360Y-73505D01*
X10932746Y-68654D01*
X10953420Y-54840D01*
X10967234Y-34166D01*
X10972084Y-9780D01*
X10967234Y14606D01*
X10953420Y35280D01*
X10932746Y49094D01*
X10908360Y53945D01*
D02*
G37*
G36*
Y-196055D02*
X10883974Y-200906D01*
X10863300Y-214720D01*
X10856386Y-225067D01*
X10835333D01*
X10828420Y-214720D01*
X10807746Y-200906D01*
X10783359Y-196055D01*
X10758973Y-200906D01*
X10738299Y-214720D01*
X10724486Y-235394D01*
X10719635Y-259780D01*
X10724486Y-284166D01*
X10738299Y-304840D01*
X10758973Y-318654D01*
X10783359Y-323505D01*
X10807746Y-318654D01*
X10828420Y-304840D01*
X10835333Y-294493D01*
X10856386D01*
X10863300Y-304840D01*
X10883974Y-318654D01*
X10908360Y-323505D01*
X10932746Y-318654D01*
X10953420Y-304840D01*
X10967234Y-284166D01*
X10972084Y-259780D01*
X10967234Y-235394D01*
X10953420Y-214720D01*
X10932746Y-200906D01*
X10908360Y-196055D01*
D02*
G37*
G36*
X3807460Y-307125D02*
X3784049Y-311781D01*
X3764203Y-325043D01*
X3750941Y-344889D01*
X3746285Y-368300D01*
X3750941Y-391711D01*
X3764203Y-411557D01*
X3784049Y-424819D01*
X3807460Y-429475D01*
X3830871Y-424819D01*
X3850717Y-411557D01*
X3860750Y-396543D01*
X4083632D01*
X4083681Y-396791D01*
X4096943Y-416637D01*
X4116789Y-429899D01*
X4140200Y-434555D01*
X4163611Y-429899D01*
X4183457Y-416637D01*
X4196719Y-396791D01*
X4201375Y-373380D01*
X4196719Y-349969D01*
X4183457Y-330123D01*
X4163611Y-316861D01*
X4140200Y-312205D01*
X4116789Y-316861D01*
X4096943Y-330123D01*
X4090304Y-340057D01*
X3860750D01*
X3850717Y-325043D01*
X3830871Y-311781D01*
X3807460Y-307125D01*
D02*
G37*
G36*
X10058400Y-35345D02*
X10034989Y-40001D01*
X10015143Y-53263D01*
X10001881Y-73109D01*
X9997225Y-96520D01*
X10001881Y-119931D01*
X10015143Y-139777D01*
X10017616Y-141431D01*
Y-447927D01*
X9967338Y-498205D01*
X9964420Y-497625D01*
X9941009Y-502281D01*
X9921163Y-515543D01*
X9919509Y-518016D01*
X8259256D01*
X8255639Y-499829D01*
X8242377Y-479983D01*
X8222531Y-466721D01*
X8199120Y-462065D01*
X8175709Y-466721D01*
X8155863Y-479983D01*
X8151652Y-486283D01*
X8108933D01*
X8093326Y-489388D01*
X8080095Y-498228D01*
X8080094Y-498229D01*
X7992482Y-585842D01*
X7983641Y-599073D01*
X7980536Y-614680D01*
X7980536Y-614681D01*
Y-1595119D01*
X7980536Y-1595120D01*
X7983641Y-1610727D01*
X7992482Y-1623958D01*
X8230878Y-1862355D01*
X8229455Y-1869510D01*
X8234111Y-1892921D01*
X8247373Y-1912768D01*
X8267219Y-1926029D01*
X8290630Y-1930685D01*
X8293548Y-1930105D01*
X8475082Y-2111638D01*
X8488313Y-2120479D01*
X8503920Y-2123584D01*
X8503921Y-2123584D01*
X9923779D01*
X9923780Y-2123584D01*
X9939387Y-2120479D01*
X9952618Y-2111638D01*
X10052942Y-2011315D01*
X10055860Y-2011895D01*
X10079271Y-2007239D01*
X10099117Y-1993977D01*
X10112379Y-1974131D01*
X10117035Y-1950720D01*
X10112379Y-1927309D01*
X10099117Y-1907463D01*
X10096644Y-1905809D01*
Y-1631579D01*
X10109277Y-1623137D01*
X10122539Y-1603291D01*
X10127195Y-1579880D01*
X10122539Y-1556469D01*
X10109277Y-1536623D01*
X10089431Y-1523361D01*
X10066020Y-1518705D01*
X10042609Y-1523361D01*
X10022763Y-1536623D01*
X10009501Y-1556469D01*
X10004845Y-1579880D01*
X10009501Y-1603291D01*
X10015076Y-1611635D01*
Y-1905809D01*
X10012603Y-1907463D01*
X9999341Y-1927309D01*
X9994685Y-1950720D01*
X9995265Y-1953638D01*
X9906887Y-2042016D01*
X8520813D01*
X8351225Y-1872428D01*
X8351805Y-1869510D01*
X8347149Y-1846099D01*
X8333888Y-1826253D01*
X8314041Y-1812991D01*
X8292604Y-1808727D01*
X8062104Y-1578227D01*
Y-631573D01*
X8125826Y-567850D01*
X8157887D01*
X8175709Y-579759D01*
X8199120Y-584415D01*
X8205149Y-583216D01*
X8209571Y-587638D01*
X8222802Y-596479D01*
X8238410Y-599584D01*
X8238411Y-599584D01*
X9919509D01*
X9921163Y-602057D01*
X9941009Y-615319D01*
X9964420Y-619975D01*
X9987831Y-615319D01*
X10007677Y-602057D01*
X10020939Y-582211D01*
X10025595Y-558800D01*
X10025015Y-555882D01*
X10087238Y-493658D01*
X10096079Y-480427D01*
X10099184Y-464820D01*
X10099184Y-464819D01*
Y-141431D01*
X10101657Y-139777D01*
X10114919Y-119931D01*
X10119575Y-96520D01*
X10114919Y-73109D01*
X10101657Y-53263D01*
X10081811Y-40001D01*
X10058400Y-35345D01*
D02*
G37*
G36*
X7769190Y-441075D02*
X7745779Y-445731D01*
X7725932Y-458992D01*
X7712671Y-478839D01*
X7708015Y-502250D01*
X7712671Y-525661D01*
X7725932Y-545507D01*
X7745779Y-558769D01*
X7769190Y-563425D01*
X7792601Y-558769D01*
X7812447Y-545507D01*
X7825709Y-525661D01*
X7830365Y-502250D01*
X7825709Y-478839D01*
X7812447Y-458992D01*
X7792601Y-445731D01*
X7769190Y-441075D01*
D02*
G37*
G36*
X10763360Y-526021D02*
X10731329Y-530238D01*
X10701481Y-542602D01*
X10675849Y-562269D01*
X10656182Y-587901D01*
X10643818Y-617749D01*
X10639601Y-649780D01*
X10643818Y-681811D01*
X10656182Y-711659D01*
X10675849Y-737291D01*
X10701481Y-756958D01*
X10731329Y-769322D01*
X10763360Y-773539D01*
X10795391Y-769322D01*
X10825239Y-756958D01*
X10850870Y-737291D01*
X10870538Y-711659D01*
X10882902Y-681811D01*
X10887118Y-649780D01*
X10882902Y-617749D01*
X10870538Y-587901D01*
X10850870Y-562269D01*
X10825239Y-542602D01*
X10795391Y-530238D01*
X10763360Y-526021D01*
D02*
G37*
G36*
X10761760Y-1075741D02*
X10729729Y-1079958D01*
X10699881Y-1092322D01*
X10674250Y-1111989D01*
X10654582Y-1137621D01*
X10642218Y-1167469D01*
X10638002Y-1199500D01*
X10642218Y-1231531D01*
X10654582Y-1261379D01*
X10674250Y-1287011D01*
X10699881Y-1306678D01*
X10729729Y-1319042D01*
X10761760Y-1323259D01*
X10793791Y-1319042D01*
X10823640Y-1306678D01*
X10849271Y-1287011D01*
X10868938Y-1261379D01*
X10881302Y-1231531D01*
X10885519Y-1199500D01*
X10881302Y-1167469D01*
X10868938Y-1137621D01*
X10849271Y-1111989D01*
X10823640Y-1092322D01*
X10793791Y-1079958D01*
X10761760Y-1075741D01*
D02*
G37*
G36*
X10844260Y-1527000D02*
X10719260D01*
Y-1652000D01*
X10731292D01*
X10736700Y-1669440D01*
X10722886Y-1690114D01*
X10718035Y-1714500D01*
X10722886Y-1738886D01*
X10736700Y-1759560D01*
X10757373Y-1773374D01*
X10781760Y-1778225D01*
X10806146Y-1773374D01*
X10826820Y-1759560D01*
X10840634Y-1738886D01*
X10845484Y-1714500D01*
X10840634Y-1690114D01*
X10826820Y-1669440D01*
X10832227Y-1652000D01*
X10844260D01*
Y-1527000D01*
D02*
G37*
G36*
X10761760Y-2105741D02*
X10729728Y-2109958D01*
X10699880Y-2122322D01*
X10674249Y-2141989D01*
X10654581Y-2167621D01*
X10642218Y-2197469D01*
X10638001Y-2229500D01*
X10642218Y-2261531D01*
X10654581Y-2291379D01*
X10674249Y-2317011D01*
X10699880Y-2336678D01*
X10729728Y-2349042D01*
X10761760Y-2353259D01*
X10793791Y-2349042D01*
X10823639Y-2336678D01*
X10849270Y-2317011D01*
X10868938Y-2291379D01*
X10881301Y-2261531D01*
X10885518Y-2229500D01*
X10881301Y-2197469D01*
X10868938Y-2167621D01*
X10849270Y-2141989D01*
X10823639Y-2122322D01*
X10793791Y-2109958D01*
X10761760Y-2105741D01*
D02*
G37*
G36*
X4544680Y-465225D02*
X4521269Y-469881D01*
X4501423Y-483143D01*
X4488161Y-502989D01*
X4483505Y-526400D01*
X4488161Y-549811D01*
X4493700Y-558101D01*
Y-2378563D01*
X4242904Y-2629359D01*
X4190000D01*
Y-2641392D01*
X4172560Y-2646800D01*
X4151887Y-2632986D01*
X4127500Y-2628135D01*
X4103114Y-2632986D01*
X4082440Y-2646800D01*
X4075527Y-2657146D01*
X4054474D01*
X4047560Y-2646800D01*
X4026887Y-2632986D01*
X4002500Y-2628135D01*
X3978114Y-2632986D01*
X3957440Y-2646800D01*
X3943626Y-2667473D01*
X3938776Y-2691860D01*
X3943626Y-2716246D01*
X3957440Y-2736920D01*
X3978114Y-2750734D01*
X4002500Y-2755584D01*
X4026887Y-2750734D01*
X4047560Y-2736920D01*
X4054474Y-2726573D01*
X4075527D01*
X4082440Y-2736920D01*
X4103114Y-2750734D01*
X4127500Y-2755584D01*
X4151887Y-2750734D01*
X4172560Y-2736920D01*
X4190000Y-2742327D01*
Y-2754359D01*
X4315000D01*
Y-2701455D01*
X4580728Y-2435728D01*
X4591779Y-2419189D01*
X4595660Y-2399680D01*
Y-558101D01*
X4601199Y-549811D01*
X4605855Y-526400D01*
X4601199Y-502989D01*
X4587937Y-483143D01*
X4568091Y-469881D01*
X4544680Y-465225D01*
D02*
G37*
G36*
X5686960Y-2506433D02*
X5663152Y-2509568D01*
X5640967Y-2518757D01*
X5621915Y-2533376D01*
X5607297Y-2552427D01*
X5598107Y-2574612D01*
X5594973Y-2598420D01*
X5598107Y-2622228D01*
X5607297Y-2644414D01*
X5621915Y-2663465D01*
X5640967Y-2678083D01*
X5663152Y-2687273D01*
X5686960Y-2690407D01*
X5710768Y-2687273D01*
X5732953Y-2678083D01*
X5752004Y-2663465D01*
X5766623Y-2644414D01*
X5775812Y-2622228D01*
X5778947Y-2598420D01*
X5775812Y-2574612D01*
X5766623Y-2552427D01*
X5752004Y-2533376D01*
X5732953Y-2518757D01*
X5710768Y-2509568D01*
X5686960Y-2506433D01*
D02*
G37*
G36*
X4642500Y-2548101D02*
X4610469Y-2552318D01*
X4580621Y-2564682D01*
X4554990Y-2584349D01*
X4535322Y-2609981D01*
X4522958Y-2639829D01*
X4518742Y-2671860D01*
X4522958Y-2703891D01*
X4535322Y-2733739D01*
X4554990Y-2759370D01*
X4580621Y-2779038D01*
X4610469Y-2791402D01*
X4642500Y-2795618D01*
X4674531Y-2791402D01*
X4704380Y-2779038D01*
X4730011Y-2759370D01*
X4749678Y-2733739D01*
X4762042Y-2703891D01*
X4766259Y-2671860D01*
X4762042Y-2639829D01*
X4749678Y-2609981D01*
X4730011Y-2584349D01*
X4704380Y-2564682D01*
X4674531Y-2552318D01*
X4642500Y-2548101D01*
D02*
G37*
G36*
X3612500D02*
X3580469Y-2552318D01*
X3550621Y-2564682D01*
X3524990Y-2584349D01*
X3505322Y-2609981D01*
X3492958Y-2639829D01*
X3488742Y-2671860D01*
X3492958Y-2703891D01*
X3505322Y-2733739D01*
X3524990Y-2759370D01*
X3550621Y-2779038D01*
X3580469Y-2791402D01*
X3612500Y-2795618D01*
X3644531Y-2791402D01*
X3674380Y-2779038D01*
X3700011Y-2759370D01*
X3719678Y-2733739D01*
X3732042Y-2703891D01*
X3736259Y-2671860D01*
X3732042Y-2639829D01*
X3719678Y-2609981D01*
X3700011Y-2584349D01*
X3674380Y-2564682D01*
X3644531Y-2552318D01*
X3612500Y-2548101D01*
D02*
G37*
G36*
X10261055Y-2504700D02*
X10226583D01*
X10192774Y-2511425D01*
X10160926Y-2524617D01*
X10132263Y-2543769D01*
X10107888Y-2568144D01*
X10088736Y-2596807D01*
X10075544Y-2628655D01*
X10068820Y-2662464D01*
Y-2696936D01*
X10075544Y-2730746D01*
X10088736Y-2762594D01*
X10107888Y-2791256D01*
X10132263Y-2815631D01*
X10160926Y-2834783D01*
X10192774Y-2847975D01*
X10226583Y-2854700D01*
X10261055D01*
X10294865Y-2847975D01*
X10326713Y-2834783D01*
X10355375Y-2815631D01*
X10379751Y-2791256D01*
X10398902Y-2762594D01*
X10412094Y-2730746D01*
X10418819Y-2696936D01*
Y-2662464D01*
X10412094Y-2628655D01*
X10398902Y-2596807D01*
X10379751Y-2568144D01*
X10355375Y-2543769D01*
X10326713Y-2524617D01*
X10294865Y-2511425D01*
X10261055Y-2504700D01*
D02*
G37*
%LPD*%
D12*
X8514080Y937260D02*
Y1996440D01*
X7647940Y4566920D02*
X8128000D01*
X8272780Y4422140D01*
X3469640Y4150360D02*
X5173980D01*
X3271520Y3952240D02*
X3469640Y4150360D01*
X3271520Y-347980D02*
Y3952240D01*
X9142800Y1995100D02*
X9633020D01*
X9761220Y1866900D01*
Y1559560D02*
Y1866900D01*
X8270240Y2489200D02*
X8514080Y2245360D01*
X8270240Y2827020D02*
X8272780Y2829560D01*
X8514080Y1996440D02*
Y2245360D01*
X8272780Y2829560D02*
Y4422140D01*
X8087360Y1564640D02*
X8501380Y1978660D01*
X9761220Y1559560D02*
X9766300Y1554480D01*
Y1348740D02*
Y1554480D01*
X8399780Y822960D02*
X8514080Y937260D01*
X8270240Y2489200D02*
Y2827020D01*
X8049260Y1564640D02*
X8087360D01*
X7551420Y1076960D02*
X7640320Y1165860D01*
X8059420Y-2098040D02*
X8128077Y-2029383D01*
X7386320Y-2098040D02*
X8059420D01*
X7383780Y-2100580D02*
X7386320Y-2098040D01*
X5521960Y1076960D02*
X7551420D01*
X4975860Y2733040D02*
X4978400Y2735580D01*
X4975860Y2319020D02*
Y2733040D01*
X4304961Y2217081D02*
Y3476921D01*
X4302760Y2214880D02*
X4304961Y2217081D01*
X4594860Y508000D02*
X4724400D01*
X4490720D02*
X4594860D01*
X4531360Y327660D02*
X4594860Y264160D01*
X4724400Y508000D02*
X5946140Y-713740D01*
X4594860Y264160D02*
X5692140Y-833120D01*
X6281420Y-787400D02*
X6588760Y-480060D01*
X6019800Y-787400D02*
X6281420D01*
X5946140Y-713740D02*
X6019800Y-787400D01*
X5689600Y-1932940D02*
X5692140Y-1930400D01*
Y-833120D01*
X5857240Y-2100580D02*
X7383780D01*
X5689600Y-1932940D02*
X5857240Y-2100580D01*
X5689600Y-2341788D02*
Y-1932940D01*
X5686960Y-2344428D02*
X5689600Y-2341788D01*
X4378960Y508000D02*
X4490720D01*
X4462780Y393700D02*
Y396240D01*
X4531360Y327660D01*
X4373880Y304800D02*
X4462780Y393700D01*
X4373880Y304800D02*
Y309880D01*
X4282440Y508000D02*
X4378960D01*
X4279900Y403860D02*
X4373880Y309880D01*
X3446780Y-523240D02*
X4157980D01*
X3271520Y-347980D02*
X3446780Y-523240D01*
X4252500Y-2691859D02*
X4544680Y-2399680D01*
Y-526400D01*
D13*
X7597140Y2545080D02*
X7599680Y2542540D01*
X7307580Y2334260D02*
X7518400Y2545080D01*
X7597140D01*
X7458330Y2346070D02*
X7820660Y1983740D01*
X5991860Y4267200D02*
X5993130Y4265930D01*
X5021580Y3375660D02*
Y3655060D01*
X5024120Y3657600D01*
X8206740Y4886960D02*
X8572500D01*
X5170170Y1202690D02*
X5770880Y601980D01*
X5170170Y1202690D02*
Y3451260D01*
X5405120Y4267200D02*
X5991860D01*
X5323840Y4185920D02*
X5405120Y4267200D01*
X5323840Y1503680D02*
Y4185920D01*
X6464300Y393700D02*
X6537046Y320954D01*
X6600546D01*
X6609080Y312420D01*
X5638800Y393700D02*
X6464300D01*
X4983136Y3151796D02*
Y3160724D01*
X4831080Y1201420D02*
X5638800Y393700D01*
X4831080Y1201420D02*
Y2999740D01*
X4983136Y3151796D01*
X8572500Y4886960D02*
X8699500Y4759960D01*
Y683260D02*
Y4759960D01*
X6637020Y601980D02*
X6708140Y530860D01*
Y5080D02*
Y530860D01*
X5770880Y601980D02*
X6637020D01*
X5476240Y1351280D02*
X6644640D01*
X5323840Y1503680D02*
X5476240Y1351280D01*
X8360030Y343790D02*
X8699500Y683260D01*
X7890130Y343790D02*
X8360030D01*
X7881620Y335280D02*
X7890130Y343790D01*
X8763631Y-386080D02*
X8783951Y-406400D01*
X8796020D01*
X7772400Y-386080D02*
X8763631D01*
X7228840Y157480D02*
Y299720D01*
Y157480D02*
X7772400Y-386080D01*
X9054885Y-327660D02*
X9103360Y-279185D01*
X7809739Y-327660D02*
X9054885D01*
X7380860Y101220D02*
Y108840D01*
Y101220D02*
X7809739Y-327660D01*
X7437120Y185420D02*
X7884160Y-261620D01*
X8865160D02*
X8872220Y-254560D01*
X7884160Y-261620D02*
X8865160D01*
X7328517Y188598D02*
X7331696Y185420D01*
X7437120D01*
X7734300Y-5080D02*
Y193040D01*
X8902499Y-181460D02*
X8906313Y-185274D01*
X8965355D01*
X7910680Y-181460D02*
X8902499D01*
X7734300Y-5080D02*
X7910680Y-181460D01*
X7152640Y10160D02*
Y381000D01*
X7548880Y-1303020D02*
Y-386080D01*
X7152640Y10160D02*
X7548880Y-386080D01*
Y-1303020D02*
X8341360Y-2095500D01*
X7477760Y-1879961D02*
Y-419100D01*
X7106920Y-1894840D02*
X7462881D01*
X7477760Y-1879961D01*
X7084060Y-25400D02*
X7477760Y-419100D01*
X6811467Y-1756867D02*
X7404660D01*
X7084060Y-25400D02*
Y495300D01*
X7322820Y-1574800D02*
Y-358140D01*
X7015480Y-50800D02*
X7322820Y-358140D01*
X7015480Y-50800D02*
Y579529D01*
X5021580Y3375660D02*
X5100320Y3296920D01*
X4709160Y3510280D02*
X4833281Y3634401D01*
X4709160Y1109980D02*
Y3510280D01*
Y1109980D02*
X5506720Y312420D01*
X5100320Y1102360D02*
X5712460Y490220D01*
X5100320Y1102360D02*
Y3296920D01*
X8920480Y1546860D02*
X9050020Y1676400D01*
X9438640D01*
X8920480Y642620D02*
Y1546860D01*
X8445500Y167640D02*
X8920480Y642620D01*
X7993380Y167640D02*
X8445500D01*
X7216140Y-1074420D02*
Y-396240D01*
Y-1074420D02*
X7223760Y-1082040D01*
X5506720Y312420D02*
X6261100D01*
X3807460Y-368300D02*
X4135120D01*
X4140200Y-373380D01*
X6720840Y-1666240D02*
X6811467Y-1756867D01*
X7942580Y248920D02*
X8392160D01*
X8590280Y447040D02*
X8590280D01*
X8392160Y248920D02*
X8590280Y447040D01*
X8590280D02*
X8813800Y670560D01*
Y1155700D01*
X7947660Y-60960D02*
X8333740D01*
X9014460Y619760D01*
X7381240Y429260D02*
X7622540D01*
X8006080Y45720D01*
X7820660Y655320D02*
Y1983740D01*
X7581520Y2326260D02*
X7914640Y1993139D01*
Y617220D02*
Y1993139D01*
X7307580Y2098040D02*
Y2334260D01*
X6916980Y1707440D02*
X7307580Y2098040D01*
X6916980Y1308100D02*
Y1707440D01*
X7277100Y1247140D02*
Y1366520D01*
X6997700Y1645920D02*
X7277100Y1366520D01*
X7110374Y1726286D02*
X7277100Y1559560D01*
X7110374Y1726286D02*
Y1756766D01*
X7101840Y1765300D02*
X7110374Y1756766D01*
X7236460Y-1661160D02*
X7322820Y-1574800D01*
X6781241Y-58979D02*
Y758901D01*
X6182360Y-657860D02*
X6781241Y-58979D01*
X6720840Y-1666240D02*
Y-525780D01*
X6863080Y-383540D02*
Y596900D01*
X6720840Y-525780D02*
X6863080Y-383540D01*
X6948170Y-394970D02*
Y638810D01*
X6845300Y-497840D02*
X6948170Y-394970D01*
X6845300Y-1640840D02*
Y-497840D01*
X7096760Y-1310640D02*
Y-458819D01*
Y-1310640D02*
X7099300Y-1313180D01*
X6987540Y-1186180D02*
Y-523240D01*
X9014460Y619760D02*
Y1087120D01*
X9105900Y1178560D01*
X9431020D01*
X7051040Y741680D02*
X7359011D01*
X6948170Y638810D02*
X7051040Y741680D01*
X7379331Y721360D02*
X7391400D01*
X7359011Y741680D02*
X7379331Y721360D01*
X6781241Y758901D02*
X6789420Y767080D01*
X7015480Y579529D02*
X7083856Y647904D01*
X7378700Y1330960D02*
Y1765300D01*
X7264400Y1879600D02*
X7378700Y1765300D01*
X7152640Y381000D02*
X7206360Y434720D01*
X7254620D02*
X7256780Y436880D01*
X7206360Y434720D02*
X7254620D01*
X7084060Y495300D02*
X7166966Y578206D01*
Y601066D01*
X5712460Y490220D02*
X6552687D01*
X6615931Y426976D01*
D62*
X10058400Y-464820D02*
Y-96520D01*
X9964420Y-558800D02*
X10058400Y-464820D01*
X10066020Y-1585292D02*
Y-1579880D01*
X10055860Y-1595452D02*
X10066020Y-1585292D01*
X10055860Y-1943651D02*
Y-1595452D01*
X8238410Y-558800D02*
X9964420D01*
X8202850Y-523240D02*
X8238410Y-558800D01*
X8021320Y-1595120D02*
X8295710Y-1869510D01*
X10055860Y-1943651D02*
X10059394Y-1947186D01*
X10055860Y-1950720D02*
X10059394Y-1947186D01*
X9923780Y-2082800D02*
X10055860Y-1950720D01*
X8290630Y-1869510D02*
X8295710D01*
X8290630D02*
X8503920Y-2082800D01*
X9923780D01*
X8195293Y-527067D02*
X8199120Y-523240D01*
X8202850D01*
X8108933Y-527067D02*
X8195293D01*
X8021320Y-614680D02*
X8108933Y-527067D01*
X8021320Y-1595120D02*
Y-614680D01*
D65*
X5686960Y-2344428D02*
D03*
Y-2852420D02*
D03*
Y-2598420D02*
D03*
D66*
X2887980Y-2870200D02*
D03*
X3268980Y5699760D02*
D03*
X10887980Y-2870200D02*
D03*
X10637520Y5699760D02*
D03*
D67*
X4002500Y-2816860D02*
D03*
X4127500D02*
D03*
X4252500Y-2816860D02*
D03*
X10906760Y-1714500D02*
D03*
X10783359Y-134780D02*
D03*
X10908360D02*
D03*
X10906760Y-1839500D02*
D03*
Y-1589500D02*
D03*
X10781760Y-1839500D02*
D03*
X10781760Y-1714500D02*
D03*
X4127500Y-2691860D02*
D03*
X4002500D02*
D03*
X10783359Y-259780D02*
D03*
X10908360D02*
D03*
Y-9780D02*
D03*
D68*
X6390640Y5204460D02*
D03*
X6898640D02*
D03*
Y5712460D02*
D03*
X6390640D02*
D03*
D69*
X6644640Y5458460D02*
D03*
D70*
X10761760Y-2229500D02*
D03*
X10761760Y-1199500D02*
D03*
X4642500Y-2671860D02*
D03*
X3612500D02*
D03*
X10763360Y380220D02*
D03*
X10763360Y-649780D02*
D03*
D71*
X10781760Y-1589500D02*
D03*
X10783359Y-9780D02*
D03*
D72*
X4252500Y-2691859D02*
D03*
D73*
X7597140Y2545080D02*
D03*
X7457440Y2346960D02*
D03*
X7521360Y2952184D02*
D03*
X5993130Y4265930D02*
D03*
X4833281Y3634401D02*
D03*
X5024120Y3657600D02*
D03*
X6728460Y5102860D02*
D03*
X6723380Y5270500D02*
D03*
X6581140Y5146040D02*
D03*
Y5250180D02*
D03*
X11199999Y5138239D02*
D03*
Y4338239D02*
D03*
Y3538239D02*
D03*
Y2738239D02*
D03*
Y1938239D02*
D03*
Y1138239D02*
D03*
Y338239D02*
D03*
Y-461761D02*
D03*
Y-1261760D02*
D03*
Y-2061760D02*
D03*
X10999999Y5538239D02*
D03*
X10799999Y5138239D02*
D03*
X10999999Y4738239D02*
D03*
X10799999Y4338239D02*
D03*
X10999999Y3938239D02*
D03*
X10799999Y3538239D02*
D03*
X10999999Y3138239D02*
D03*
X10799999Y2738239D02*
D03*
X10999999Y2338239D02*
D03*
X10799999Y1938239D02*
D03*
X10999999Y1538239D02*
D03*
X10799999Y1138239D02*
D03*
X10999999Y738239D02*
D03*
Y-861761D02*
D03*
Y-2461760D02*
D03*
X10399999Y5138239D02*
D03*
X10599999Y4738239D02*
D03*
X10399999Y4338239D02*
D03*
X10599999Y3938239D02*
D03*
X10399999Y3538239D02*
D03*
X10599999Y3138239D02*
D03*
X10399999Y2738239D02*
D03*
X10599999Y2338239D02*
D03*
X10399999Y1938239D02*
D03*
X10599999Y1538239D02*
D03*
X10399999Y1138239D02*
D03*
X10599999Y738239D02*
D03*
X10399999Y-1261760D02*
D03*
Y-2061760D02*
D03*
X9999999Y5938239D02*
D03*
X10199999Y5538239D02*
D03*
X9999999Y5138239D02*
D03*
X10199999Y4738239D02*
D03*
X9999999Y4338239D02*
D03*
X10199999Y3938239D02*
D03*
X9999999Y3538239D02*
D03*
X10199999Y3138239D02*
D03*
X9999999Y2738239D02*
D03*
X10199999Y2338239D02*
D03*
X9999999Y1938239D02*
D03*
X10199999Y1538239D02*
D03*
X9999999Y1138239D02*
D03*
X10199999Y738239D02*
D03*
Y-861761D02*
D03*
X9999999Y-1261760D02*
D03*
X9599999Y5938239D02*
D03*
X9799999Y5538239D02*
D03*
X9599999Y5138239D02*
D03*
X9799999Y4738239D02*
D03*
X9599999Y4338239D02*
D03*
X9799999Y3938239D02*
D03*
X9599999Y3538239D02*
D03*
X9799999Y3138239D02*
D03*
X9599999Y2738239D02*
D03*
X9799999Y2338239D02*
D03*
Y738239D02*
D03*
Y-861761D02*
D03*
X9599999Y-1261760D02*
D03*
X9799999Y-2461760D02*
D03*
X9599999Y-2861760D02*
D03*
X9199999Y5938239D02*
D03*
X9399999Y5538239D02*
D03*
X9199999Y5138239D02*
D03*
X9399999Y4738239D02*
D03*
X9199999Y4338239D02*
D03*
X9399999Y3938239D02*
D03*
X9199999Y3538239D02*
D03*
X9399999Y3138239D02*
D03*
X9199999Y2738239D02*
D03*
X9399999Y2338239D02*
D03*
Y738239D02*
D03*
X9199999Y338239D02*
D03*
X9399999Y-861761D02*
D03*
Y-2461760D02*
D03*
X9199999Y-2861760D02*
D03*
X8799999Y5938239D02*
D03*
X8999999Y5538239D02*
D03*
X8799999Y5138239D02*
D03*
X8999999Y4738239D02*
D03*
Y3938239D02*
D03*
Y3138239D02*
D03*
Y2338239D02*
D03*
Y-2461760D02*
D03*
X8799999Y-2861760D02*
D03*
X8399999Y5938239D02*
D03*
X8599999Y5538239D02*
D03*
X8399999Y5138239D02*
D03*
X8599999Y-2461760D02*
D03*
X7999999Y5938239D02*
D03*
X8199999Y5538239D02*
D03*
X7999999Y5138239D02*
D03*
X7599999Y5938239D02*
D03*
X7799999Y5538239D02*
D03*
X7599999Y5138239D02*
D03*
X7199999Y5938239D02*
D03*
X7399999Y5538239D02*
D03*
X7199999Y-2861760D02*
D03*
X6799999D02*
D03*
X5999999Y5938239D02*
D03*
Y5138239D02*
D03*
X6199999Y4738239D02*
D03*
X5999999Y-2861760D02*
D03*
X5599999Y5938239D02*
D03*
X5799999Y5538239D02*
D03*
X5599999Y5138239D02*
D03*
X5799999Y4738239D02*
D03*
X5200000Y5938239D02*
D03*
X5399999Y5538239D02*
D03*
X5200000Y5138239D02*
D03*
X5399999Y4738239D02*
D03*
X5200000Y-1261760D02*
D03*
X5399999Y-1661760D02*
D03*
X5200000Y-2061760D02*
D03*
X5399999Y-2461760D02*
D03*
X5200000Y-2861760D02*
D03*
X4800000Y5938239D02*
D03*
X4999999Y5538239D02*
D03*
X4800000Y5138239D02*
D03*
X4999999Y4738239D02*
D03*
X4800000Y-461761D02*
D03*
X4999999Y-1661760D02*
D03*
X4800000Y-2061760D02*
D03*
X4999999Y-2461760D02*
D03*
X4400000Y5938239D02*
D03*
X4599999Y5538239D02*
D03*
X4400000Y5138239D02*
D03*
X4599999Y4738239D02*
D03*
X4000000Y5938239D02*
D03*
X4199999Y5538239D02*
D03*
X4000000Y5138239D02*
D03*
X4199999Y4738239D02*
D03*
X4000000Y3538239D02*
D03*
Y2738239D02*
D03*
Y1938239D02*
D03*
X3600000Y5938239D02*
D03*
X3800000Y5538239D02*
D03*
X3600000Y5138239D02*
D03*
X3800000Y4738239D02*
D03*
X3600000Y3538239D02*
D03*
X3800000Y3138239D02*
D03*
X3600000Y2738239D02*
D03*
X3800000Y2338239D02*
D03*
X3600000Y1938239D02*
D03*
X3800000Y1538239D02*
D03*
X3600000Y-1261760D02*
D03*
Y-2061760D02*
D03*
X3200000Y5138239D02*
D03*
X3400000Y4738239D02*
D03*
X3200000Y4338239D02*
D03*
Y-1261760D02*
D03*
X3400000Y-1661760D02*
D03*
X3200000Y-2061760D02*
D03*
X2800000Y5938239D02*
D03*
Y5138239D02*
D03*
X3000000Y4738239D02*
D03*
X2800000Y4338239D02*
D03*
X3000000Y3938239D02*
D03*
X2800000Y3538239D02*
D03*
X3000000Y3138239D02*
D03*
X2800000Y2738239D02*
D03*
X3000000Y2338239D02*
D03*
X2800000Y1938239D02*
D03*
X3000000Y1538239D02*
D03*
Y738239D02*
D03*
X2800000Y338239D02*
D03*
X3000000Y-61761D02*
D03*
X2800000Y-461761D02*
D03*
X3000000Y-861761D02*
D03*
X2800000Y-1261760D02*
D03*
X3000000Y-1661760D02*
D03*
X2800000Y-2061760D02*
D03*
X3000000Y-2461760D02*
D03*
X2600000Y5538239D02*
D03*
Y4738239D02*
D03*
Y3938239D02*
D03*
Y3138239D02*
D03*
Y2338239D02*
D03*
Y1538239D02*
D03*
Y738239D02*
D03*
Y-61761D02*
D03*
Y-861761D02*
D03*
Y-1661760D02*
D03*
Y-2461760D02*
D03*
X5613133Y3040826D02*
D03*
X5580535Y2946288D02*
D03*
X5587851Y2846556D02*
D03*
X5676808Y2800876D02*
D03*
X5776550Y2808053D02*
D03*
X5876346Y2801669D02*
D03*
X6168910Y2840793D02*
D03*
X6265086Y2813402D02*
D03*
X6365086D02*
D03*
X6464694Y2822246D02*
D03*
X6565900Y2809240D02*
D03*
X6664578Y2817430D02*
D03*
X6819900Y2791460D02*
D03*
X6753860Y2522220D02*
D03*
X6858000Y2532380D02*
D03*
X6949440Y2537460D02*
D03*
X7301019Y2492286D02*
D03*
X7362419Y2571217D02*
D03*
X7400865Y2663531D02*
D03*
X7432896Y2758262D02*
D03*
X7489817Y3047079D02*
D03*
X7589817D02*
D03*
X7345195Y3203327D02*
D03*
X7282481Y3125436D02*
D03*
X7217533Y3049399D02*
D03*
X7119118Y3031662D02*
D03*
X7055699Y2742338D02*
D03*
X6986582Y3014928D02*
D03*
X6887621Y3000556D02*
D03*
X6688742Y2999822D02*
D03*
X6621758Y3074072D02*
D03*
X6421573Y3000098D02*
D03*
X6356528Y3076053D02*
D03*
X6154171Y3105297D02*
D03*
X6141165Y3006146D02*
D03*
X6042707Y3023645D02*
D03*
X5948170Y2991047D02*
D03*
X5857696Y3033645D02*
D03*
X5764647Y3070276D02*
D03*
X5793445Y3166040D02*
D03*
X6886077Y3695427D02*
D03*
X6975384Y3650435D02*
D03*
X7075145Y3657342D02*
D03*
X7174724Y3648166D02*
D03*
X7132775Y3557390D02*
D03*
X7138403Y3457548D02*
D03*
X7134526Y3357623D02*
D03*
X7212114Y3294535D02*
D03*
X7312018Y3298928D02*
D03*
X7421095Y3535546D02*
D03*
X7520995Y3531089D02*
D03*
X7620779Y3537665D02*
D03*
X7658890Y3630118D02*
D03*
X7658809Y3968170D02*
D03*
X7582764Y4033110D02*
D03*
X7482764D02*
D03*
X7384599Y4014042D02*
D03*
X7285020Y4023205D02*
D03*
X7198912Y3972358D02*
D03*
X7153616Y3883205D02*
D03*
X7054345Y3871151D02*
D03*
X6961814Y3909074D02*
D03*
X6593025Y3938524D02*
D03*
X6493270Y3931534D02*
D03*
X6393555Y3939084D02*
D03*
X6294892Y3922790D02*
D03*
X6196228Y3939085D02*
D03*
X6096228D02*
D03*
X5997067Y3926161D02*
D03*
X5700842Y3939085D02*
D03*
X5784079Y3741489D02*
D03*
X5880859Y3716315D02*
D03*
X5979228Y3734300D02*
D03*
X6075232Y3706315D02*
D03*
X6175218Y3708006D02*
D03*
X6275133Y3712128D02*
D03*
X6374964Y3706315D02*
D03*
X6474221Y3718482D02*
D03*
X6573479Y3706315D02*
D03*
X6662118Y3752608D02*
D03*
X6742519Y3812070D02*
D03*
X6552789Y5012273D02*
D03*
Y4912273D02*
D03*
X6564516Y4812963D02*
D03*
X6552310Y4713711D02*
D03*
Y4613711D02*
D03*
X6595372Y4421824D02*
D03*
X6740892Y4584961D02*
D03*
X6751512Y4684396D02*
D03*
Y4784396D02*
D03*
X6788707Y4877221D02*
D03*
X8206740Y4886960D02*
D03*
X7647940Y4566920D02*
D03*
X5173980Y4150360D02*
D03*
X4978400Y2735580D02*
D03*
X8514080Y1996440D02*
D03*
X9142800Y1995100D02*
D03*
X9761220Y1559560D02*
D03*
X9766300Y1348740D02*
D03*
X8519160Y1290320D02*
D03*
X8399780Y822960D02*
D03*
X8272780Y2829560D02*
D03*
X8049260Y1564640D02*
D03*
X7640320Y1165860D02*
D03*
X10058400Y-96520D02*
D03*
X10066020Y-1579880D02*
D03*
X9964420Y-558800D02*
D03*
X10055860Y-1950720D02*
D03*
X8290630Y-1869510D02*
D03*
X8199120Y-523240D02*
D03*
X7769190Y-502250D02*
D03*
X8128077Y-2029383D02*
D03*
X7386320Y-2098040D02*
D03*
X6278880Y2319020D02*
D03*
X6436360D02*
D03*
X5913120D02*
D03*
X6085840D02*
D03*
X5521960Y1076960D02*
D03*
X4975860Y2319020D02*
D03*
X4304961Y3476921D02*
D03*
X4572000Y1046480D02*
D03*
X4511040Y980440D02*
D03*
X4592320Y840740D02*
D03*
X4455160Y924560D02*
D03*
X4302760Y2214880D02*
D03*
X4442460Y833120D02*
D03*
X4302760Y980440D02*
D03*
X4594860Y508000D02*
D03*
Y264160D02*
D03*
X6588760Y-480060D02*
D03*
X5946140Y-713740D02*
D03*
X5689600Y-1932940D02*
D03*
X4589780Y736600D02*
D03*
X4442825D02*
D03*
X4582160Y629920D02*
D03*
X4302760Y825500D02*
D03*
Y721360D02*
D03*
X4386580Y612140D02*
D03*
X4264660D02*
D03*
X4490720Y508000D02*
D03*
X4462780Y396240D02*
D03*
X4282440Y508000D02*
D03*
X4378960D02*
D03*
X4531360Y327660D02*
D03*
X4373880Y304800D02*
D03*
X4183380Y408940D02*
D03*
X4279900Y403860D02*
D03*
X6609080Y312420D02*
D03*
X4983136Y3160724D02*
D03*
X6484620Y-1188720D02*
D03*
X6593840Y-812800D02*
D03*
X5049520Y464820D02*
D03*
X6243320Y203200D02*
D03*
X6629400Y759460D02*
D03*
X8615680Y-76200D02*
D03*
X9232900Y-1935480D02*
D03*
X8107680Y1112520D02*
D03*
X8188960Y2382520D02*
D03*
X7828280Y2258060D02*
D03*
X6360160Y1427480D02*
D03*
X5971540Y1214120D02*
D03*
X3500120Y457200D02*
D03*
X3568700Y855980D02*
D03*
X3495040Y-713740D02*
D03*
X4899660Y-1069340D02*
D03*
X4856480Y-1300480D02*
D03*
X4607560Y2979420D02*
D03*
X4636060Y3647440D02*
D03*
X7797800Y-693420D02*
D03*
X6708140Y5080D02*
D03*
X5170170Y3451260D02*
D03*
X6644640Y1351280D02*
D03*
X7881620Y335280D02*
D03*
X7228840Y299720D02*
D03*
X8796020Y-406400D02*
D03*
X9103360Y-279185D02*
D03*
X7380860Y108840D02*
D03*
X8872220Y-254560D02*
D03*
X7328517Y188598D02*
D03*
X7734300Y193040D02*
D03*
X8965355Y-185274D02*
D03*
X7404660Y-1756867D02*
D03*
X9438640Y1676400D02*
D03*
X7993380Y167640D02*
D03*
X7223760Y-1082040D02*
D03*
X4157980Y-523240D02*
D03*
X4140200Y-373380D02*
D03*
X3807460Y-368300D02*
D03*
X7216140Y-396240D02*
D03*
X4544680Y-526400D02*
D03*
X6261100Y312420D02*
D03*
X7947660Y-60960D02*
D03*
X8006080Y45720D02*
D03*
X7581520Y2326260D02*
D03*
X7096760Y-457200D02*
D03*
X6987540Y-1186180D02*
D03*
X7099300Y-1313180D02*
D03*
X6863080Y596900D02*
D03*
X9431020Y1178560D02*
D03*
X7391400Y721360D02*
D03*
X6845300Y-1640840D02*
D03*
X6789420Y767080D02*
D03*
X6182360Y-657860D02*
D03*
X7914640Y617220D02*
D03*
X7942580Y248920D02*
D03*
X8813800Y1155700D02*
D03*
X7101840Y1765300D02*
D03*
X7277100Y1559560D02*
D03*
X7083856Y647904D02*
D03*
X7236460Y-1661160D02*
D03*
X7264400Y1879600D02*
D03*
X7378700Y1330960D02*
D03*
X7256780Y436880D02*
D03*
X8341360Y-2095500D02*
D03*
X7820660Y655320D02*
D03*
X7166966Y601066D02*
D03*
X7106920Y-1894840D02*
D03*
X6615931Y426976D02*
D03*
X7381240Y429260D02*
D03*
X6987540Y-523240D02*
D03*
X6997700Y1645920D02*
D03*
X7277100Y1247140D02*
D03*
X6913880Y1308100D02*
D03*
D74*
X7043120Y2162040D02*
D03*
Y2272041D02*
D03*
X7153120Y2272040D02*
D03*
Y2162041D02*
D03*
D75*
X10243819Y-2679700D02*
D03*
%TF.MD5,a5c9553ba275025f255eb154226ca30a*%
M02*
