%TF.GenerationSoftware,Altium Limited,Altium Designer,25.8.1 (18)*%
G04 Layer_Color=32896*
%FSLAX45Y45*%
%MOMM*%
%TF.SameCoordinates,8D7D6CBC-1C92-4AEA-9EFE-506313E8E312*%
%TF.FilePolarity,Positive*%
%TF.FileFunction,Legend,Bot*%
%TF.Part,Single*%
G01*
G75*
%TA.AperFunction,NonConductor*%
%ADD78C,0.20000*%
%ADD82C,0.15000*%
G36*
X7525130Y-2664749D02*
X7515299Y-2667914D01*
X7514133Y-2668581D01*
X7513633Y-2669414D01*
X7513300Y-2670247D01*
Y-2670414D01*
Y-2670580D01*
Y-2672746D01*
X7513133Y-2674913D01*
Y-2677079D01*
Y-2679245D01*
Y-2681078D01*
Y-2682577D01*
Y-2683577D01*
Y-2683744D01*
Y-2683910D01*
Y-2748727D01*
Y-2752060D01*
Y-2755059D01*
Y-2757891D01*
Y-2760057D01*
X7513300Y-2762057D01*
Y-2763390D01*
Y-2764223D01*
Y-2764556D01*
X7513466Y-2765223D01*
X7513633Y-2765723D01*
X7514466Y-2766556D01*
X7515133Y-2766889D01*
X7515299Y-2767056D01*
X7515466D01*
X7525297Y-2769888D01*
X7525130Y-2773387D01*
X7521298D01*
X7517632Y-2773221D01*
X7492138D01*
X7489639Y-2773387D01*
X7486140D01*
X7486473Y-2769888D01*
X7495304Y-2767222D01*
X7495971Y-2766889D01*
X7496471Y-2766556D01*
X7496971Y-2765556D01*
X7497304Y-2764723D01*
Y-2764556D01*
Y-2764390D01*
Y-2761890D01*
X7497470Y-2759224D01*
Y-2756725D01*
Y-2754226D01*
Y-2752060D01*
Y-2750227D01*
Y-2749560D01*
Y-2749060D01*
Y-2748894D01*
Y-2748727D01*
Y-2717902D01*
X7439319D01*
Y-2748727D01*
Y-2752060D01*
Y-2755059D01*
Y-2757725D01*
Y-2760057D01*
X7439485Y-2761890D01*
Y-2763223D01*
Y-2764056D01*
Y-2764390D01*
Y-2765056D01*
X7439818Y-2765723D01*
X7440485Y-2766556D01*
X7441151Y-2767056D01*
X7441318Y-2767222D01*
X7441485D01*
X7450649Y-2769888D01*
X7450316Y-2773387D01*
X7446817D01*
X7443484Y-2773221D01*
X7417991D01*
X7415325Y-2773387D01*
X7411492D01*
X7411659Y-2769888D01*
X7421323Y-2767056D01*
X7421990Y-2766722D01*
X7422490Y-2766389D01*
X7423156Y-2765556D01*
X7423489Y-2764890D01*
Y-2764556D01*
Y-2762057D01*
X7423656Y-2759391D01*
Y-2756725D01*
Y-2754226D01*
Y-2752060D01*
Y-2750227D01*
Y-2749560D01*
Y-2749060D01*
Y-2748894D01*
Y-2748727D01*
Y-2683910D01*
Y-2681078D01*
Y-2678412D01*
Y-2676246D01*
X7423489Y-2674246D01*
Y-2672746D01*
Y-2671580D01*
Y-2670747D01*
Y-2670580D01*
X7423156Y-2669247D01*
X7422490Y-2668414D01*
X7421823Y-2668081D01*
X7421490Y-2667914D01*
X7411492Y-2664749D01*
X7411826Y-2661249D01*
X7415491Y-2661416D01*
X7422323D01*
X7425322Y-2661583D01*
X7438319D01*
X7441651Y-2661416D01*
X7446983D01*
X7448150Y-2661249D01*
X7450649D01*
X7450482Y-2664749D01*
X7441485Y-2667581D01*
X7440818Y-2667748D01*
X7440318Y-2668248D01*
X7439652Y-2669081D01*
X7439485Y-2669747D01*
Y-2669914D01*
Y-2670081D01*
Y-2672247D01*
X7439319Y-2674579D01*
Y-2676912D01*
Y-2679078D01*
Y-2680911D01*
Y-2682244D01*
Y-2683244D01*
Y-2683410D01*
Y-2683577D01*
Y-2710570D01*
X7497470D01*
Y-2683577D01*
Y-2680744D01*
Y-2678245D01*
Y-2675912D01*
X7497304Y-2673913D01*
Y-2672247D01*
Y-2671080D01*
Y-2670414D01*
Y-2670081D01*
X7497137Y-2669414D01*
X7496971Y-2668914D01*
X7496304Y-2668081D01*
X7495638Y-2667748D01*
X7495304Y-2667581D01*
X7486140Y-2664749D01*
X7486640Y-2661249D01*
X7490139Y-2661416D01*
X7496637D01*
X7499470Y-2661583D01*
X7512633D01*
X7515966Y-2661416D01*
X7521631D01*
X7522631Y-2661249D01*
X7525297D01*
X7525130Y-2664749D01*
D02*
G37*
G36*
X7395497D02*
X7385666Y-2667914D01*
X7384499Y-2668581D01*
X7383999Y-2669414D01*
X7383666Y-2670247D01*
Y-2670414D01*
Y-2670580D01*
Y-2672580D01*
Y-2674579D01*
Y-2675412D01*
Y-2676079D01*
Y-2676412D01*
Y-2676579D01*
X7383500Y-2679078D01*
Y-2681411D01*
Y-2682411D01*
Y-2683244D01*
Y-2683744D01*
Y-2683910D01*
Y-2748727D01*
Y-2752060D01*
Y-2753559D01*
Y-2754726D01*
X7383666Y-2755892D01*
Y-2756725D01*
Y-2757225D01*
Y-2757391D01*
Y-2760224D01*
Y-2761390D01*
Y-2762390D01*
Y-2763390D01*
Y-2764056D01*
Y-2764390D01*
Y-2764556D01*
X7383833Y-2765223D01*
X7383999Y-2765723D01*
X7384833Y-2766556D01*
X7385499Y-2766889D01*
X7385666Y-2767056D01*
X7385832D01*
X7395663Y-2769888D01*
X7395497Y-2773387D01*
X7391664D01*
X7388165Y-2773221D01*
X7329847D01*
X7327181Y-2773387D01*
X7317183D01*
X7316683Y-2773054D01*
X7315017Y-2744228D01*
X7318516Y-2744895D01*
X7328847Y-2766056D01*
X7367837D01*
Y-2762890D01*
Y-2759724D01*
Y-2756725D01*
Y-2754059D01*
Y-2751893D01*
Y-2750060D01*
Y-2749394D01*
Y-2748894D01*
Y-2748727D01*
Y-2748560D01*
Y-2683577D01*
Y-2683410D01*
Y-2682911D01*
Y-2682077D01*
Y-2681078D01*
Y-2680078D01*
Y-2679245D01*
Y-2678578D01*
Y-2678412D01*
Y-2676579D01*
Y-2674913D01*
Y-2673413D01*
Y-2672247D01*
Y-2671414D01*
Y-2670747D01*
Y-2670414D01*
Y-2670247D01*
X7367670Y-2669581D01*
X7367504Y-2669081D01*
X7366671Y-2668248D01*
X7366004Y-2667914D01*
X7365671Y-2667748D01*
X7355840Y-2664749D01*
X7356007Y-2661249D01*
X7359839Y-2661416D01*
X7366837D01*
X7369836Y-2661583D01*
X7383000D01*
X7386332Y-2661416D01*
X7391997D01*
X7392997Y-2661249D01*
X7395663D01*
X7395497Y-2664749D01*
D02*
G37*
G36*
X7172720D02*
X7162889Y-2667914D01*
X7161723Y-2668581D01*
X7161223Y-2669414D01*
X7160890Y-2670247D01*
Y-2670414D01*
Y-2670580D01*
Y-2672580D01*
Y-2674579D01*
Y-2675412D01*
Y-2676079D01*
Y-2676412D01*
Y-2676579D01*
X7160723Y-2679078D01*
Y-2681411D01*
Y-2682411D01*
Y-2683244D01*
Y-2683744D01*
Y-2683910D01*
Y-2748727D01*
Y-2752060D01*
Y-2753559D01*
Y-2754726D01*
X7160890Y-2755892D01*
Y-2756725D01*
Y-2757225D01*
Y-2757391D01*
Y-2760224D01*
Y-2761390D01*
Y-2762390D01*
Y-2763390D01*
Y-2764056D01*
Y-2764390D01*
Y-2764556D01*
X7161057Y-2765223D01*
X7161223Y-2765723D01*
X7162056Y-2766556D01*
X7162723Y-2766889D01*
X7162889Y-2767056D01*
X7163056D01*
X7172887Y-2769888D01*
X7172720Y-2773387D01*
X7168888D01*
X7165389Y-2773221D01*
X7139729D01*
X7137229Y-2773387D01*
X7133730D01*
X7134063Y-2769888D01*
X7142895Y-2767222D01*
X7143561Y-2766889D01*
X7144061Y-2766556D01*
X7144727Y-2765556D01*
X7145061Y-2764723D01*
Y-2764556D01*
Y-2764390D01*
Y-2761890D01*
Y-2759724D01*
Y-2758724D01*
Y-2758058D01*
Y-2757558D01*
Y-2757391D01*
Y-2754392D01*
Y-2752893D01*
Y-2751560D01*
Y-2750393D01*
Y-2749560D01*
Y-2748894D01*
Y-2748727D01*
Y-2683577D01*
Y-2680911D01*
Y-2679578D01*
Y-2678578D01*
Y-2677745D01*
Y-2676912D01*
Y-2676579D01*
Y-2676412D01*
Y-2673913D01*
Y-2671913D01*
Y-2671080D01*
Y-2670580D01*
Y-2670247D01*
Y-2670081D01*
X7144894Y-2669414D01*
X7144727Y-2668914D01*
X7143894Y-2668081D01*
X7143228Y-2667748D01*
X7142895Y-2667581D01*
X7133730Y-2664749D01*
X7134230Y-2661249D01*
X7137729Y-2661416D01*
X7144228D01*
X7147060Y-2661583D01*
X7160223D01*
X7163556Y-2661416D01*
X7169221D01*
X7170221Y-2661249D01*
X7172887D01*
X7172720Y-2664749D01*
D02*
G37*
G36*
X7111069Y-2664915D02*
X7104571Y-2666748D01*
X7103905Y-2666915D01*
X7103238Y-2667248D01*
X7102738Y-2668081D01*
X7102405Y-2668581D01*
Y-2668914D01*
X7102572Y-2669581D01*
X7102738Y-2670414D01*
X7103571Y-2672080D01*
X7104071Y-2672746D01*
X7104404Y-2673246D01*
X7104571Y-2673580D01*
X7104738Y-2673746D01*
X7106737Y-2676079D01*
X7108737Y-2678245D01*
X7109570Y-2679245D01*
X7110236Y-2680078D01*
X7110736Y-2680578D01*
X7110903Y-2680744D01*
X7143061Y-2716735D01*
X7116568Y-2751726D01*
X7114402Y-2754559D01*
X7112402Y-2757225D01*
X7110736Y-2759724D01*
X7109236Y-2761890D01*
X7107737Y-2763890D01*
X7106570Y-2765556D01*
X7105571Y-2767222D01*
X7104571Y-2768555D01*
X7103905Y-2769722D01*
X7103238Y-2770721D01*
X7102738Y-2771555D01*
X7102405Y-2772221D01*
X7101905Y-2773054D01*
X7101738Y-2773387D01*
X7099739Y-2773221D01*
X7078244D01*
X7076245Y-2773387D01*
X7073579D01*
X7073746Y-2769888D01*
X7081077Y-2767722D01*
X7083576Y-2766889D01*
X7084576Y-2766389D01*
X7085409Y-2765889D01*
X7086076Y-2765556D01*
X7086576Y-2765223D01*
X7086742Y-2764890D01*
X7086909D01*
X7088575Y-2763223D01*
X7089908Y-2761557D01*
X7090575Y-2760891D01*
X7091074Y-2760391D01*
X7091241Y-2760057D01*
X7091408Y-2759891D01*
X7127898Y-2712070D01*
X7095907Y-2676912D01*
X7093740Y-2674579D01*
X7091908Y-2672746D01*
X7091241Y-2672080D01*
X7090741Y-2671580D01*
X7090408Y-2671247D01*
X7090241Y-2671080D01*
X7088075Y-2669414D01*
X7085909Y-2668248D01*
X7085076Y-2667914D01*
X7084410Y-2667581D01*
X7083910Y-2667415D01*
X7083743D01*
X7075745Y-2664749D01*
X7076078Y-2661249D01*
X7082243Y-2661416D01*
X7085243D01*
X7087909Y-2661583D01*
X7100405D01*
X7103405Y-2661416D01*
X7108237D01*
X7109903Y-2661249D01*
X7111236D01*
X7111069Y-2664915D01*
D02*
G37*
G36*
X6940113Y-2664749D02*
X6930282Y-2667915D01*
X6929116Y-2668581D01*
X6928616Y-2669414D01*
X6928283Y-2670247D01*
Y-2670414D01*
Y-2670581D01*
Y-2672747D01*
X6928116Y-2674913D01*
Y-2677079D01*
Y-2679245D01*
Y-2681078D01*
Y-2682578D01*
Y-2683577D01*
Y-2683744D01*
Y-2683911D01*
Y-2748727D01*
Y-2752060D01*
Y-2755059D01*
Y-2757892D01*
Y-2760058D01*
X6928283Y-2762057D01*
Y-2763390D01*
Y-2764223D01*
Y-2764557D01*
X6928449Y-2765223D01*
X6928616Y-2765723D01*
X6929449Y-2766556D01*
X6930116Y-2766889D01*
X6930282Y-2767056D01*
X6930449D01*
X6940280Y-2769889D01*
X6940113Y-2773388D01*
X6936281D01*
X6932615Y-2773221D01*
X6907122D01*
X6904622Y-2773388D01*
X6901123D01*
X6901456Y-2769889D01*
X6910287Y-2767223D01*
X6910954Y-2766889D01*
X6911454Y-2766556D01*
X6911954Y-2765556D01*
X6912287Y-2764723D01*
Y-2764557D01*
Y-2764390D01*
Y-2761891D01*
X6912454Y-2759225D01*
Y-2756725D01*
Y-2754226D01*
Y-2752060D01*
Y-2750227D01*
Y-2749560D01*
Y-2749061D01*
Y-2748894D01*
Y-2748727D01*
Y-2717902D01*
X6854302D01*
Y-2748727D01*
Y-2752060D01*
Y-2755059D01*
Y-2757725D01*
Y-2760058D01*
X6854468Y-2761891D01*
Y-2763224D01*
Y-2764057D01*
Y-2764390D01*
Y-2765056D01*
X6854802Y-2765723D01*
X6855468Y-2766556D01*
X6856135Y-2767056D01*
X6856301Y-2767223D01*
X6856468D01*
X6865632Y-2769889D01*
X6865299Y-2773388D01*
X6861800D01*
X6858467Y-2773221D01*
X6832974D01*
X6830308Y-2773388D01*
X6826476D01*
X6826642Y-2769889D01*
X6836306Y-2767056D01*
X6836973Y-2766723D01*
X6837473Y-2766389D01*
X6838139Y-2765556D01*
X6838472Y-2764890D01*
Y-2764557D01*
Y-2762057D01*
X6838639Y-2759391D01*
Y-2756725D01*
Y-2754226D01*
Y-2752060D01*
Y-2750227D01*
Y-2749560D01*
Y-2749061D01*
Y-2748894D01*
Y-2748727D01*
Y-2683911D01*
Y-2681078D01*
Y-2678412D01*
Y-2676246D01*
X6838472Y-2674246D01*
Y-2672747D01*
Y-2671580D01*
Y-2670747D01*
Y-2670581D01*
X6838139Y-2669248D01*
X6837473Y-2668415D01*
X6836806Y-2668081D01*
X6836473Y-2667915D01*
X6826476Y-2664749D01*
X6826809Y-2661250D01*
X6830475Y-2661416D01*
X6837306D01*
X6840305Y-2661583D01*
X6853302D01*
X6856634Y-2661416D01*
X6861966D01*
X6863133Y-2661250D01*
X6865632D01*
X6865466Y-2664749D01*
X6856468Y-2667581D01*
X6855801Y-2667748D01*
X6855302Y-2668248D01*
X6854635Y-2669081D01*
X6854468Y-2669748D01*
Y-2669914D01*
Y-2670081D01*
Y-2672247D01*
X6854302Y-2674580D01*
Y-2676912D01*
Y-2679078D01*
Y-2680911D01*
Y-2682244D01*
Y-2683244D01*
Y-2683411D01*
Y-2683577D01*
Y-2710570D01*
X6912454D01*
Y-2683577D01*
Y-2680745D01*
Y-2678245D01*
Y-2675913D01*
X6912287Y-2673913D01*
Y-2672247D01*
Y-2671081D01*
Y-2670414D01*
Y-2670081D01*
X6912120Y-2669414D01*
X6911954Y-2668914D01*
X6911287Y-2668081D01*
X6910621Y-2667748D01*
X6910287Y-2667581D01*
X6901123Y-2664749D01*
X6901623Y-2661250D01*
X6905122Y-2661416D01*
X6911620D01*
X6914453Y-2661583D01*
X6927616D01*
X6930949Y-2661416D01*
X6936614D01*
X6937614Y-2661250D01*
X6940280D01*
X6940113Y-2664749D01*
D02*
G37*
G36*
X6598534D02*
X6588703Y-2667915D01*
X6587537Y-2668581D01*
X6587037Y-2669414D01*
X6586704Y-2670247D01*
Y-2670414D01*
Y-2670581D01*
Y-2672747D01*
X6586537Y-2674913D01*
Y-2677079D01*
Y-2679245D01*
Y-2681078D01*
Y-2682578D01*
Y-2683577D01*
Y-2683744D01*
Y-2683911D01*
Y-2748727D01*
Y-2752060D01*
Y-2755059D01*
Y-2757892D01*
Y-2760058D01*
X6586704Y-2762057D01*
Y-2763390D01*
Y-2764223D01*
Y-2764557D01*
X6586870Y-2765223D01*
X6587037Y-2765723D01*
X6587870Y-2766556D01*
X6588536Y-2766889D01*
X6588703Y-2767056D01*
X6588870D01*
X6598701Y-2770055D01*
X6598534Y-2773388D01*
X6594868D01*
X6591536Y-2773221D01*
X6571374D01*
X6569208Y-2773388D01*
X6565876D01*
X6566042Y-2769889D01*
X6575040Y-2767223D01*
X6575706Y-2766889D01*
X6576206Y-2766556D01*
X6576873Y-2765556D01*
X6577206Y-2764723D01*
Y-2764557D01*
Y-2764390D01*
Y-2761891D01*
Y-2759225D01*
Y-2756725D01*
Y-2754226D01*
Y-2752060D01*
Y-2750227D01*
Y-2749560D01*
Y-2749061D01*
Y-2748894D01*
Y-2748727D01*
Y-2679412D01*
X6537383Y-2773721D01*
X6531551Y-2773221D01*
X6491895Y-2679412D01*
Y-2748727D01*
Y-2752060D01*
Y-2755059D01*
Y-2757725D01*
Y-2760058D01*
X6492061Y-2761891D01*
Y-2763224D01*
Y-2764057D01*
Y-2764390D01*
X6492394Y-2765723D01*
X6493061Y-2766556D01*
X6493727Y-2767056D01*
X6493894Y-2767223D01*
X6494061D01*
X6503392Y-2769889D01*
X6503058Y-2773388D01*
X6499559D01*
X6496227Y-2773221D01*
X6470733D01*
X6468067Y-2773388D01*
X6464235D01*
Y-2769889D01*
X6473899Y-2767056D01*
X6474566Y-2766723D01*
X6475232Y-2766389D01*
X6475899Y-2765556D01*
X6476232Y-2764890D01*
Y-2764557D01*
Y-2762057D01*
Y-2759391D01*
Y-2756725D01*
Y-2754226D01*
Y-2752060D01*
Y-2750227D01*
Y-2749560D01*
Y-2749061D01*
Y-2748894D01*
Y-2748727D01*
Y-2683911D01*
Y-2681078D01*
Y-2678412D01*
Y-2676246D01*
Y-2674246D01*
Y-2672747D01*
Y-2671580D01*
Y-2670747D01*
Y-2670581D01*
X6475899Y-2669248D01*
X6475232Y-2668415D01*
X6474566Y-2668081D01*
X6474232Y-2667915D01*
X6464235Y-2664749D01*
X6464402Y-2661250D01*
X6467901Y-2661416D01*
X6473899D01*
X6476065Y-2661583D01*
X6485063D01*
X6487396Y-2661416D01*
X6491395D01*
X6492728Y-2661250D01*
X6494061D01*
X6531051Y-2749061D01*
X6568208Y-2661250D01*
X6570874Y-2661416D01*
X6576040D01*
X6578039Y-2661583D01*
X6587537D01*
X6590203Y-2661416D01*
X6595201D01*
X6597034Y-2661250D01*
X6598701D01*
X6598534Y-2664749D01*
D02*
G37*
G36*
X7668260Y-2738730D02*
X7623771D01*
Y-2728399D01*
X7668260D01*
Y-2738730D01*
D02*
G37*
G36*
X6766491Y-2660916D02*
X6807314Y-2758391D01*
X6807980Y-2759891D01*
X6808647Y-2761057D01*
X6809147Y-2762224D01*
X6809647Y-2763057D01*
X6810146Y-2763723D01*
X6810313Y-2764223D01*
X6810646Y-2764390D01*
Y-2764557D01*
X6811813Y-2765890D01*
X6813312Y-2766723D01*
X6813979Y-2767056D01*
X6814479Y-2767389D01*
X6814812Y-2767556D01*
X6814978D01*
X6822976Y-2769889D01*
X6822477Y-2773388D01*
X6819311D01*
X6816311Y-2773221D01*
X6794650D01*
X6792151Y-2773388D01*
X6788152D01*
X6788319Y-2769722D01*
X6795650Y-2767722D01*
X6796650Y-2767389D01*
X6797316Y-2766889D01*
X6797816Y-2766723D01*
X6797983Y-2766556D01*
X6798316Y-2765890D01*
X6798483Y-2765223D01*
X6798649Y-2764557D01*
Y-2764390D01*
X6798483Y-2763057D01*
X6798149Y-2761891D01*
X6797983Y-2760724D01*
X6797816Y-2760558D01*
Y-2760391D01*
X6797483Y-2759391D01*
X6796983Y-2758058D01*
X6796150Y-2755726D01*
X6795650Y-2754726D01*
X6795483Y-2753893D01*
X6795150Y-2753393D01*
Y-2753226D01*
X6786652Y-2731898D01*
X6748162D01*
X6740664Y-2753393D01*
X6740164Y-2754892D01*
X6739664Y-2756225D01*
X6739331Y-2757392D01*
X6738998Y-2758391D01*
X6738665Y-2759225D01*
X6738498Y-2759724D01*
X6738331Y-2760058D01*
Y-2760224D01*
X6737832Y-2761891D01*
X6737665Y-2763224D01*
X6737498Y-2764057D01*
Y-2764390D01*
X6737665Y-2765390D01*
X6737832Y-2766056D01*
X6737998Y-2766389D01*
X6738165Y-2766556D01*
X6738831Y-2767056D01*
X6739498Y-2767389D01*
X6740164Y-2767556D01*
X6740498Y-2767722D01*
X6747996Y-2769889D01*
X6747662Y-2773388D01*
X6743164D01*
X6739165Y-2773221D01*
X6713005D01*
X6710505Y-2773388D01*
X6706673D01*
X6706840Y-2769889D01*
X6714504Y-2767722D01*
X6716504Y-2766889D01*
X6718003Y-2765890D01*
X6718836Y-2765223D01*
X6719170Y-2764890D01*
X6719670Y-2764057D01*
X6720336Y-2762890D01*
X6721502Y-2760391D01*
X6722002Y-2759225D01*
X6722336Y-2758225D01*
X6722502Y-2757558D01*
X6722669Y-2757392D01*
X6758326Y-2659583D01*
X6766491Y-2660916D01*
D02*
G37*
G36*
X6659685Y-2661083D02*
X6665350D01*
X6666350Y-2661250D01*
X6667850D01*
X6670849Y-2661416D01*
X6673181D01*
X6674015Y-2661583D01*
X6687345D01*
X6690844Y-2661416D01*
X6696509D01*
X6697509Y-2661250D01*
X6700175D01*
X6700008Y-2664749D01*
X6690177Y-2667915D01*
X6689011Y-2668581D01*
X6688511Y-2669414D01*
X6688178Y-2670247D01*
Y-2670414D01*
Y-2670581D01*
Y-2672580D01*
Y-2674580D01*
Y-2675413D01*
Y-2676079D01*
Y-2676412D01*
Y-2676579D01*
X6688011Y-2679078D01*
Y-2681411D01*
Y-2682411D01*
Y-2683244D01*
Y-2683744D01*
Y-2683911D01*
Y-2748727D01*
Y-2752060D01*
Y-2753559D01*
Y-2754726D01*
X6688178Y-2755892D01*
Y-2756725D01*
Y-2757225D01*
Y-2757392D01*
Y-2760224D01*
Y-2761391D01*
Y-2762390D01*
Y-2763390D01*
Y-2764057D01*
Y-2764390D01*
Y-2764557D01*
X6688344Y-2765223D01*
X6688511Y-2765723D01*
X6689344Y-2766556D01*
X6690010Y-2766889D01*
X6690177Y-2767056D01*
X6690344D01*
X6700175Y-2769889D01*
X6700008Y-2773388D01*
X6696176D01*
X6692676Y-2773221D01*
X6667016D01*
X6664517Y-2773388D01*
X6661018D01*
X6661351Y-2769889D01*
X6670182Y-2767389D01*
X6670849Y-2767056D01*
X6671349Y-2766556D01*
X6672015Y-2765556D01*
X6672348Y-2764557D01*
Y-2764390D01*
Y-2764223D01*
Y-2761891D01*
Y-2759724D01*
Y-2758725D01*
Y-2758058D01*
Y-2757558D01*
Y-2757392D01*
Y-2754393D01*
Y-2752893D01*
Y-2751560D01*
Y-2750394D01*
Y-2749560D01*
Y-2748894D01*
Y-2748727D01*
Y-2721234D01*
X6666850D01*
X6665350Y-2721401D01*
X6664350Y-2721568D01*
X6663517Y-2721734D01*
X6663351D01*
X6662351Y-2721901D01*
X6661684Y-2722234D01*
X6661185Y-2722401D01*
X6661018Y-2722567D01*
X6660351Y-2723067D01*
X6659685Y-2723734D01*
X6659352Y-2724234D01*
X6659185Y-2724400D01*
X6658519Y-2725233D01*
X6657852Y-2726233D01*
X6657186Y-2726900D01*
X6657019Y-2727066D01*
Y-2727233D01*
X6654186Y-2732065D01*
X6652853Y-2734231D01*
X6651687Y-2736230D01*
X6650687Y-2737897D01*
X6650021Y-2739230D01*
X6649521Y-2740063D01*
X6649354Y-2740396D01*
X6647855Y-2742895D01*
X6646522Y-2745228D01*
X6645355Y-2747394D01*
X6644189Y-2749227D01*
X6643356Y-2750727D01*
X6642689Y-2752060D01*
X6642189Y-2752726D01*
X6642023Y-2753060D01*
X6640690Y-2755226D01*
X6639523Y-2757225D01*
X6638357Y-2758891D01*
X6637357Y-2760558D01*
X6636524Y-2761724D01*
X6635858Y-2762724D01*
X6635524Y-2763390D01*
X6635358Y-2763557D01*
X6634191Y-2765223D01*
X6633025Y-2766556D01*
X6631859Y-2767889D01*
X6630859Y-2768889D01*
X6630026Y-2769722D01*
X6629359Y-2770222D01*
X6629026Y-2770555D01*
X6628859Y-2770722D01*
X6627693Y-2771555D01*
X6626860Y-2772055D01*
X6626194Y-2772388D01*
X6625860Y-2772555D01*
X6624527Y-2773054D01*
X6623361Y-2773388D01*
X6622528Y-2773554D01*
X6622361Y-2773721D01*
X6622195D01*
X6620695Y-2774054D01*
X6619195Y-2774221D01*
X6618029Y-2774387D01*
X6617696D01*
X6615696Y-2774554D01*
X6612030D01*
X6608865Y-2774387D01*
X6607198Y-2774221D01*
X6605699Y-2774054D01*
X6604366D01*
X6603366Y-2773888D01*
X6602533Y-2773721D01*
X6602366D01*
X6602533Y-2770388D01*
X6603866Y-2770055D01*
X6605032Y-2769889D01*
X6605865Y-2769555D01*
X6606199D01*
X6607365Y-2769222D01*
X6608365Y-2768722D01*
X6609031Y-2768556D01*
X6609364Y-2768389D01*
X6610364Y-2767889D01*
X6611364Y-2767223D01*
X6612030Y-2766889D01*
X6612197Y-2766723D01*
X6613197Y-2765890D01*
X6614030Y-2765223D01*
X6614696Y-2764557D01*
X6614863Y-2764390D01*
X6615863Y-2763390D01*
X6616863Y-2762057D01*
X6618695Y-2759724D01*
X6619529Y-2758725D01*
X6620195Y-2757892D01*
X6620528Y-2757392D01*
X6620695Y-2757225D01*
X6623028Y-2753559D01*
X6624194Y-2751893D01*
X6625194Y-2750227D01*
X6626027Y-2748894D01*
X6626693Y-2747728D01*
X6627193Y-2747061D01*
X6627360Y-2746728D01*
X6630192Y-2742062D01*
X6631525Y-2739896D01*
X6632692Y-2737897D01*
X6633858Y-2736064D01*
X6634691Y-2734731D01*
X6635191Y-2733898D01*
X6635358Y-2733565D01*
X6638690Y-2728233D01*
X6640190Y-2725733D01*
X6641690Y-2723400D01*
X6642856Y-2721568D01*
X6643856Y-2720068D01*
X6644522Y-2719068D01*
X6644689Y-2718735D01*
X6640190Y-2717069D01*
X6636191Y-2715236D01*
X6632858Y-2713403D01*
X6630192Y-2711570D01*
X6628026Y-2709904D01*
X6626527Y-2708571D01*
X6625694Y-2707738D01*
X6625360Y-2707405D01*
X6623194Y-2704405D01*
X6621695Y-2701239D01*
X6620528Y-2697907D01*
X6619862Y-2694908D01*
X6619362Y-2692075D01*
X6619195Y-2690909D01*
Y-2689909D01*
X6619029Y-2689076D01*
Y-2688409D01*
Y-2688076D01*
Y-2687910D01*
X6619195Y-2685577D01*
X6619362Y-2683244D01*
X6620528Y-2679245D01*
X6622028Y-2675746D01*
X6623694Y-2672913D01*
X6625360Y-2670747D01*
X6626860Y-2669248D01*
X6628026Y-2668248D01*
X6628193Y-2667915D01*
X6628360D01*
X6630192Y-2666748D01*
X6632192Y-2665582D01*
X6636524Y-2663916D01*
X6641190Y-2662583D01*
X6645689Y-2661750D01*
X6647688Y-2661416D01*
X6649687Y-2661250D01*
X6651520Y-2661083D01*
X6653020D01*
X6654186Y-2660916D01*
X6659018D01*
X6659685Y-2661083D01*
D02*
G37*
G36*
X6404250Y-2660916D02*
X6445073Y-2758391D01*
X6445740Y-2759891D01*
X6446406Y-2761057D01*
X6446906Y-2762224D01*
X6447406Y-2763057D01*
X6447906Y-2763723D01*
X6448072Y-2764223D01*
X6448406Y-2764390D01*
Y-2764557D01*
X6449572Y-2765890D01*
X6451072Y-2766723D01*
X6451738Y-2767056D01*
X6452238Y-2767389D01*
X6452571Y-2767556D01*
X6452738D01*
X6460736Y-2769889D01*
X6460236Y-2773388D01*
X6457070D01*
X6454071Y-2773221D01*
X6432410D01*
X6429910Y-2773388D01*
X6425911D01*
X6426078Y-2769722D01*
X6433410Y-2767722D01*
X6434409Y-2767389D01*
X6435076Y-2766889D01*
X6435576Y-2766723D01*
X6435742Y-2766556D01*
X6436076Y-2765890D01*
X6436242Y-2765223D01*
X6436409Y-2764557D01*
Y-2764390D01*
X6436242Y-2763057D01*
X6435909Y-2761891D01*
X6435742Y-2760724D01*
X6435576Y-2760558D01*
Y-2760391D01*
X6435242Y-2759391D01*
X6434743Y-2758058D01*
X6433909Y-2755726D01*
X6433410Y-2754726D01*
X6433243Y-2753893D01*
X6432910Y-2753393D01*
Y-2753226D01*
X6424412Y-2731898D01*
X6385922D01*
X6378424Y-2753393D01*
X6377924Y-2754892D01*
X6377424Y-2756225D01*
X6377091Y-2757392D01*
X6376757Y-2758391D01*
X6376424Y-2759225D01*
X6376258Y-2759724D01*
X6376091Y-2760058D01*
Y-2760224D01*
X6375591Y-2761891D01*
X6375424Y-2763224D01*
X6375258Y-2764057D01*
Y-2764390D01*
X6375424Y-2765390D01*
X6375591Y-2766056D01*
X6375758Y-2766389D01*
X6375924Y-2766556D01*
X6376591Y-2767056D01*
X6377257Y-2767389D01*
X6377924Y-2767556D01*
X6378257Y-2767722D01*
X6385755Y-2769889D01*
X6385422Y-2773388D01*
X6380923D01*
X6376924Y-2773221D01*
X6350764D01*
X6348265Y-2773388D01*
X6344432D01*
X6344599Y-2769889D01*
X6352264Y-2767722D01*
X6354263Y-2766889D01*
X6355763Y-2765890D01*
X6356596Y-2765223D01*
X6356929Y-2764890D01*
X6357429Y-2764057D01*
X6358095Y-2762890D01*
X6359262Y-2760391D01*
X6359762Y-2759225D01*
X6360095Y-2758225D01*
X6360262Y-2757558D01*
X6360428Y-2757392D01*
X6396086Y-2659583D01*
X6404250Y-2660916D01*
D02*
G37*
G36*
X7570618Y-2659583D02*
X7573618Y-2659750D01*
X7576617Y-2660083D01*
X7579449Y-2660583D01*
X7582115Y-2661249D01*
X7584615Y-2661916D01*
X7586947Y-2662582D01*
X7588947Y-2663416D01*
X7590780Y-2664082D01*
X7592446Y-2664915D01*
X7593946Y-2665582D01*
X7595112Y-2666082D01*
X7596112Y-2666748D01*
X7596778Y-2667081D01*
X7597112Y-2667248D01*
X7597278Y-2667415D01*
X7599444Y-2668914D01*
X7601277Y-2670747D01*
X7602777Y-2672413D01*
X7604276Y-2674246D01*
X7605443Y-2676079D01*
X7606276Y-2677912D01*
X7607109Y-2679745D01*
X7607775Y-2681578D01*
X7608609Y-2684743D01*
X7608942Y-2686243D01*
X7609108Y-2687409D01*
Y-2688409D01*
X7609275Y-2689076D01*
Y-2689576D01*
Y-2689742D01*
X7609108Y-2692408D01*
X7608942Y-2694741D01*
X7608442Y-2696907D01*
X7607942Y-2698740D01*
X7607609Y-2700406D01*
X7607109Y-2701406D01*
X7606942Y-2702239D01*
X7606776Y-2702406D01*
X7605776Y-2704405D01*
X7604610Y-2706071D01*
X7603443Y-2707571D01*
X7602444Y-2708904D01*
X7601444Y-2710070D01*
X7600611Y-2710903D01*
X7600111Y-2711403D01*
X7599944Y-2711570D01*
X7596612Y-2714069D01*
X7595112Y-2715236D01*
X7593612Y-2716235D01*
X7592279Y-2716902D01*
X7591280Y-2717568D01*
X7590613Y-2717902D01*
X7590447Y-2718068D01*
X7586448Y-2720068D01*
X7584615Y-2720901D01*
X7582949Y-2721734D01*
X7581449Y-2722400D01*
X7580449Y-2722900D01*
X7579616Y-2723067D01*
X7579449Y-2723234D01*
X7575950Y-2724900D01*
X7574284Y-2725566D01*
X7572951Y-2726233D01*
X7571618Y-2726899D01*
X7570785Y-2727399D01*
X7570118Y-2727566D01*
X7569952Y-2727732D01*
X7566619Y-2729565D01*
X7565286Y-2730398D01*
X7563953Y-2731232D01*
X7562954Y-2731898D01*
X7562287Y-2732398D01*
X7561787Y-2732731D01*
X7561621Y-2732898D01*
X7559121Y-2735064D01*
X7558122Y-2736230D01*
X7557288Y-2737230D01*
X7556622Y-2738230D01*
X7556122Y-2738896D01*
X7555955Y-2739396D01*
X7555789Y-2739563D01*
X7555122Y-2741062D01*
X7554456Y-2742562D01*
X7554123Y-2744062D01*
X7553956Y-2745561D01*
X7553789Y-2746728D01*
X7553623Y-2747727D01*
Y-2748394D01*
Y-2748560D01*
X7553956Y-2751893D01*
X7554622Y-2754892D01*
X7555789Y-2757558D01*
X7556955Y-2759724D01*
X7558288Y-2761390D01*
X7559455Y-2762557D01*
X7560121Y-2763223D01*
X7560454Y-2763557D01*
X7563120Y-2765223D01*
X7566119Y-2766556D01*
X7569285Y-2767389D01*
X7572118Y-2768055D01*
X7574784Y-2768389D01*
X7575950Y-2768555D01*
X7576950D01*
X7577783Y-2768722D01*
X7578950D01*
X7582282Y-2768555D01*
X7585448Y-2768222D01*
X7588280Y-2767722D01*
X7590946Y-2767056D01*
X7593113Y-2766389D01*
X7594779Y-2765889D01*
X7595445Y-2765723D01*
X7595945Y-2765556D01*
X7596112Y-2765389D01*
X7596278D01*
X7601944Y-2742729D01*
X7605609Y-2743395D01*
X7609442Y-2770555D01*
X7608942Y-2771221D01*
X7603277Y-2772554D01*
X7598111Y-2773554D01*
X7593279Y-2774387D01*
X7591113Y-2774720D01*
X7589114Y-2774887D01*
X7587281Y-2775054D01*
X7585614Y-2775220D01*
X7584282D01*
X7582949Y-2775387D01*
X7580782D01*
X7577117Y-2775220D01*
X7573784Y-2775054D01*
X7570452Y-2774554D01*
X7567452Y-2774054D01*
X7564620Y-2773387D01*
X7561954Y-2772721D01*
X7559455Y-2772054D01*
X7557288Y-2771221D01*
X7555289Y-2770388D01*
X7553623Y-2769722D01*
X7552123Y-2769055D01*
X7550957Y-2768389D01*
X7549957Y-2767889D01*
X7549124Y-2767389D01*
X7548791Y-2767222D01*
X7548624Y-2767056D01*
X7546458Y-2765389D01*
X7544458Y-2763557D01*
X7542792Y-2761724D01*
X7541459Y-2759724D01*
X7540126Y-2757725D01*
X7539126Y-2755725D01*
X7538293Y-2753726D01*
X7537627Y-2751726D01*
X7537127Y-2749893D01*
X7536794Y-2748227D01*
X7536460Y-2746728D01*
X7536294Y-2745395D01*
X7536127Y-2744228D01*
Y-2743395D01*
Y-2742895D01*
Y-2742729D01*
X7536294Y-2740229D01*
X7536460Y-2738063D01*
X7536960Y-2736064D01*
X7537460Y-2734397D01*
X7537960Y-2733064D01*
X7538293Y-2731898D01*
X7538627Y-2731232D01*
X7538793Y-2731065D01*
X7539793Y-2729232D01*
X7540959Y-2727566D01*
X7541959Y-2726066D01*
X7543125Y-2724733D01*
X7543958Y-2723733D01*
X7544792Y-2723067D01*
X7545291Y-2722567D01*
X7545458Y-2722400D01*
X7548624Y-2719901D01*
X7550290Y-2718735D01*
X7551623Y-2717902D01*
X7552956Y-2717068D01*
X7553956Y-2716569D01*
X7554622Y-2716235D01*
X7554789Y-2716069D01*
X7558621Y-2714236D01*
X7560454Y-2713236D01*
X7562121Y-2712570D01*
X7563620Y-2711903D01*
X7564620Y-2711403D01*
X7565286Y-2711237D01*
X7565620Y-2711070D01*
X7569285Y-2709404D01*
X7570952Y-2708571D01*
X7572285Y-2707904D01*
X7573618Y-2707238D01*
X7574451Y-2706738D01*
X7575117Y-2706571D01*
X7575284Y-2706405D01*
X7578616Y-2704572D01*
X7579949Y-2703739D01*
X7581282Y-2702905D01*
X7582282Y-2702239D01*
X7583115Y-2701739D01*
X7583615Y-2701406D01*
X7583782Y-2701239D01*
X7586281Y-2698906D01*
X7587281Y-2697740D01*
X7588114Y-2696740D01*
X7588780Y-2695741D01*
X7589280Y-2695074D01*
X7589447Y-2694574D01*
X7589613Y-2694408D01*
X7590280Y-2692908D01*
X7590780Y-2691242D01*
X7591280Y-2689742D01*
X7591446Y-2688243D01*
X7591613Y-2687076D01*
X7591780Y-2686076D01*
Y-2685410D01*
Y-2685243D01*
X7591446Y-2681911D01*
X7590780Y-2679078D01*
X7589780Y-2676745D01*
X7588614Y-2674579D01*
X7587614Y-2673080D01*
X7586614Y-2671913D01*
X7585948Y-2671080D01*
X7585614Y-2670914D01*
X7583115Y-2669247D01*
X7580283Y-2667914D01*
X7577450Y-2667081D01*
X7574784Y-2666415D01*
X7572451Y-2666082D01*
X7570452Y-2665748D01*
X7568785D01*
X7566119Y-2665915D01*
X7563454Y-2666248D01*
X7560788Y-2666581D01*
X7558455Y-2667081D01*
X7556289Y-2667748D01*
X7554789Y-2668081D01*
X7554123Y-2668248D01*
X7553623Y-2668414D01*
X7553456Y-2668581D01*
X7553289D01*
X7548124Y-2688576D01*
X7544958Y-2687909D01*
X7540126Y-2663082D01*
X7540793Y-2662416D01*
X7545958Y-2661416D01*
X7550790Y-2660750D01*
X7555289Y-2660083D01*
X7559288Y-2659750D01*
X7560954Y-2659583D01*
X7563953D01*
X7565120Y-2659417D01*
X7567286D01*
X7570618Y-2659583D01*
D02*
G37*
G36*
X6985601D02*
X6988601Y-2659750D01*
X6991600Y-2660083D01*
X6994433Y-2660583D01*
X6997099Y-2661249D01*
X6999598Y-2661916D01*
X7001931Y-2662582D01*
X7003930Y-2663416D01*
X7005763Y-2664082D01*
X7007429Y-2664915D01*
X7008929Y-2665582D01*
X7010095Y-2666082D01*
X7011095Y-2666748D01*
X7011761Y-2667081D01*
X7012095Y-2667248D01*
X7012261Y-2667415D01*
X7014427Y-2668914D01*
X7016260Y-2670747D01*
X7017760Y-2672413D01*
X7019260Y-2674246D01*
X7020426Y-2676079D01*
X7021259Y-2677912D01*
X7022092Y-2679745D01*
X7022759Y-2681578D01*
X7023592Y-2684743D01*
X7023925Y-2686243D01*
X7024092Y-2687409D01*
Y-2688409D01*
X7024258Y-2689076D01*
Y-2689576D01*
Y-2689742D01*
X7024092Y-2692408D01*
X7023925Y-2694741D01*
X7023425Y-2696907D01*
X7022925Y-2698740D01*
X7022592Y-2700406D01*
X7022092Y-2701406D01*
X7021926Y-2702239D01*
X7021759Y-2702406D01*
X7020759Y-2704405D01*
X7019593Y-2706071D01*
X7018426Y-2707571D01*
X7017427Y-2708904D01*
X7016427Y-2710070D01*
X7015594Y-2710903D01*
X7015094Y-2711403D01*
X7014927Y-2711570D01*
X7011595Y-2714069D01*
X7010095Y-2715236D01*
X7008596Y-2716235D01*
X7007263Y-2716902D01*
X7006263Y-2717568D01*
X7005596Y-2717902D01*
X7005430Y-2718068D01*
X7001431Y-2720068D01*
X6999598Y-2720901D01*
X6997932Y-2721734D01*
X6996432Y-2722400D01*
X6995432Y-2722900D01*
X6994599Y-2723067D01*
X6994433Y-2723234D01*
X6990933Y-2724900D01*
X6989267Y-2725566D01*
X6987934Y-2726233D01*
X6986601Y-2726899D01*
X6985768Y-2727399D01*
X6985102Y-2727566D01*
X6984935Y-2727732D01*
X6981602Y-2729565D01*
X6980270Y-2730398D01*
X6978937Y-2731232D01*
X6977937Y-2731898D01*
X6977270Y-2732398D01*
X6976770Y-2732731D01*
X6976604Y-2732898D01*
X6974104Y-2735064D01*
X6973105Y-2736230D01*
X6972272Y-2737230D01*
X6971605Y-2738230D01*
X6971105Y-2738896D01*
X6970939Y-2739396D01*
X6970772Y-2739563D01*
X6970105Y-2741062D01*
X6969439Y-2742562D01*
X6969106Y-2744062D01*
X6968939Y-2745561D01*
X6968772Y-2746728D01*
X6968606Y-2747727D01*
Y-2748394D01*
Y-2748560D01*
X6968939Y-2751893D01*
X6969606Y-2754892D01*
X6970772Y-2757558D01*
X6971938Y-2759724D01*
X6973271Y-2761390D01*
X6974438Y-2762557D01*
X6975104Y-2763223D01*
X6975437Y-2763557D01*
X6978103Y-2765223D01*
X6981103Y-2766556D01*
X6984268Y-2767389D01*
X6987101Y-2768055D01*
X6989767Y-2768389D01*
X6990933Y-2768555D01*
X6991933D01*
X6992766Y-2768722D01*
X6993933D01*
X6997265Y-2768555D01*
X7000431Y-2768222D01*
X7003264Y-2767722D01*
X7005930Y-2767056D01*
X7008096Y-2766389D01*
X7009762Y-2765889D01*
X7010428Y-2765723D01*
X7010928Y-2765556D01*
X7011095Y-2765389D01*
X7011262D01*
X7016927Y-2742729D01*
X7020593Y-2743395D01*
X7024425Y-2770555D01*
X7023925Y-2771221D01*
X7018260Y-2772554D01*
X7013094Y-2773554D01*
X7008262Y-2774387D01*
X7006096Y-2774720D01*
X7004097Y-2774887D01*
X7002264Y-2775054D01*
X7000598Y-2775220D01*
X6999265D01*
X6997932Y-2775387D01*
X6995766D01*
X6992100Y-2775220D01*
X6988767Y-2775054D01*
X6985435Y-2774554D01*
X6982436Y-2774054D01*
X6979603Y-2773387D01*
X6976937Y-2772721D01*
X6974438Y-2772054D01*
X6972272Y-2771221D01*
X6970272Y-2770388D01*
X6968606Y-2769722D01*
X6967106Y-2769055D01*
X6965940Y-2768389D01*
X6964940Y-2767889D01*
X6964107Y-2767389D01*
X6963774Y-2767222D01*
X6963607Y-2767056D01*
X6961441Y-2765389D01*
X6959442Y-2763557D01*
X6957775Y-2761724D01*
X6956442Y-2759724D01*
X6955109Y-2757725D01*
X6954110Y-2755725D01*
X6953276Y-2753726D01*
X6952610Y-2751726D01*
X6952110Y-2749893D01*
X6951777Y-2748227D01*
X6951444Y-2746728D01*
X6951277Y-2745395D01*
X6951110Y-2744228D01*
Y-2743395D01*
Y-2742895D01*
Y-2742729D01*
X6951277Y-2740229D01*
X6951444Y-2738063D01*
X6951943Y-2736064D01*
X6952443Y-2734397D01*
X6952943Y-2733064D01*
X6953276Y-2731898D01*
X6953610Y-2731232D01*
X6953776Y-2731065D01*
X6954776Y-2729232D01*
X6955942Y-2727566D01*
X6956942Y-2726066D01*
X6958109Y-2724733D01*
X6958942Y-2723733D01*
X6959775Y-2723067D01*
X6960275Y-2722567D01*
X6960441Y-2722400D01*
X6963607Y-2719901D01*
X6965273Y-2718735D01*
X6966606Y-2717902D01*
X6967939Y-2717068D01*
X6968939Y-2716569D01*
X6969606Y-2716235D01*
X6969772Y-2716069D01*
X6973605Y-2714236D01*
X6975437Y-2713236D01*
X6977104Y-2712570D01*
X6978603Y-2711903D01*
X6979603Y-2711403D01*
X6980270Y-2711237D01*
X6980603Y-2711070D01*
X6984268Y-2709404D01*
X6985935Y-2708571D01*
X6987268Y-2707904D01*
X6988601Y-2707238D01*
X6989434Y-2706738D01*
X6990100Y-2706571D01*
X6990267Y-2706405D01*
X6993599Y-2704572D01*
X6994932Y-2703739D01*
X6996265Y-2702905D01*
X6997265Y-2702239D01*
X6998098Y-2701739D01*
X6998598Y-2701406D01*
X6998765Y-2701239D01*
X7001264Y-2698906D01*
X7002264Y-2697740D01*
X7003097Y-2696740D01*
X7003763Y-2695741D01*
X7004263Y-2695074D01*
X7004430Y-2694574D01*
X7004597Y-2694408D01*
X7005263Y-2692908D01*
X7005763Y-2691242D01*
X7006263Y-2689742D01*
X7006429Y-2688243D01*
X7006596Y-2687076D01*
X7006763Y-2686076D01*
Y-2685410D01*
Y-2685243D01*
X7006429Y-2681911D01*
X7005763Y-2679078D01*
X7004763Y-2676745D01*
X7003597Y-2674579D01*
X7002597Y-2673080D01*
X7001597Y-2671913D01*
X7000931Y-2671080D01*
X7000598Y-2670914D01*
X6998098Y-2669247D01*
X6995266Y-2667914D01*
X6992433Y-2667081D01*
X6989767Y-2666415D01*
X6987434Y-2666082D01*
X6985435Y-2665748D01*
X6983769D01*
X6981103Y-2665915D01*
X6978437Y-2666248D01*
X6975771Y-2666581D01*
X6973438Y-2667081D01*
X6971272Y-2667748D01*
X6969772Y-2668081D01*
X6969106Y-2668248D01*
X6968606Y-2668414D01*
X6968439Y-2668581D01*
X6968273D01*
X6963107Y-2688576D01*
X6959941Y-2687909D01*
X6955109Y-2663082D01*
X6955776Y-2662416D01*
X6960941Y-2661416D01*
X6965773Y-2660750D01*
X6970272Y-2660083D01*
X6974271Y-2659750D01*
X6975937Y-2659583D01*
X6978937D01*
X6980103Y-2659417D01*
X6982269D01*
X6985601Y-2659583D01*
D02*
G37*
G36*
X7250200Y-2658750D02*
X7255032Y-2659250D01*
X7259531Y-2660083D01*
X7263697Y-2661083D01*
X7267529Y-2662249D01*
X7271195Y-2663749D01*
X7274527Y-2665082D01*
X7277360Y-2666581D01*
X7280026Y-2668248D01*
X7282359Y-2669581D01*
X7284358Y-2670914D01*
X7285858Y-2672247D01*
X7287191Y-2673246D01*
X7288191Y-2674079D01*
X7288691Y-2674579D01*
X7288857Y-2674746D01*
X7291690Y-2677912D01*
X7294022Y-2681244D01*
X7296189Y-2684743D01*
X7297855Y-2688409D01*
X7299354Y-2692075D01*
X7300687Y-2695741D01*
X7301687Y-2699240D01*
X7302520Y-2702739D01*
X7303187Y-2705905D01*
X7303687Y-2708904D01*
X7304020Y-2711737D01*
X7304187Y-2714069D01*
X7304353Y-2715902D01*
X7304520Y-2717402D01*
Y-2718235D01*
Y-2718568D01*
X7304353Y-2723400D01*
X7303853Y-2728066D01*
X7303187Y-2732398D01*
X7302187Y-2736397D01*
X7301187Y-2740229D01*
X7299854Y-2743562D01*
X7298688Y-2746728D01*
X7297188Y-2749560D01*
X7295855Y-2752226D01*
X7294522Y-2754392D01*
X7293356Y-2756392D01*
X7292356Y-2757891D01*
X7291357Y-2759058D01*
X7290690Y-2760057D01*
X7290190Y-2760557D01*
X7290024Y-2760724D01*
X7287191Y-2763390D01*
X7284025Y-2765889D01*
X7280693Y-2767889D01*
X7277360Y-2769722D01*
X7273861Y-2771221D01*
X7270529Y-2772388D01*
X7267029Y-2773387D01*
X7263697Y-2774221D01*
X7260698Y-2774887D01*
X7257865Y-2775387D01*
X7255199Y-2775720D01*
X7252866Y-2776053D01*
X7251034D01*
X7249701Y-2776220D01*
X7248534D01*
X7243369Y-2776053D01*
X7238537Y-2775554D01*
X7234038Y-2774720D01*
X7229872Y-2773554D01*
X7225873Y-2772388D01*
X7222208Y-2770888D01*
X7219042Y-2769388D01*
X7216042Y-2767722D01*
X7213376Y-2766223D01*
X7211210Y-2764723D01*
X7209211Y-2763223D01*
X7207545Y-2762057D01*
X7206378Y-2760891D01*
X7205379Y-2760057D01*
X7204879Y-2759558D01*
X7204712Y-2759391D01*
X7201879Y-2756058D01*
X7199547Y-2752559D01*
X7197381Y-2749060D01*
X7195548Y-2745395D01*
X7194048Y-2741562D01*
X7192715Y-2737896D01*
X7191715Y-2734231D01*
X7190882Y-2730898D01*
X7190216Y-2727566D01*
X7189716Y-2724567D01*
X7189383Y-2721901D01*
X7189049Y-2719401D01*
Y-2717568D01*
X7188883Y-2716069D01*
Y-2715236D01*
Y-2714902D01*
X7189049Y-2710070D01*
X7189549Y-2705738D01*
X7190216Y-2701406D01*
X7191215Y-2697573D01*
X7192215Y-2693908D01*
X7193548Y-2690409D01*
X7194881Y-2687409D01*
X7196214Y-2684577D01*
X7197547Y-2682077D01*
X7198880Y-2679911D01*
X7200213Y-2678078D01*
X7201213Y-2676579D01*
X7202213Y-2675246D01*
X7202879Y-2674413D01*
X7203379Y-2673913D01*
X7203546Y-2673746D01*
X7206378Y-2671080D01*
X7209544Y-2668748D01*
X7212877Y-2666748D01*
X7216209Y-2664915D01*
X7219708Y-2663582D01*
X7223041Y-2662249D01*
X7226540Y-2661249D01*
X7229706Y-2660416D01*
X7232871Y-2659916D01*
X7235704Y-2659417D01*
X7238370Y-2659083D01*
X7240536Y-2658750D01*
X7242536D01*
X7243869Y-2658583D01*
X7245035D01*
X7250200Y-2658750D01*
D02*
G37*
%LPC*%
G36*
X6766491Y-2680578D02*
X6750828Y-2724567D01*
X6783820D01*
X6766491Y-2680578D01*
D02*
G37*
G36*
X6665184Y-2667581D02*
X6662018D01*
X6657519Y-2667748D01*
X6653520Y-2668415D01*
X6650187Y-2669414D01*
X6647521Y-2670414D01*
X6645522Y-2671414D01*
X6644022Y-2672414D01*
X6643189Y-2673080D01*
X6642856Y-2673247D01*
X6640690Y-2675579D01*
X6639190Y-2678412D01*
X6638024Y-2681411D01*
X6637357Y-2684244D01*
X6636857Y-2686910D01*
X6636691Y-2688076D01*
Y-2689076D01*
X6636524Y-2689909D01*
Y-2690576D01*
Y-2690909D01*
Y-2691075D01*
X6636857Y-2695408D01*
X6637524Y-2699240D01*
X6638524Y-2702406D01*
X6639690Y-2704905D01*
X6641023Y-2706905D01*
X6642023Y-2708238D01*
X6642689Y-2709071D01*
X6643023Y-2709404D01*
X6644356Y-2710404D01*
X6645689Y-2711404D01*
X6648854Y-2712737D01*
X6652353Y-2713736D01*
X6655686Y-2714569D01*
X6658685Y-2714903D01*
X6660018Y-2715069D01*
X6661018D01*
X6662018Y-2715236D01*
X6668016D01*
X6669349Y-2715069D01*
X6672348D01*
Y-2668248D01*
X6670349Y-2668081D01*
X6668683Y-2667915D01*
X6668016Y-2667748D01*
X6667016D01*
X6665184Y-2667581D01*
D02*
G37*
G36*
X6404250Y-2680578D02*
X6388588Y-2724567D01*
X6421579D01*
X6404250Y-2680578D01*
D02*
G37*
G36*
X7249867Y-2665082D02*
X7247868D01*
X7244035Y-2665248D01*
X7240370Y-2665582D01*
X7237037Y-2666415D01*
X7234038Y-2667248D01*
X7231205Y-2668248D01*
X7228706Y-2669414D01*
X7226373Y-2670580D01*
X7224207Y-2671913D01*
X7222374Y-2673246D01*
X7220875Y-2674413D01*
X7219542Y-2675579D01*
X7218375Y-2676579D01*
X7217542Y-2677412D01*
X7217042Y-2678078D01*
X7216709Y-2678578D01*
X7216542Y-2678745D01*
X7214709Y-2681411D01*
X7213210Y-2684410D01*
X7211877Y-2687409D01*
X7210710Y-2690575D01*
X7209711Y-2693741D01*
X7208878Y-2697074D01*
X7207711Y-2703239D01*
X7207211Y-2706238D01*
X7206878Y-2708904D01*
X7206712Y-2711237D01*
X7206545Y-2713403D01*
X7206378Y-2715069D01*
Y-2716402D01*
Y-2717235D01*
Y-2717568D01*
X7206545Y-2722400D01*
X7206712Y-2727066D01*
X7207211Y-2731232D01*
X7207878Y-2735064D01*
X7208544Y-2738730D01*
X7209378Y-2741895D01*
X7210377Y-2744895D01*
X7211210Y-2747561D01*
X7212043Y-2749727D01*
X7213043Y-2751726D01*
X7213876Y-2753393D01*
X7214543Y-2754892D01*
X7215209Y-2755892D01*
X7215543Y-2756558D01*
X7215876Y-2757058D01*
X7216042Y-2757225D01*
X7217875Y-2759391D01*
X7220041Y-2761390D01*
X7222374Y-2763057D01*
X7224707Y-2764390D01*
X7227206Y-2765723D01*
X7229539Y-2766722D01*
X7232038Y-2767556D01*
X7234371Y-2768222D01*
X7236704Y-2768722D01*
X7238870Y-2769055D01*
X7240703Y-2769388D01*
X7242369Y-2769555D01*
X7243702D01*
X7244868Y-2769722D01*
X7245702D01*
X7249367Y-2769555D01*
X7252866Y-2769055D01*
X7256032Y-2768389D01*
X7259031Y-2767556D01*
X7261864Y-2766556D01*
X7264363Y-2765389D01*
X7266696Y-2764056D01*
X7268696Y-2762723D01*
X7270529Y-2761557D01*
X7272195Y-2760224D01*
X7273528Y-2759058D01*
X7274527Y-2758058D01*
X7275361Y-2757225D01*
X7276027Y-2756558D01*
X7276360Y-2756058D01*
X7276527Y-2755892D01*
X7278360Y-2753226D01*
X7280026Y-2750227D01*
X7281359Y-2747061D01*
X7282525Y-2743728D01*
X7283525Y-2740562D01*
X7284525Y-2737230D01*
X7285691Y-2730732D01*
X7286191Y-2727732D01*
X7286524Y-2724900D01*
X7286691Y-2722400D01*
X7286858Y-2720234D01*
X7287024Y-2718401D01*
Y-2717068D01*
Y-2716235D01*
Y-2715902D01*
X7286858Y-2711237D01*
X7286691Y-2706904D01*
X7286191Y-2702905D01*
X7285525Y-2699240D01*
X7284858Y-2695741D01*
X7284192Y-2692575D01*
X7283359Y-2689742D01*
X7282359Y-2687243D01*
X7281526Y-2685077D01*
X7280693Y-2683077D01*
X7280026Y-2681411D01*
X7279360Y-2680078D01*
X7278693Y-2679078D01*
X7278193Y-2678412D01*
X7278027Y-2677912D01*
X7277860Y-2677745D01*
X7276027Y-2675579D01*
X7273861Y-2673580D01*
X7271695Y-2671913D01*
X7269196Y-2670414D01*
X7266696Y-2669247D01*
X7264197Y-2668248D01*
X7261697Y-2667248D01*
X7259365Y-2666581D01*
X7257032Y-2666082D01*
X7254866Y-2665748D01*
X7252866Y-2665415D01*
X7251200Y-2665248D01*
X7249867Y-2665082D01*
D02*
G37*
%LPD*%
D78*
X10418819Y-2679700D02*
Y-2579700D01*
X10343820D02*
X10418819D01*
X10343820D02*
Y-2504700D01*
X10143819D02*
X10343820D01*
X10143819Y-2579700D02*
Y-2504700D01*
X10068820Y-2579700D02*
X10143819D01*
X10068820Y-2779700D02*
Y-2579700D01*
Y-2779700D02*
X10143819D01*
Y-2854700D02*
Y-2779700D01*
Y-2854700D02*
X10343820D01*
Y-2779700D01*
X10418819D01*
Y-2679700D01*
D82*
X10384883Y-2375548D02*
Y-2455532D01*
Y-2375548D02*
X10335370D01*
X10384883Y-2413636D02*
X10354414D01*
X10326229Y-2375548D02*
Y-2455532D01*
Y-2375548D02*
X10295759Y-2455532D01*
X10265290Y-2375548D02*
X10295759Y-2455532D01*
X10265290Y-2375548D02*
Y-2455532D01*
X10238629Y-2394592D02*
Y-2390783D01*
X10234820Y-2383166D01*
X10231011Y-2379357D01*
X10223394Y-2375548D01*
X10208159D01*
X10200542Y-2379357D01*
X10196733Y-2383166D01*
X10192924Y-2390783D01*
Y-2398401D01*
X10196733Y-2406018D01*
X10204350Y-2417444D01*
X10242437Y-2455532D01*
X10189116D01*
%TF.MD5,13f6516907bb9eb3340e00c576feb322*%
M02*
